<svg width="146" height="146" viewBox="0 0 146 146" fill="none" xmlns="http://www.w3.org/2000/svg">
<circle opacity="0.1" cx="73" cy="73" r="72.5" stroke="white"/>
<circle opacity="0.3" cx="73" cy="76" r="70" fill="black"/>
<path opacity="0.7" d="M58.1093 95.168C57.26 95.168 56.5086 94.9767 55.8553 94.594C55.202 94.202 54.6933 93.67 54.3293 92.998C53.9746 92.326 53.7973 91.5793 53.7973 90.758C53.7973 89.8807 54.0026 89.0873 54.4133 88.378C54.8333 87.6687 55.4026 87.1133 56.1213 86.712C56.8493 86.3013 57.6566 86.096 58.5433 86.096C59.402 86.096 60.158 86.2873 60.8113 86.67C61.474 87.0433 61.9826 87.5613 62.3373 88.224C62.692 88.8867 62.8693 89.6287 62.8693 90.45C62.8693 91.374 62.6546 92.1953 62.2253 92.914C61.796 93.6233 61.2173 94.1787 60.4893 94.58C59.7613 94.972 58.968 95.168 58.1093 95.168ZM58.7113 94.804C59.3273 94.804 59.864 94.6547 60.3213 94.356C60.7786 94.048 61.1286 93.6187 61.3713 93.068C61.6233 92.5173 61.7493 91.878 61.7493 91.15C61.7493 90.2913 61.586 89.5027 61.2593 88.784C60.942 88.0653 60.4986 87.496 59.9293 87.076C59.36 86.6467 58.7206 86.432 58.0113 86.432C57.4046 86.432 56.8633 86.5813 56.3873 86.88C55.9206 87.1787 55.5566 87.608 55.2953 88.168C55.034 88.7187 54.9033 89.3673 54.9033 90.114C54.9033 90.9633 55.0666 91.7473 55.3933 92.466C55.72 93.1847 56.1726 93.754 56.7513 94.174C57.33 94.594 57.9833 94.804 58.7113 94.804ZM70.4072 93.908C70.4166 93.8987 70.4306 93.894 70.4492 93.894C70.4866 93.894 70.5192 93.9127 70.5472 93.95C70.5846 93.978 70.5939 94.0013 70.5752 94.02C70.2766 94.4027 70.0106 94.6827 69.7772 94.86C69.5439 95.0373 69.2966 95.126 69.0352 95.126C68.4846 95.126 68.2092 94.7573 68.2092 94.02V92.326C68.0226 93.2313 67.7286 93.936 67.3272 94.44C66.9352 94.9347 66.4592 95.182 65.8992 95.182C65.0312 95.182 64.6159 94.566 64.6532 93.334L64.7092 90.842C64.7186 90.3287 64.5926 90.072 64.3312 90.072C64.2192 90.072 64.1026 90.1233 63.9812 90.226C63.8599 90.3287 63.7012 90.4827 63.5052 90.688C63.4866 90.7067 63.4679 90.716 63.4492 90.716C63.4119 90.716 63.3839 90.702 63.3652 90.674C63.3372 90.6367 63.3279 90.604 63.3372 90.576C63.6266 90.2027 63.8879 89.9273 64.1212 89.75C64.3546 89.5633 64.6019 89.47 64.8632 89.47C65.4232 89.47 65.6892 89.8713 65.6612 90.674L65.5912 93.068C65.5819 94.0573 65.8432 94.552 66.3752 94.552C66.7206 94.552 67.0286 94.3607 67.2992 93.978C67.5792 93.586 67.7986 93.026 67.9572 92.298C68.1252 91.57 68.2092 90.7113 68.2092 89.722C68.2092 89.6473 68.2606 89.5913 68.3632 89.554C68.4659 89.5073 68.6059 89.484 68.7832 89.484C68.9792 89.484 69.0959 89.498 69.1332 89.526C69.1799 89.5447 69.2032 89.582 69.2032 89.638C69.2032 89.7033 69.1986 89.82 69.1892 89.988C69.1799 90.156 69.1752 90.3707 69.1752 90.632L69.1612 93.754C69.1612 94.2767 69.2872 94.538 69.5392 94.538C69.7539 94.538 70.0432 94.328 70.4072 93.908ZM74.3539 89.456C74.5779 89.456 74.7926 89.526 74.9979 89.666C75.2126 89.806 75.3246 89.9647 75.3339 90.142C75.3339 90.282 75.2779 90.4127 75.1659 90.534C75.0539 90.6553 74.9279 90.716 74.7879 90.716C74.6852 90.716 74.6012 90.702 74.5359 90.674C74.4799 90.6367 74.4052 90.5807 74.3119 90.506C74.1906 90.4033 74.0786 90.352 73.9759 90.352C73.7706 90.352 73.5746 90.6087 73.3879 91.122C73.2012 91.6353 73.0472 92.2513 72.9259 92.97C72.8046 93.6887 72.7392 94.3233 72.7299 94.874C72.7299 94.9487 72.6832 95.0047 72.5899 95.042C72.4966 95.0887 72.3566 95.112 72.1699 95.112C71.9832 95.112 71.8666 95.098 71.8199 95.07C71.7826 95.0513 71.7639 95.014 71.7639 94.958C71.7639 94.846 71.7686 94.748 71.7779 94.664L71.7919 93.964L71.8059 91.206C71.8152 90.4407 71.6566 90.058 71.3299 90.058C71.1992 90.058 71.0592 90.1047 70.9099 90.198C70.7699 90.2913 70.6299 90.422 70.4899 90.59C70.4806 90.5993 70.4666 90.604 70.4479 90.604C70.4199 90.604 70.3966 90.59 70.3779 90.562C70.3499 90.534 70.3406 90.506 70.3499 90.478C70.6019 90.1513 70.8632 89.904 71.1339 89.736C71.4046 89.5587 71.6659 89.47 71.9179 89.47C72.2072 89.47 72.4172 89.5913 72.5479 89.834C72.6879 90.0673 72.7579 90.5013 72.7579 91.136L72.7439 92.718C72.8839 91.7753 73.0892 90.996 73.3599 90.38C73.6306 89.764 73.9619 89.456 74.3539 89.456ZM79.5695 97.716C79.5321 97.7253 79.4995 97.702 79.4715 97.646C79.4435 97.5993 79.4435 97.5667 79.4715 97.548C79.8821 97.296 80.1761 96.9133 80.3535 96.4C80.5308 95.896 80.6148 95.2427 80.6055 94.44V87.384C80.6055 87.104 80.5775 86.8987 80.5215 86.768C80.4655 86.6373 80.3628 86.5487 80.2135 86.502C80.0641 86.446 79.8355 86.418 79.5275 86.418C79.4995 86.418 79.4855 86.39 79.4855 86.334C79.4855 86.278 79.4995 86.25 79.5275 86.25L80.1995 86.264C80.5728 86.2827 80.8808 86.292 81.1235 86.292C81.3941 86.292 81.7348 86.2827 82.1455 86.264L82.7755 86.25C82.8035 86.25 82.8175 86.278 82.8175 86.334C82.8175 86.39 82.8035 86.418 82.7755 86.418C82.4675 86.418 82.2388 86.446 82.0895 86.502C81.9401 86.558 81.8375 86.656 81.7815 86.796C81.7348 86.9267 81.7068 87.132 81.6975 87.412V94.062C81.6975 94.79 81.6275 95.378 81.4875 95.826C81.3475 96.2833 81.1281 96.6567 80.8295 96.946C80.5308 97.2353 80.1108 97.492 79.5695 97.716ZM85.9654 95.196C85.4614 95.196 85.0227 95.0747 84.6494 94.832C84.2854 94.5893 84.0054 94.258 83.8094 93.838C83.6134 93.418 83.5154 92.9513 83.5154 92.438C83.5154 91.8593 83.632 91.3413 83.8654 90.884C84.108 90.4267 84.4394 90.0673 84.8594 89.806C85.2794 89.5447 85.7554 89.414 86.2874 89.414C87.034 89.414 87.6314 89.6613 88.0794 90.156C88.5274 90.6413 88.7514 91.2993 88.7514 92.13C88.7514 92.7647 88.6207 93.3153 88.3594 93.782C88.1074 94.2393 87.7667 94.5893 87.3374 94.832C86.9174 95.0747 86.46 95.196 85.9654 95.196ZM86.3994 94.846C86.8194 94.846 87.1554 94.6593 87.4074 94.286C87.6687 93.9033 87.7994 93.3853 87.7994 92.732C87.7994 92.2187 87.7154 91.7333 87.5474 91.276C87.3794 90.8187 87.1507 90.45 86.8614 90.17C86.572 89.89 86.2454 89.75 85.8814 89.75C85.4707 89.75 85.13 89.932 84.8594 90.296C84.598 90.6507 84.4674 91.1547 84.4674 91.808C84.4674 92.3213 84.5514 92.8113 84.7194 93.278C84.8874 93.7447 85.116 94.1227 85.4054 94.412C85.704 94.7013 86.0354 94.846 86.3994 94.846ZM93.731 89.414C94.207 89.414 94.5897 89.61 94.879 90.002C95.1777 90.3847 95.327 90.8793 95.327 91.486C95.327 92.242 95.145 92.9 94.781 93.46C94.4263 94.02 93.983 94.4493 93.451 94.748C92.919 95.0373 92.4057 95.182 91.911 95.182C91.351 95.182 90.903 95.0653 90.567 94.832C90.2403 94.5987 90.0817 94.2813 90.091 93.88L90.175 86.46C90.1937 85.984 90.0443 85.746 89.727 85.746C89.5497 85.746 89.321 85.816 89.041 85.956H89.027C88.9803 85.956 88.9523 85.9327 88.943 85.886C88.9243 85.83 88.9337 85.7973 88.971 85.788L90.903 84.85H90.931C90.9683 84.85 91.0057 84.864 91.043 84.892C91.0803 84.92 91.099 84.9433 91.099 84.962L91.071 91.892C91.2763 91.1547 91.617 90.5573 92.093 90.1C92.5783 89.6427 93.1243 89.414 93.731 89.414ZM92.443 94.818C92.7697 94.818 93.073 94.7013 93.353 94.468C93.633 94.2347 93.857 93.8987 94.025 93.46C94.193 93.0213 94.2723 92.508 94.263 91.92C94.2723 91.388 94.1837 90.9587 93.997 90.632C93.8197 90.3053 93.5397 90.142 93.157 90.142C92.7557 90.142 92.3963 90.2867 92.079 90.576C91.771 90.8653 91.5237 91.276 91.337 91.808C91.1597 92.3307 91.071 92.9327 91.071 93.614V93.656C91.071 93.992 91.2017 94.272 91.463 94.496C91.7243 94.7107 92.051 94.818 92.443 94.818ZM99.6394 95C99.6114 95 99.5928 94.972 99.5834 94.916C99.5834 94.86 99.6021 94.832 99.6394 94.832C99.9568 94.832 100.185 94.8087 100.325 94.762C100.475 94.7153 100.577 94.6267 100.633 94.496C100.689 94.356 100.717 94.146 100.717 93.866V87.384C100.708 87.104 100.675 86.8987 100.619 86.768C100.563 86.6373 100.461 86.5487 100.311 86.502C100.171 86.446 99.9474 86.418 99.6394 86.418C99.6114 86.418 99.5928 86.39 99.5834 86.334C99.5834 86.278 99.6021 86.25 99.6394 86.25L100.283 86.264C100.657 86.2827 100.965 86.292 101.207 86.292C101.422 86.292 101.604 86.2873 101.753 86.278C101.912 86.2687 102.043 86.2593 102.145 86.25C102.472 86.222 102.785 86.208 103.083 86.208C103.989 86.208 104.735 86.404 105.323 86.796C105.911 87.188 106.205 87.762 106.205 88.518C106.205 89.134 106.037 89.6567 105.701 90.086C105.365 90.506 104.945 90.8187 104.441 91.024C103.937 91.2293 103.433 91.332 102.929 91.332C102.649 91.332 102.43 91.3087 102.271 91.262C102.253 91.262 102.243 91.234 102.243 91.178C102.243 91.15 102.248 91.1173 102.257 91.08C102.276 91.0427 102.295 91.0287 102.313 91.038C102.435 91.0753 102.584 91.094 102.761 91.094C103.377 91.094 103.9 90.898 104.329 90.506C104.768 90.114 104.987 89.5447 104.987 88.798C104.987 88.322 104.885 87.9067 104.679 87.552C104.474 87.188 104.203 86.9127 103.867 86.726C103.541 86.5393 103.191 86.446 102.817 86.446C102.519 86.446 102.299 86.4693 102.159 86.516C102.029 86.5533 101.935 86.6373 101.879 86.768C101.833 86.8987 101.805 87.1133 101.795 87.412L101.809 93.866C101.809 94.146 101.833 94.356 101.879 94.496C101.935 94.6267 102.033 94.7153 102.173 94.762C102.323 94.8087 102.551 94.832 102.859 94.832C102.887 94.832 102.901 94.86 102.901 94.916C102.901 94.972 102.887 95 102.859 95C102.579 95 102.36 94.9953 102.201 94.986L101.235 94.972L100.297 94.986C100.139 94.9953 99.9194 95 99.6394 95ZM109.276 95.196C108.772 95.196 108.333 95.0747 107.96 94.832C107.596 94.5893 107.316 94.258 107.12 93.838C106.924 93.418 106.826 92.9513 106.826 92.438C106.826 91.8593 106.943 91.3413 107.176 90.884C107.419 90.4267 107.75 90.0673 108.17 89.806C108.59 89.5447 109.066 89.414 109.598 89.414C110.345 89.414 110.942 89.6613 111.39 90.156C111.838 90.6413 112.062 91.2993 112.062 92.13C112.062 92.7647 111.931 93.3153 111.67 93.782C111.418 94.2393 111.077 94.5893 110.648 94.832C110.228 95.0747 109.771 95.196 109.276 95.196ZM109.71 94.846C110.13 94.846 110.466 94.6593 110.718 94.286C110.979 93.9033 111.11 93.3853 111.11 92.732C111.11 92.2187 111.026 91.7333 110.858 91.276C110.69 90.8187 110.461 90.45 110.172 90.17C109.883 89.89 109.556 89.75 109.192 89.75C108.781 89.75 108.441 89.932 108.17 90.296C107.909 90.6507 107.778 91.1547 107.778 91.808C107.778 92.3213 107.862 92.8113 108.03 93.278C108.198 93.7447 108.427 94.1227 108.716 94.412C109.015 94.7013 109.346 94.846 109.71 94.846ZM116.286 89.456C116.51 89.456 116.724 89.526 116.93 89.666C117.144 89.806 117.256 89.9647 117.266 90.142C117.266 90.282 117.21 90.4127 117.098 90.534C116.986 90.6553 116.86 90.716 116.72 90.716C116.617 90.716 116.533 90.702 116.468 90.674C116.412 90.6367 116.337 90.5807 116.244 90.506C116.122 90.4033 116.01 90.352 115.908 90.352C115.702 90.352 115.506 90.6087 115.32 91.122C115.133 91.6353 114.979 92.2513 114.858 92.97C114.736 93.6887 114.671 94.3233 114.662 94.874C114.662 94.9487 114.615 95.0047 114.522 95.042C114.428 95.0887 114.288 95.112 114.102 95.112C113.915 95.112 113.798 95.098 113.752 95.07C113.714 95.0513 113.696 95.014 113.696 94.958C113.696 94.846 113.7 94.748 113.71 94.664L113.724 93.964L113.738 91.206C113.747 90.4407 113.588 90.058 113.262 90.058C113.131 90.058 112.991 90.1047 112.842 90.198C112.702 90.2913 112.562 90.422 112.422 90.59C112.412 90.5993 112.398 90.604 112.38 90.604C112.352 90.604 112.328 90.59 112.31 90.562C112.282 90.534 112.272 90.506 112.282 90.478C112.534 90.1513 112.795 89.904 113.066 89.736C113.336 89.5587 113.598 89.47 113.85 89.47C114.139 89.47 114.349 89.5913 114.48 89.834C114.62 90.0673 114.69 90.5013 114.69 91.136L114.676 92.718C114.816 91.7753 115.021 90.996 115.292 90.38C115.562 89.764 115.894 89.456 116.286 89.456ZM122.252 89.61C122.289 89.61 122.317 89.624 122.336 89.652C122.364 89.68 122.378 89.708 122.378 89.736C122.369 89.8573 122.308 89.9927 122.196 90.142C122.093 90.2913 121.986 90.3567 121.874 90.338L121.58 90.296C120.777 90.1747 120.124 90.1047 119.62 90.086L119.606 93.516C119.606 93.88 119.681 94.146 119.83 94.314C119.979 94.482 120.217 94.566 120.544 94.566C120.955 94.566 121.361 94.4073 121.762 94.09H121.776C121.813 94.09 121.846 94.1087 121.874 94.146C121.902 94.174 121.902 94.1927 121.874 94.202C121.529 94.5473 121.202 94.7947 120.894 94.944C120.586 95.0933 120.273 95.168 119.956 95.168C119.573 95.168 119.256 95.07 119.004 94.874C118.761 94.678 118.645 94.3467 118.654 93.88L118.668 90.716C118.668 90.4827 118.649 90.3193 118.612 90.226C118.584 90.1233 118.523 90.0533 118.43 90.016C118.337 89.9787 118.183 89.96 117.968 89.96C117.94 89.96 117.926 89.9273 117.926 89.862C117.926 89.7967 117.935 89.764 117.954 89.764C118.346 89.764 118.659 89.6613 118.892 89.456C119.135 89.2413 119.289 88.9707 119.354 88.644C119.354 88.616 119.391 88.602 119.466 88.602C119.503 88.602 119.536 88.6113 119.564 88.63C119.601 88.6393 119.62 88.6487 119.62 88.658V89.736C119.769 89.736 120.409 89.708 121.538 89.652L122.252 89.61ZM128.462 93.922C128.472 93.9127 128.486 93.908 128.504 93.908C128.532 93.908 128.56 93.9267 128.588 93.964C128.616 93.992 128.626 94.0153 128.616 94.034C128.346 94.398 128.094 94.6733 127.86 94.86C127.627 95.0373 127.389 95.126 127.146 95.126C126.577 95.126 126.297 94.7293 126.306 93.936L126.32 92.452C126.04 93.2827 125.653 93.9453 125.158 94.44C124.673 94.9347 124.155 95.182 123.604 95.182C123.24 95.182 122.946 95.056 122.722 94.804C122.498 94.552 122.386 94.16 122.386 93.628C122.386 92.984 122.545 92.3353 122.862 91.682C123.189 91.0287 123.604 90.4873 124.108 90.058C124.622 89.6287 125.144 89.414 125.676 89.414C125.872 89.414 126.068 89.4467 126.264 89.512C126.47 89.568 126.647 89.6613 126.796 89.792C126.946 89.6613 127.048 89.5027 127.104 89.316C127.104 89.2973 127.128 89.288 127.174 89.288C127.268 89.288 127.305 89.302 127.286 89.33L127.258 93.754C127.249 94.2673 127.37 94.524 127.622 94.524C127.846 94.524 128.126 94.3233 128.462 93.922ZM126.278 91.15C126.278 90.7953 126.18 90.5107 125.984 90.296C125.788 90.0813 125.532 89.974 125.214 89.974C124.86 89.974 124.533 90.1 124.234 90.352C123.945 90.5947 123.716 90.94 123.548 91.388C123.38 91.8267 123.296 92.326 123.296 92.886C123.306 93.8847 123.595 94.384 124.164 94.384C124.528 94.384 124.874 94.2113 125.2 93.866C125.527 93.5113 125.788 93.082 125.984 92.578C126.18 92.0647 126.278 91.5887 126.278 91.15ZM130.391 95.126C129.812 95.126 129.532 94.7293 129.551 93.936L129.621 86.46C129.64 85.984 129.5 85.746 129.201 85.746C129.042 85.746 128.814 85.816 128.515 85.956H128.501C128.464 85.956 128.436 85.9327 128.417 85.886C128.398 85.8393 128.408 85.8067 128.445 85.788L130.377 84.85H130.405C130.442 84.85 130.475 84.864 130.503 84.892C130.54 84.92 130.559 84.9433 130.559 84.962L130.517 93.754C130.508 94.2673 130.634 94.524 130.895 94.524C131.091 94.524 131.366 94.3233 131.721 93.922C131.73 93.9127 131.744 93.908 131.763 93.908C131.8 93.908 131.833 93.9267 131.861 93.964C131.898 93.992 131.908 94.0153 131.889 94.034C131.6 94.4073 131.343 94.6827 131.119 94.86C130.895 95.0373 130.652 95.126 130.391 95.126Z" fill="white"/>
<path d="M35.1641 95.2461L35.9467 94.4132" stroke="#00AB62" stroke-width="0.5" stroke-miterlimit="10" stroke-linecap="round" stroke-linejoin="round"/>
<path d="M35.2602 93.6827L34.4775 94.5156" stroke="#00AB62" stroke-width="0.5" stroke-miterlimit="10" stroke-linecap="round" stroke-linejoin="round"/>
<path d="M35.4932 96.6021H39.3071C40.0979 96.6021 40.739 95.9198 40.739 95.0782V94.2316" stroke="#00AB62" stroke-width="0.5" stroke-miterlimit="10" stroke-linecap="round" stroke-linejoin="round"/>
<path d="M40.7388 88.252V87.1513C40.7388 86.3097 40.0977 85.6275 39.3069 85.6275H27.4319C26.6411 85.6275 26 86.3097 26 87.1513V95.0782C26 95.9198 26.6411 96.6021 27.4319 96.6021H30.9255" stroke="#00AB62" stroke-width="0.5" stroke-miterlimit="10" stroke-linecap="round" stroke-linejoin="round"/>
<path d="M26 88.2113C26 89.7363 27.1617 90.9727 28.5947 90.9727H28.6245" stroke="#00AB62" stroke-width="0.5" stroke-miterlimit="10" stroke-linecap="round" stroke-linejoin="round"/>
<path d="M29.9629 90.9727H34.4892" stroke="#00AB62" stroke-width="0.5" stroke-miterlimit="10" stroke-linecap="round" stroke-linejoin="round"/>
<path d="M33.1849 97.7637L35.1539 95.6682C35.2667 95.5481 35.2667 95.3534 35.1539 95.2333L34.4903 94.5271C34.3774 94.407 34.1945 94.407 34.0817 94.5271L32.1127 96.6226C31.8166 96.9377 31.8166 97.4486 32.1127 97.7637C32.4088 98.0788 32.8888 98.0788 33.1849 97.7637Z" stroke="#00AB62" stroke-width="0.5" stroke-miterlimit="10" stroke-linecap="round" stroke-linejoin="round"/>
<path d="M33.6475 94.9893L34.7197 96.1304" stroke="#00AB62" stroke-width="0.5" stroke-miterlimit="10" stroke-linecap="round" stroke-linejoin="round"/>
<path d="M40.8988 94.0712C39.4305 95.6338 37.05 95.6338 35.5817 94.0712C34.1134 92.5086 34.1134 89.9751 35.5817 88.4125C37.05 86.8499 39.4305 86.8499 40.8988 88.4125C42.3671 89.9751 42.3671 92.5086 40.8988 94.0712Z" stroke="#00AB62" stroke-width="0.5" stroke-miterlimit="10" stroke-linecap="round" stroke-linejoin="round"/>
<path d="M40.8382 91.8459C40.7336 92.3577 40.4944 92.8446 40.1205 93.2426C39.0823 94.3475 37.3989 94.3475 36.3607 93.2426C35.3225 92.1377 35.3225 90.3462 36.3607 89.2413C37.3989 88.1363 39.0823 88.1363 40.1205 89.2413C40.494 89.6388 40.7332 90.1252 40.8379 90.6365" stroke="#00AB62" stroke-width="0.5" stroke-miterlimit="10" stroke-linecap="round" stroke-linejoin="round"/>
<path d="M29.2932 92.8691C28.9236 92.8691 28.624 92.5503 28.624 92.157V90.5021C28.624 90.1088 28.9236 89.7899 29.2932 89.7899C29.6627 89.7899 29.9623 90.1088 29.9623 90.5021V92.157C29.9623 92.5503 29.6627 92.8691 29.2932 92.8691Z" stroke="#00AB62" stroke-width="0.5" stroke-miterlimit="10" stroke-linecap="round" stroke-linejoin="round"/>
<path d="M29.9623 91.624H28.624" stroke="#00AB62" stroke-width="0.5" stroke-miterlimit="10" stroke-linecap="round" stroke-linejoin="round"/>
<path d="M36.1301 85.6279V84.476C36.1301 83.6623 35.508 83.0002 34.7434 83.0002H31.9951C31.2305 83.0002 30.6084 83.6623 30.6084 84.476V85.6279" stroke="#00AB62" stroke-width="0.5" stroke-miterlimit="10" stroke-linecap="round" stroke-linejoin="round"/>
<path d="M31.6064 85.6279V84.476C31.6064 84.2479 31.7808 84.0623 31.9952 84.0623H34.7434C34.9578 84.0623 35.1322 84.2479 35.1322 84.476V85.6279" stroke="#00AB62" stroke-width="0.5" stroke-miterlimit="10" stroke-linecap="round" stroke-linejoin="round"/>
<path d="M23.8969 65.902V64.732H31.3069V73.572C31.3069 75.4787 30.7349 76.8827 29.5909 77.784C28.4469 78.7027 26.9042 79.162 24.9629 79.162C23.8189 79.162 22.7182 78.8673 21.6609 78.278C20.6209 77.706 20.1009 76.9173 20.1009 75.912C20.1009 75.7213 20.1615 75.444 20.2829 75.08L21.1669 72.792C19.6415 72.116 18.4109 70.972 17.4749 69.36C16.5562 67.748 16.0969 65.9367 16.0969 63.926C16.0969 61.1873 16.8769 58.9167 18.4369 57.114C20.0142 55.3113 22.1982 54.41 24.9889 54.41C26.3929 54.41 27.7449 54.6873 29.0449 55.242C30.3449 55.7967 30.9949 56.4553 30.9949 57.218C30.9949 57.5127 30.8995 57.8507 30.7089 58.232L29.2529 60.624L28.3169 60.312L28.4469 59.35C28.5162 58.934 28.5509 58.5353 28.5509 58.154C28.5509 57.478 28.2215 56.8887 27.5629 56.386C26.9042 55.8833 26.0462 55.632 24.9889 55.632C23.3942 55.632 22.1809 56.412 21.3489 57.972C20.5342 59.5147 20.1269 61.456 20.1269 63.796C20.1269 66.1187 20.5689 68.0167 21.4529 69.49C22.3542 70.946 23.6629 71.674 25.3789 71.674C26.0722 71.674 26.7482 71.5353 27.4069 71.258V65.902H23.8969ZM24.0269 73.39C23.4202 73.39 22.8395 73.312 22.2849 73.156V73.962C22.2849 75.938 22.7009 77.16 23.5329 77.628C23.9142 77.836 24.4342 77.94 25.0929 77.94C25.7689 77.94 26.3235 77.6973 26.7569 77.212C27.1902 76.744 27.4069 76.0333 27.4069 75.08V72.714C26.3669 73.1647 25.2402 73.39 24.0269 73.39Z" fill="#00AB62"/>
<path d="M34.822 55.84V54.8H40.542C44.806 54.8 47.4753 55.8227 48.55 57.868C48.9833 58.6653 49.2 59.636 49.2 60.78C49.2 61.924 48.9833 62.8947 48.55 63.692C48.134 64.4893 47.5186 65.1047 46.704 65.538C45.1786 66.3527 43.1246 66.76 40.542 66.76H40.282V71.96H42.362V73H34.822V71.96H36.382V55.84H34.822ZM40.542 55.84H40.282V65.72H40.542C41.9113 65.72 43.0466 65.2867 43.948 64.42C44.8493 63.5533 45.3 62.34 45.3 60.78C45.3 59.22 44.8493 58.0067 43.948 57.14C43.0466 56.2733 41.9113 55.84 40.542 55.84ZM51.4152 63.926C51.4152 61.17 52.1606 58.8993 53.6512 57.114C55.1592 55.3113 57.2999 54.41 60.0732 54.41C62.8639 54.41 65.0132 55.3027 66.5212 57.088C68.0292 58.8733 68.7832 61.1527 68.7832 63.926C68.7832 66.682 68.0292 68.9527 66.5212 70.738C65.0132 72.506 62.8639 73.39 60.0732 73.39C57.2999 73.39 55.1592 72.506 53.6512 70.738C52.1606 68.9527 51.4152 66.682 51.4152 63.926ZM60.0992 55.632C59.0766 55.632 58.2099 56.0307 57.4992 56.828C56.1299 58.3187 55.4452 60.6847 55.4452 63.926C55.4452 67.15 56.1299 69.4987 57.4992 70.972C58.2272 71.7693 59.0939 72.168 60.0992 72.168C61.5899 72.168 62.7339 71.3707 63.5312 69.776C64.3459 68.1813 64.7532 66.2313 64.7532 63.926C64.7532 61.6033 64.3459 59.6447 63.5312 58.05C62.7339 56.438 61.5899 55.632 60.0992 55.632ZM71.8923 55.84V54.8H77.6123C81.8243 54.8 84.4936 55.7707 85.6203 57.712C86.0536 58.4747 86.2703 59.402 86.2703 60.494C86.2703 63.0247 84.8316 64.7233 81.9543 65.59C83.0463 65.954 83.7743 66.708 84.1383 67.852L84.9183 70.452C85.0396 70.8853 85.1956 71.1887 85.3863 71.362C85.5769 71.5353 85.8976 71.622 86.3483 71.622C86.7989 71.622 87.3276 71.3707 87.9343 70.868L88.4023 71.492C87.0156 72.7573 85.5423 73.39 83.9823 73.39C83.1849 73.39 82.5436 73.2513 82.0583 72.974C81.5729 72.6967 81.2263 72.2113 81.0183 71.518L79.7963 67.514C79.6403 67.0113 79.3976 66.6647 79.0683 66.474C78.7389 66.2833 78.1669 66.1793 77.3523 66.162V71.96H79.4323V73H71.8923V71.96H73.4523V55.84H71.8923ZM77.6123 55.84H77.3523V65.122H77.6123C78.9816 65.122 80.1169 64.7233 81.0183 63.926C81.9196 63.1113 82.3703 61.9673 82.3703 60.494C82.3703 59.0207 81.9196 57.8767 81.0183 57.062C80.1169 56.2473 78.9816 55.84 77.6123 55.84ZM98.4204 55.84H98.1604V71.96H100.76V73H91.6604V71.96H94.2604V55.84H94.0004C92.8564 55.84 92.0677 55.9527 91.6344 56.178C91.2184 56.4033 90.9324 56.906 90.7764 57.686L90.2564 60.26H89.2424L88.5404 55.892C88.5404 55.5453 88.6184 55.294 88.7744 55.138C88.9304 54.9647 89.0951 54.8693 89.2684 54.852C89.4591 54.8173 89.7451 54.8 90.1264 54.8H102.294C102.676 54.8 102.953 54.8173 103.126 54.852C103.317 54.8693 103.49 54.9647 103.646 55.138C103.802 55.294 103.88 55.5453 103.88 55.892L103.178 60.26H102.164L101.644 57.686C101.488 56.906 101.194 56.4033 100.76 56.178C100.344 55.9527 99.5644 55.84 98.4204 55.84ZM105.833 55.84V54.8H113.373V55.84H111.553V71.96H113.373V73H105.833V71.96H107.653V55.84H105.833ZM119.332 55.84V54.8H125.52L130.694 71.96H131.994V73H125.286V71.96H126.794L125.832 68.762H118.759L117.824 71.96H119.332V73H114.938V71.96H116.238L121.1 55.84H119.332ZM122.27 56.958L119.124 67.592H125.468L122.27 56.958Z" fill="white"/>
</svg>
