<svg width="154" height="54" viewBox="0 0 154 54" fill="none" xmlns="http://www.w3.org/2000/svg">
<path d="M58.9977 50.216C57.9057 50.216 56.9397 49.97 56.0997 49.478C55.2597 48.974 54.6057 48.29 54.1377 47.426C53.6817 46.562 53.4537 45.602 53.4537 44.546C53.4537 43.418 53.7177 42.398 54.2457 41.486C54.7857 40.574 55.5177 39.86 56.4417 39.344C57.3777 38.816 58.4157 38.552 59.5557 38.552C60.6597 38.552 61.6317 38.798 62.4717 39.29C63.3237 39.77 63.9777 40.436 64.4337 41.288C64.8897 42.14 65.1177 43.094 65.1177 44.15C65.1177 45.338 64.8417 46.394 64.2897 47.318C63.7377 48.23 62.9937 48.944 62.0577 49.46C61.1217 49.964 60.1017 50.216 58.9977 50.216ZM59.7717 49.748C60.5637 49.748 61.2537 49.556 61.8417 49.172C62.4297 48.776 62.8797 48.224 63.1917 47.516C63.5157 46.808 63.6777 45.986 63.6777 45.05C63.6777 43.946 63.4677 42.932 63.0477 42.008C62.6397 41.084 62.0697 40.352 61.3377 39.812C60.6057 39.26 59.7837 38.984 58.8717 38.984C58.0917 38.984 57.3957 39.176 56.7837 39.56C56.1837 39.944 55.7157 40.496 55.3797 41.216C55.0437 41.924 54.8757 42.758 54.8757 43.718C54.8757 44.81 55.0857 45.818 55.5057 46.742C55.9257 47.666 56.5077 48.398 57.2517 48.938C57.9957 49.478 58.8357 49.748 59.7717 49.748ZM74.8093 48.596C74.8213 48.584 74.8393 48.578 74.8633 48.578C74.9113 48.578 74.9533 48.602 74.9893 48.65C75.0373 48.686 75.0493 48.716 75.0253 48.74C74.6413 49.232 74.2993 49.592 73.9993 49.82C73.6993 50.048 73.3813 50.162 73.0453 50.162C72.3373 50.162 71.9833 49.688 71.9833 48.74V46.562C71.7433 47.726 71.3653 48.632 70.8493 49.28C70.3453 49.916 69.7333 50.234 69.0133 50.234C67.8973 50.234 67.3633 49.442 67.4113 47.858L67.4833 44.654C67.4953 43.994 67.3333 43.664 66.9973 43.664C66.8533 43.664 66.7033 43.73 66.5473 43.862C66.3913 43.994 66.1873 44.192 65.9353 44.456C65.9113 44.48 65.8873 44.492 65.8633 44.492C65.8153 44.492 65.7793 44.474 65.7553 44.438C65.7193 44.39 65.7073 44.348 65.7193 44.312C66.0913 43.832 66.4273 43.478 66.7273 43.25C67.0273 43.01 67.3453 42.89 67.6813 42.89C68.4013 42.89 68.7433 43.406 68.7073 44.438L68.6173 47.516C68.6053 48.788 68.9413 49.424 69.6253 49.424C70.0693 49.424 70.4653 49.178 70.8133 48.686C71.1733 48.182 71.4553 47.462 71.6593 46.526C71.8753 45.59 71.9833 44.486 71.9833 43.214C71.9833 43.118 72.0493 43.046 72.1813 42.998C72.3133 42.938 72.4933 42.908 72.7213 42.908C72.9733 42.908 73.1233 42.926 73.1713 42.962C73.2313 42.986 73.2613 43.034 73.2613 43.106C73.2613 43.19 73.2553 43.34 73.2433 43.556C73.2313 43.772 73.2253 44.048 73.2253 44.384L73.2073 48.398C73.2073 49.07 73.3693 49.406 73.6933 49.406C73.9693 49.406 74.3413 49.136 74.8093 48.596ZM79.8836 42.872C80.1716 42.872 80.4476 42.962 80.7116 43.142C80.9876 43.322 81.1316 43.526 81.1436 43.754C81.1436 43.934 81.0716 44.102 80.9276 44.258C80.7836 44.414 80.6216 44.492 80.4416 44.492C80.3096 44.492 80.2016 44.474 80.1176 44.438C80.0456 44.39 79.9496 44.318 79.8296 44.222C79.6736 44.09 79.5296 44.024 79.3976 44.024C79.1336 44.024 78.8816 44.354 78.6416 45.014C78.4016 45.674 78.2036 46.466 78.0476 47.39C77.8916 48.314 77.8076 49.13 77.7956 49.838C77.7956 49.934 77.7356 50.006 77.6156 50.054C77.4956 50.114 77.3156 50.144 77.0756 50.144C76.8356 50.144 76.6856 50.126 76.6256 50.09C76.5776 50.066 76.5536 50.018 76.5536 49.946C76.5536 49.802 76.5596 49.676 76.5716 49.568L76.5896 48.668L76.6076 45.122C76.6196 44.138 76.4156 43.646 75.9956 43.646C75.8276 43.646 75.6476 43.706 75.4556 43.826C75.2756 43.946 75.0956 44.114 74.9156 44.33C74.9036 44.342 74.8856 44.348 74.8616 44.348C74.8256 44.348 74.7956 44.33 74.7716 44.294C74.7356 44.258 74.7236 44.222 74.7356 44.186C75.0596 43.766 75.3956 43.448 75.7436 43.232C76.0916 43.004 76.4276 42.89 76.7516 42.89C77.1236 42.89 77.3936 43.046 77.5616 43.358C77.7416 43.658 77.8316 44.216 77.8316 45.032L77.8136 47.066C77.9936 45.854 78.2576 44.852 78.6056 44.06C78.9536 43.268 79.3796 42.872 79.8836 42.872ZM86.5893 53.492C86.5413 53.504 86.4993 53.474 86.4633 53.402C86.4273 53.342 86.4273 53.3 86.4633 53.276C86.9913 52.952 87.3693 52.46 87.5973 51.8C87.8253 51.152 87.9333 50.312 87.9213 49.28V40.208C87.9213 39.848 87.8853 39.584 87.8133 39.416C87.7413 39.248 87.6093 39.134 87.4173 39.074C87.2253 39.002 86.9313 38.966 86.5353 38.966C86.4993 38.966 86.4813 38.93 86.4813 38.858C86.4813 38.786 86.4993 38.75 86.5353 38.75L87.3993 38.768C87.8793 38.792 88.2753 38.804 88.5873 38.804C88.9353 38.804 89.3733 38.792 89.9013 38.768L90.7113 38.75C90.7473 38.75 90.7653 38.786 90.7653 38.858C90.7653 38.93 90.7473 38.966 90.7113 38.966C90.3153 38.966 90.0213 39.002 89.8293 39.074C89.6373 39.146 89.5053 39.272 89.4333 39.452C89.3733 39.62 89.3373 39.884 89.3253 40.244V48.794C89.3253 49.73 89.2353 50.486 89.0553 51.062C88.8753 51.65 88.5933 52.13 88.2093 52.502C87.8253 52.874 87.2853 53.204 86.5893 53.492ZM94.8126 50.252C94.1646 50.252 93.6006 50.096 93.1206 49.784C92.6526 49.472 92.2926 49.046 92.0406 48.506C91.7886 47.966 91.6626 47.366 91.6626 46.706C91.6626 45.962 91.8126 45.296 92.1126 44.708C92.4246 44.12 92.8506 43.658 93.3906 43.322C93.9306 42.986 94.5426 42.818 95.2266 42.818C96.1866 42.818 96.9546 43.136 97.5306 43.772C98.1066 44.396 98.3946 45.242 98.3946 46.31C98.3946 47.126 98.2266 47.834 97.8906 48.434C97.5666 49.022 97.1286 49.472 96.5766 49.784C96.0366 50.096 95.4486 50.252 94.8126 50.252ZM95.3706 49.802C95.9106 49.802 96.3426 49.562 96.6666 49.082C97.0026 48.59 97.1706 47.924 97.1706 47.084C97.1706 46.424 97.0626 45.8 96.8466 45.212C96.6306 44.624 96.3366 44.15 95.9646 43.79C95.5926 43.43 95.1726 43.25 94.7046 43.25C94.1766 43.25 93.7386 43.484 93.3906 43.952C93.0546 44.408 92.8866 45.056 92.8866 45.896C92.8866 46.556 92.9946 47.186 93.2106 47.786C93.4266 48.386 93.7206 48.872 94.0926 49.244C94.4766 49.616 94.9026 49.802 95.3706 49.802ZM104.797 42.818C105.409 42.818 105.901 43.07 106.273 43.574C106.657 44.066 106.849 44.702 106.849 45.482C106.849 46.454 106.615 47.3 106.147 48.02C105.691 48.74 105.121 49.292 104.437 49.676C103.753 50.048 103.093 50.234 102.457 50.234C101.737 50.234 101.161 50.084 100.729 49.784C100.309 49.484 100.105 49.076 100.117 48.56L100.225 39.02C100.249 38.408 100.057 38.102 99.649 38.102C99.421 38.102 99.127 38.192 98.767 38.372H98.749C98.689 38.372 98.653 38.342 98.641 38.282C98.617 38.21 98.629 38.168 98.677 38.156L101.161 36.95H101.197C101.245 36.95 101.293 36.968 101.341 37.004C101.389 37.04 101.413 37.07 101.413 37.094L101.377 46.004C101.641 45.056 102.079 44.288 102.691 43.7C103.315 43.112 104.017 42.818 104.797 42.818ZM103.141 49.766C103.561 49.766 103.951 49.616 104.311 49.316C104.671 49.016 104.959 48.584 105.175 48.02C105.391 47.456 105.493 46.796 105.481 46.04C105.493 45.356 105.379 44.804 105.139 44.384C104.911 43.964 104.551 43.754 104.059 43.754C103.543 43.754 103.081 43.94 102.673 44.312C102.277 44.684 101.959 45.212 101.719 45.896C101.491 46.568 101.377 47.342 101.377 48.218V48.272C101.377 48.704 101.545 49.064 101.881 49.352C102.217 49.628 102.637 49.766 103.141 49.766ZM112.394 50C112.358 50 112.334 49.964 112.322 49.892C112.322 49.82 112.346 49.784 112.394 49.784C112.802 49.784 113.096 49.754 113.276 49.694C113.468 49.634 113.6 49.52 113.672 49.352C113.744 49.172 113.78 48.902 113.78 48.542V40.208C113.768 39.848 113.726 39.584 113.654 39.416C113.582 39.248 113.45 39.134 113.258 39.074C113.078 39.002 112.79 38.966 112.394 38.966C112.358 38.966 112.334 38.93 112.322 38.858C112.322 38.786 112.346 38.75 112.394 38.75L113.222 38.768C113.702 38.792 114.098 38.804 114.41 38.804C114.686 38.804 114.92 38.798 115.112 38.786C115.316 38.774 115.484 38.762 115.616 38.75C116.036 38.714 116.438 38.696 116.822 38.696C117.986 38.696 118.946 38.948 119.702 39.452C120.458 39.956 120.836 40.694 120.836 41.666C120.836 42.458 120.62 43.13 120.188 43.682C119.756 44.222 119.216 44.624 118.568 44.888C117.92 45.152 117.272 45.284 116.624 45.284C116.264 45.284 115.982 45.254 115.778 45.194C115.754 45.194 115.742 45.158 115.742 45.086C115.742 45.05 115.748 45.008 115.76 44.96C115.784 44.912 115.808 44.894 115.832 44.906C115.988 44.954 116.18 44.978 116.408 44.978C117.2 44.978 117.872 44.726 118.424 44.222C118.988 43.718 119.27 42.986 119.27 42.026C119.27 41.414 119.138 40.88 118.874 40.424C118.61 39.956 118.262 39.602 117.83 39.362C117.41 39.122 116.96 39.002 116.48 39.002C116.096 39.002 115.814 39.032 115.634 39.092C115.466 39.14 115.346 39.248 115.274 39.416C115.214 39.584 115.178 39.86 115.166 40.244L115.184 48.542C115.184 48.902 115.214 49.172 115.274 49.352C115.346 49.52 115.472 49.634 115.652 49.694C115.844 49.754 116.138 49.784 116.534 49.784C116.57 49.784 116.588 49.82 116.588 49.892C116.588 49.964 116.57 50 116.534 50C116.174 50 115.892 49.994 115.688 49.982L114.446 49.964L113.24 49.982C113.036 49.994 112.754 50 112.394 50ZM124.783 50.252C124.135 50.252 123.571 50.096 123.091 49.784C122.623 49.472 122.263 49.046 122.011 48.506C121.759 47.966 121.633 47.366 121.633 46.706C121.633 45.962 121.783 45.296 122.083 44.708C122.395 44.12 122.821 43.658 123.361 43.322C123.901 42.986 124.513 42.818 125.197 42.818C126.157 42.818 126.925 43.136 127.501 43.772C128.077 44.396 128.365 45.242 128.365 46.31C128.365 47.126 128.197 47.834 127.861 48.434C127.537 49.022 127.099 49.472 126.547 49.784C126.007 50.096 125.419 50.252 124.783 50.252ZM125.341 49.802C125.881 49.802 126.313 49.562 126.637 49.082C126.973 48.59 127.141 47.924 127.141 47.084C127.141 46.424 127.033 45.8 126.817 45.212C126.601 44.624 126.307 44.15 125.935 43.79C125.563 43.43 125.143 43.25 124.675 43.25C124.147 43.25 123.709 43.484 123.361 43.952C123.025 44.408 122.857 45.056 122.857 45.896C122.857 46.556 122.965 47.186 123.181 47.786C123.397 48.386 123.691 48.872 124.063 49.244C124.447 49.616 124.873 49.802 125.341 49.802ZM133.796 42.872C134.084 42.872 134.36 42.962 134.624 43.142C134.9 43.322 135.044 43.526 135.056 43.754C135.056 43.934 134.984 44.102 134.84 44.258C134.696 44.414 134.534 44.492 134.354 44.492C134.222 44.492 134.114 44.474 134.03 44.438C133.958 44.39 133.862 44.318 133.742 44.222C133.586 44.09 133.442 44.024 133.31 44.024C133.046 44.024 132.794 44.354 132.554 45.014C132.314 45.674 132.116 46.466 131.96 47.39C131.804 48.314 131.72 49.13 131.708 49.838C131.708 49.934 131.648 50.006 131.528 50.054C131.408 50.114 131.228 50.144 130.988 50.144C130.748 50.144 130.598 50.126 130.538 50.09C130.49 50.066 130.466 50.018 130.466 49.946C130.466 49.802 130.472 49.676 130.484 49.568L130.502 48.668L130.52 45.122C130.532 44.138 130.328 43.646 129.908 43.646C129.74 43.646 129.56 43.706 129.368 43.826C129.188 43.946 129.008 44.114 128.828 44.33C128.816 44.342 128.798 44.348 128.774 44.348C128.738 44.348 128.708 44.33 128.684 44.294C128.648 44.258 128.636 44.222 128.648 44.186C128.972 43.766 129.308 43.448 129.656 43.232C130.004 43.004 130.34 42.89 130.664 42.89C131.036 42.89 131.306 43.046 131.474 43.358C131.654 43.658 131.744 44.216 131.744 45.032L131.726 47.066C131.906 45.854 132.17 44.852 132.518 44.06C132.866 43.268 133.292 42.872 133.796 42.872ZM141.467 43.07C141.515 43.07 141.551 43.088 141.575 43.124C141.611 43.16 141.629 43.196 141.629 43.232C141.617 43.388 141.539 43.562 141.395 43.754C141.263 43.946 141.125 44.03 140.981 44.006L140.603 43.952C139.571 43.796 138.731 43.706 138.083 43.682L138.065 48.092C138.065 48.56 138.161 48.902 138.353 49.118C138.545 49.334 138.851 49.442 139.271 49.442C139.799 49.442 140.321 49.238 140.837 48.83H140.855C140.903 48.83 140.945 48.854 140.981 48.902C141.017 48.938 141.017 48.962 140.981 48.974C140.537 49.418 140.117 49.736 139.721 49.928C139.325 50.12 138.923 50.216 138.515 50.216C138.023 50.216 137.615 50.09 137.291 49.838C136.979 49.586 136.829 49.16 136.841 48.56L136.859 44.492C136.859 44.192 136.835 43.982 136.787 43.862C136.751 43.73 136.673 43.64 136.553 43.592C136.433 43.544 136.235 43.52 135.959 43.52C135.923 43.52 135.905 43.478 135.905 43.394C135.905 43.31 135.917 43.268 135.941 43.268C136.445 43.268 136.847 43.136 137.147 42.872C137.459 42.596 137.657 42.248 137.741 41.828C137.741 41.792 137.789 41.774 137.885 41.774C137.933 41.774 137.975 41.786 138.011 41.81C138.059 41.822 138.083 41.834 138.083 41.846V43.232C138.275 43.232 139.097 43.196 140.549 43.124L141.467 43.07ZM149.452 48.614C149.464 48.602 149.482 48.596 149.506 48.596C149.542 48.596 149.578 48.62 149.614 48.668C149.65 48.704 149.662 48.734 149.65 48.758C149.302 49.226 148.978 49.58 148.678 49.82C148.378 50.048 148.072 50.162 147.76 50.162C147.028 50.162 146.668 49.652 146.68 48.632L146.698 46.724C146.338 47.792 145.84 48.644 145.204 49.28C144.58 49.916 143.914 50.234 143.206 50.234C142.738 50.234 142.36 50.072 142.072 49.748C141.784 49.424 141.64 48.92 141.64 48.236C141.64 47.408 141.844 46.574 142.252 45.734C142.672 44.894 143.206 44.198 143.854 43.646C144.514 43.094 145.186 42.818 145.87 42.818C146.122 42.818 146.374 42.86 146.626 42.944C146.89 43.016 147.118 43.136 147.31 43.304C147.502 43.136 147.634 42.932 147.706 42.692C147.706 42.668 147.736 42.656 147.796 42.656C147.916 42.656 147.964 42.674 147.94 42.71L147.904 48.398C147.892 49.058 148.048 49.388 148.372 49.388C148.66 49.388 149.02 49.13 149.452 48.614ZM146.644 45.05C146.644 44.594 146.518 44.228 146.266 43.952C146.014 43.676 145.684 43.538 145.276 43.538C144.82 43.538 144.4 43.7 144.016 44.024C143.644 44.336 143.35 44.78 143.134 45.356C142.918 45.92 142.81 46.562 142.81 47.282C142.822 48.566 143.194 49.208 143.926 49.208C144.394 49.208 144.838 48.986 145.258 48.542C145.678 48.086 146.014 47.534 146.266 46.886C146.518 46.226 146.644 45.614 146.644 45.05ZM151.931 50.162C151.187 50.162 150.827 49.652 150.851 48.632L150.941 39.02C150.965 38.408 150.785 38.102 150.401 38.102C150.197 38.102 149.903 38.192 149.519 38.372H149.501C149.453 38.372 149.417 38.342 149.393 38.282C149.369 38.222 149.381 38.18 149.429 38.156L151.913 36.95H151.949C151.997 36.95 152.039 36.968 152.075 37.004C152.123 37.04 152.147 37.07 152.147 37.094L152.093 48.398C152.081 49.058 152.243 49.388 152.579 49.388C152.831 49.388 153.185 49.13 153.641 48.614C153.653 48.602 153.671 48.596 153.695 48.596C153.743 48.596 153.785 48.62 153.821 48.668C153.869 48.704 153.881 48.734 153.857 48.758C153.485 49.238 153.155 49.592 152.867 49.82C152.579 50.048 152.267 50.162 151.931 50.162Z" fill="black"/>
<path d="M39.1641 49.2463L39.9467 48.4134" stroke="#00AB62" stroke-width="0.5" stroke-miterlimit="10" stroke-linecap="round" stroke-linejoin="round"/>
<path d="M39.2602 47.6825L38.4775 48.5154" stroke="#00AB62" stroke-width="0.5" stroke-miterlimit="10" stroke-linecap="round" stroke-linejoin="round"/>
<path d="M39.4932 50.6023H43.3071C44.0979 50.6023 44.739 49.92 44.739 49.0784V48.2318" stroke="#00AB62" stroke-width="0.5" stroke-miterlimit="10" stroke-linecap="round" stroke-linejoin="round"/>
<path d="M44.7388 42.2522V41.1515C44.7388 40.3099 44.0977 39.6277 43.3069 39.6277H31.4319C30.6411 39.6277 30 40.3099 30 41.1515V49.0784C30 49.92 30.6411 50.6023 31.4319 50.6023H34.9255" stroke="#00AB62" stroke-width="0.5" stroke-miterlimit="10" stroke-linecap="round" stroke-linejoin="round"/>
<path d="M30 42.2114C30 43.7364 31.1617 44.9727 32.5947 44.9727H32.6245" stroke="#00AB62" stroke-width="0.5" stroke-miterlimit="10" stroke-linecap="round" stroke-linejoin="round"/>
<path d="M33.9629 44.9727H38.4892" stroke="#00AB62" stroke-width="0.5" stroke-miterlimit="10" stroke-linecap="round" stroke-linejoin="round"/>
<path d="M37.1849 51.7637L39.1539 49.6682C39.2667 49.5481 39.2667 49.3534 39.1539 49.2333L38.4903 48.5271C38.3774 48.407 38.1945 48.407 38.0817 48.5271L36.1127 50.6226C35.8166 50.9377 35.8166 51.4486 36.1127 51.7637C36.4088 52.0788 36.8888 52.0788 37.1849 51.7637Z" stroke="#00AB62" stroke-width="0.5" stroke-miterlimit="10" stroke-linecap="round" stroke-linejoin="round"/>
<path d="M37.6475 48.9892L38.7197 50.1303" stroke="#00AB62" stroke-width="0.5" stroke-miterlimit="10" stroke-linecap="round" stroke-linejoin="round"/>
<path d="M44.8988 48.0714C43.4305 49.634 41.05 49.634 39.5817 48.0714C38.1134 46.5088 38.1134 43.9753 39.5817 42.4127C41.05 40.8501 43.4305 40.8501 44.8988 42.4127C46.3671 43.9753 46.3671 46.5088 44.8988 48.0714Z" stroke="#00AB62" stroke-width="0.5" stroke-miterlimit="10" stroke-linecap="round" stroke-linejoin="round"/>
<path d="M44.8382 45.846C44.7336 46.3578 44.4944 46.8447 44.1205 47.2427C43.0823 48.3476 41.3989 48.3476 40.3607 47.2427C39.3225 46.1378 39.3225 44.3463 40.3607 43.2414C41.3989 42.1364 43.0823 42.1364 44.1205 43.2414C44.494 43.6389 44.7332 44.1253 44.8379 44.6366" stroke="#00AB62" stroke-width="0.5" stroke-miterlimit="10" stroke-linecap="round" stroke-linejoin="round"/>
<path d="M33.2932 46.869C32.9236 46.869 32.624 46.5502 32.624 46.1569V44.502C32.624 44.1087 32.9236 43.7898 33.2932 43.7898C33.6627 43.7898 33.9623 44.1087 33.9623 44.502V46.1569C33.9623 46.5502 33.6627 46.869 33.2932 46.869Z" stroke="#00AB62" stroke-width="0.5" stroke-miterlimit="10" stroke-linecap="round" stroke-linejoin="round"/>
<path d="M33.9623 45.624H32.624" stroke="#00AB62" stroke-width="0.5" stroke-miterlimit="10" stroke-linecap="round" stroke-linejoin="round"/>
<path d="M40.1301 39.6277V38.4758C40.1301 37.662 39.508 37 38.7434 37H35.9951C35.2305 37 34.6084 37.662 34.6084 38.4758V39.6277" stroke="#00AB62" stroke-width="0.5" stroke-miterlimit="10" stroke-linecap="round" stroke-linejoin="round"/>
<path d="M35.6064 39.6277V38.4758C35.6064 38.2477 35.7808 38.0621 35.9952 38.0621H38.7434C38.9578 38.0621 39.1322 38.2477 39.1322 38.4758V39.6277" stroke="#00AB62" stroke-width="0.5" stroke-miterlimit="10" stroke-linecap="round" stroke-linejoin="round"/>
<path d="M12.6344 15.718V14.188H22.3244V25.748C22.3244 28.2413 21.5764 30.0773 20.0804 31.256C18.5844 32.4573 16.567 33.058 14.0284 33.058C12.5324 33.058 11.093 32.6727 9.71037 31.902C8.35038 31.154 7.67038 30.1227 7.67038 28.808C7.67038 28.5587 7.74971 28.196 7.90838 27.72L9.06438 24.728C7.06971 23.844 5.46038 22.348 4.23638 20.24C3.03504 18.132 2.43438 15.7633 2.43438 13.134C2.43438 9.55267 3.45438 6.58333 5.49438 4.226C7.55704 1.86867 10.413 0.689999 14.0624 0.689999C15.8984 0.689999 17.6664 1.05267 19.3664 1.778C21.0664 2.50333 21.9164 3.36467 21.9164 4.362C21.9164 4.74733 21.7917 5.18933 21.5424 5.688L19.6384 8.816L18.4144 8.408L18.5844 7.15C18.675 6.606 18.7204 6.08467 18.7204 5.586C18.7204 4.702 18.2897 3.93133 17.4284 3.274C16.567 2.61667 15.445 2.288 14.0624 2.288C11.977 2.288 10.3904 3.308 9.30238 5.348C8.23704 7.36533 7.70438 9.904 7.70438 12.964C7.70438 16.0013 8.28238 18.4833 9.43838 20.41C10.617 22.314 12.3284 23.266 14.5724 23.266C15.479 23.266 16.363 23.0847 17.2244 22.722V15.718H12.6344ZM12.8044 25.51C12.011 25.51 11.2517 25.408 10.5264 25.204V26.258C10.5264 28.842 11.0704 30.44 12.1584 31.052C12.657 31.324 13.337 31.46 14.1984 31.46C15.0824 31.46 15.8077 31.1427 16.3744 30.508C16.941 29.896 17.2244 28.9667 17.2244 27.72V24.626C15.8644 25.2153 14.391 25.51 12.8044 25.51Z" fill="#00AB62"/>
<path d="M26.921 2.56V1.2H34.401C39.977 1.2 43.4677 2.53733 44.873 5.212C45.4397 6.25467 45.723 7.524 45.723 9.02C45.723 10.516 45.4397 11.7853 44.873 12.828C44.329 13.8707 43.5243 14.6753 42.459 15.242C40.4643 16.3073 37.7783 16.84 34.401 16.84H34.061V23.64H36.781V25H26.921V23.64H28.961V2.56H26.921ZM34.401 2.56H34.061V15.48H34.401C36.1917 15.48 37.6763 14.9133 38.855 13.78C40.0337 12.6467 40.623 11.06 40.623 9.02C40.623 6.98 40.0337 5.39333 38.855 4.26C37.6763 3.12667 36.1917 2.56 34.401 2.56ZM48.6199 13.134C48.6199 9.53 49.5946 6.56067 51.5439 4.226C53.5159 1.86867 56.3153 0.689999 59.9419 0.689999C63.5913 0.689999 66.4019 1.85733 68.3739 4.192C70.3459 6.52667 71.3319 9.50733 71.3319 13.134C71.3319 16.738 70.3459 19.7073 68.3739 22.042C66.4019 24.354 63.5913 25.51 59.9419 25.51C56.3153 25.51 53.5159 24.354 51.5439 22.042C49.5946 19.7073 48.6199 16.738 48.6199 13.134ZM59.9759 2.288C58.6386 2.288 57.5053 2.80933 56.5759 3.852C54.7853 5.80133 53.8899 8.89533 53.8899 13.134C53.8899 17.35 54.7853 20.4213 56.5759 22.348C57.5279 23.3907 58.6613 23.912 59.9759 23.912C61.9253 23.912 63.4213 22.8693 64.4639 20.784C65.5293 18.6987 66.0619 16.1487 66.0619 13.134C66.0619 10.0967 65.5293 7.53533 64.4639 5.45C63.4213 3.342 61.9253 2.288 59.9759 2.288ZM75.3976 2.56V1.2H82.8776C88.3856 1.2 91.8762 2.46933 93.3496 5.008C93.9162 6.00533 94.1996 7.218 94.1996 8.646C94.1996 11.9553 92.3182 14.1767 88.5556 15.31C89.9836 15.786 90.9356 16.772 91.4116 18.268L92.4316 21.668C92.5902 22.2347 92.7942 22.6313 93.0436 22.858C93.2929 23.0847 93.7122 23.198 94.3016 23.198C94.8909 23.198 95.5822 22.8693 96.3756 22.212L96.9876 23.028C95.1742 24.6827 93.2476 25.51 91.2076 25.51C90.1649 25.51 89.3262 25.3287 88.6916 24.966C88.0569 24.6033 87.6036 23.9687 87.3316 23.062L85.7336 17.826C85.5296 17.1687 85.2122 16.7153 84.7816 16.466C84.3509 16.2167 83.6029 16.0807 82.5376 16.058V23.64H85.2576V25H75.3976V23.64H77.4376V2.56H75.3976ZM82.8776 2.56H82.5376V14.698H82.8776C84.6682 14.698 86.1529 14.1767 87.3316 13.134C88.5102 12.0687 89.0996 10.5727 89.0996 8.646C89.0996 6.71933 88.5102 5.22333 87.3316 4.158C86.1529 3.09267 84.6682 2.56 82.8776 2.56ZM110.088 2.56H109.748V23.64H113.148V25H101.248V23.64H104.648V2.56H104.308C102.812 2.56 101.781 2.70733 101.214 3.002C100.67 3.29667 100.296 3.954 100.092 4.974L99.4122 8.34H98.0862L97.1682 2.628C97.1682 2.17467 97.2702 1.846 97.4742 1.642C97.6782 1.41533 97.8935 1.29067 98.1202 1.268C98.3695 1.22267 98.7435 1.2 99.2422 1.2H115.154C115.653 1.2 116.016 1.22267 116.242 1.268C116.492 1.29067 116.718 1.41533 116.922 1.642C117.126 1.846 117.228 2.17467 117.228 2.628L116.31 8.34H114.984L114.304 4.974C114.1 3.954 113.715 3.29667 113.148 3.002C112.604 2.70733 111.584 2.56 110.088 2.56ZM119.782 2.56V1.2H129.642V2.56H127.262V23.64H129.642V25H119.782V23.64H122.162V2.56H119.782ZM137.434 2.56V1.2H145.526L152.292 23.64H153.992V25H145.22V23.64H147.192L145.934 19.458H136.685L135.462 23.64H137.434V25H131.688V23.64H133.388L139.746 2.56H137.434ZM141.276 4.022L137.162 17.928H145.458L141.276 4.022Z" fill="black"/>
</svg>
