<svg width="21" height="34" viewBox="0 0 21 34" fill="none" xmlns="http://www.w3.org/2000/svg">
<path d="M11.0934 15.718V14.188H20.7834V25.748C20.7834 28.2413 20.0354 30.0773 18.5394 31.256C17.0434 32.4573 15.026 33.058 12.4874 33.058C10.9914 33.058 9.55203 32.6727 8.16936 31.902C6.80936 31.154 6.12936 30.1227 6.12936 28.808C6.12936 28.5587 6.20869 28.196 6.36736 27.72L7.52336 24.728C5.52869 23.844 3.91936 22.348 2.69536 20.24C1.49403 18.132 0.893359 15.7633 0.893359 13.134C0.893359 9.55267 1.91336 6.58333 3.95336 4.226C6.01603 1.86867 8.87203 0.689999 12.5214 0.689999C14.3574 0.689999 16.1254 1.05267 17.8254 1.778C19.5254 2.50333 20.3754 3.36467 20.3754 4.362C20.3754 4.74733 20.2507 5.18933 20.0014 5.688L18.0974 8.816L16.8734 8.408L17.0434 7.15C17.134 6.606 17.1794 6.08467 17.1794 5.586C17.1794 4.702 16.7487 3.93133 15.8874 3.274C15.026 2.61667 13.904 2.288 12.5214 2.288C10.436 2.288 8.84936 3.308 7.76136 5.348C6.69603 7.36533 6.16336 9.904 6.16336 12.964C6.16336 16.0013 6.74136 18.4833 7.89736 20.41C9.07603 22.314 10.7874 23.266 13.0314 23.266C13.938 23.266 14.822 23.0847 15.6834 22.722V15.718H11.0934ZM11.2634 25.51C10.47 25.51 9.71069 25.408 8.98536 25.204V26.258C8.98536 28.842 9.52936 30.44 10.6174 31.052C11.116 31.324 11.796 31.46 12.6574 31.46C13.5414 31.46 14.2667 31.1427 14.8334 30.508C15.4 29.896 15.6834 28.9667 15.6834 27.72V24.626C14.3234 25.2153 12.85 25.51 11.2634 25.51Z" fill="#00AB62"/>
</svg>
