<svg width="12" height="14" viewBox="0 0 12 14" fill="none" xmlns="http://www.w3.org/2000/svg">
<path fill-rule="evenodd" clip-rule="evenodd" d="M5.99898 2.77194C4.91833 2.77236 3.86691 3.13014 3.00219 3.79168C2.13746 4.45322 1.50599 5.38291 1.20234 6.4415C0.898701 7.5001 0.939232 8.63062 1.31787 9.66373C1.6965 10.6968 2.39286 11.5769 3.30264 12.1722C4.21242 12.7674 5.28666 13.0458 6.36444 12.9656C7.44222 12.8854 8.46554 12.451 9.28113 11.7273C10.0967 11.0037 10.6607 10.0298 10.8885 8.95157C11.1163 7.87333 10.9958 6.74877 10.545 5.74631C10.4959 5.62443 10.4949 5.48791 10.5422 5.3653C10.5895 5.2427 10.6815 5.14352 10.7988 5.08853C10.9161 5.03353 11.0497 5.02699 11.1716 5.07026C11.2936 5.11353 11.3944 5.20326 11.453 5.32067C11.994 6.52368 12.1385 7.87322 11.865 9.16713C11.5915 10.461 10.9147 11.6297 9.9359 12.498C8.9571 13.3663 7.72902 13.8876 6.43562 13.9837C5.14222 14.0798 3.85313 13.7456 2.76145 13.0311C1.66976 12.3166 0.83424 11.2604 0.380042 10.0205C-0.0741567 8.78067 -0.122584 7.42399 0.242014 6.15369C0.606612 4.8834 1.36461 3.76787 2.40246 2.9742C3.44032 2.18053 4.70216 1.75145 5.99898 1.75122V2.77194Z" fill="#00AB62"/>
<path d="M6 4.26855V0.255084C6.00002 0.206596 6.01357 0.159117 6.03907 0.118207C6.06457 0.0772964 6.10096 0.0446479 6.14398 0.0240845C6.187 0.0035211 6.23487 -0.00410592 6.28198 0.00209649C6.32909 0.00829889 6.3735 0.028074 6.41 0.0591062L8.77 2.06584C8.89 2.16791 8.89 2.35572 8.77 2.4578L6.41 4.46453C6.3735 4.49556 6.32909 4.51534 6.28198 4.52154C6.23487 4.52774 6.187 4.52011 6.14398 4.49955C6.10096 4.47899 6.06457 4.44634 6.03907 4.40543C6.01357 4.36452 6.00002 4.31704 6 4.26855Z" fill="#00AB62"/>
</svg>
