<svg width="14" height="14" viewBox="0 0 14 14" fill="none" xmlns="http://www.w3.org/2000/svg">
<path d="M9.625 6.5625C9.625 6.44647 9.67109 6.33519 9.75314 6.25314C9.83519 6.17109 9.94647 6.125 10.0625 6.125H10.9375C11.0535 6.125 11.1648 6.17109 11.2469 6.25314C11.3289 6.33519 11.375 6.44647 11.375 6.5625V7.4375C11.375 7.55353 11.3289 7.66481 11.2469 7.74686C11.1648 7.82891 11.0535 7.875 10.9375 7.875H10.0625C9.94647 7.875 9.83519 7.82891 9.75314 7.74686C9.67109 7.66481 9.625 7.55353 9.625 7.4375V6.5625Z" fill="#00AB62"/>
<path d="M3.0625 0C3.17853 0 3.28981 0.0460936 3.37186 0.128141C3.45391 0.210188 3.5 0.321468 3.5 0.4375V0.875H10.5V0.4375C10.5 0.321468 10.5461 0.210188 10.6281 0.128141C10.7102 0.0460936 10.8215 0 10.9375 0C11.0535 0 11.1648 0.0460936 11.2469 0.128141C11.3289 0.210188 11.375 0.321468 11.375 0.4375V0.875H12.25C12.7141 0.875 13.1592 1.05937 13.4874 1.38756C13.8156 1.71575 14 2.16087 14 2.625V12.25C14 12.7141 13.8156 13.1592 13.4874 13.4874C13.1592 13.8156 12.7141 14 12.25 14H1.75C1.28587 14 0.840752 13.8156 0.512563 13.4874C0.184374 13.1592 0 12.7141 0 12.25V2.625C0 2.16087 0.184374 1.71575 0.512563 1.38756C0.840752 1.05937 1.28587 0.875 1.75 0.875H2.625V0.4375C2.625 0.321468 2.67109 0.210188 2.75314 0.128141C2.83519 0.0460936 2.94647 0 3.0625 0V0ZM1.75 1.75C1.51794 1.75 1.29538 1.84219 1.13128 2.00628C0.967187 2.17038 0.875 2.39294 0.875 2.625V12.25C0.875 12.4821 0.967187 12.7046 1.13128 12.8687C1.29538 13.0328 1.51794 13.125 1.75 13.125H12.25C12.4821 13.125 12.7046 13.0328 12.8687 12.8687C13.0328 12.7046 13.125 12.4821 13.125 12.25V2.625C13.125 2.39294 13.0328 2.17038 12.8687 2.00628C12.7046 1.84219 12.4821 1.75 12.25 1.75H1.75Z" fill="#00AB62"/>
<path d="M2.1875 3.5C2.1875 3.38397 2.23359 3.27269 2.31564 3.19064C2.39769 3.10859 2.50897 3.0625 2.625 3.0625H11.375C11.491 3.0625 11.6023 3.10859 11.6844 3.19064C11.7664 3.27269 11.8125 3.38397 11.8125 3.5V4.375C11.8125 4.49103 11.7664 4.60231 11.6844 4.68436C11.6023 4.76641 11.491 4.8125 11.375 4.8125H2.625C2.50897 4.8125 2.39769 4.76641 2.31564 4.68436C2.23359 4.60231 2.1875 4.49103 2.1875 4.375V3.5Z" fill="#00AB62"/>
</svg>
