<svg width="36" height="30" viewBox="0 0 36 30" xmlns="http://www.w3.org/2000/svg">
<path d="M11.6157 22.2222H25.4353V23.5324H11.6157V22.2222Z"/>
<path d="M35.3546 23.5324H31.6349V22.2222H34.7088V13.3837L27.6182 6.5513H21.309V18.6713C21.309 18.8451 21.2409 19.0117 21.1198 19.1346C20.9987 19.2574 20.8345 19.3265 20.6632 19.3265H3.38872V22.2222H5.41645V23.5324H2.74294C2.57167 23.5324 2.40742 23.4634 2.28631 23.3405C2.1652 23.2177 2.09717 23.051 2.09717 22.8773V18.6713C2.09717 18.4976 2.1652 18.3309 2.28631 18.2081C2.40742 18.0852 2.57167 18.0162 2.74294 18.0162H20.0174V5.89616C20.0174 5.72241 20.0855 5.55577 20.2066 5.43291C20.3277 5.31005 20.4919 5.24103 20.6632 5.24103H27.8765C28.0419 5.24115 28.2009 5.30564 28.3208 5.42119L35.7995 12.6277C35.863 12.6889 35.9135 12.7626 35.948 12.8442C35.9826 12.9259 36.0004 13.0138 36.0003 13.1027V22.8773C36.0003 23.051 35.9323 23.2177 35.8112 23.3405C35.6901 23.4634 35.5258 23.5324 35.3546 23.5324Z"/>
<path d="M3.82944 19.0461L0.116239 13.6412C0.0406191 13.5313 4.80407e-05 13.4005 0 13.2665V5.89623C0 5.72247 0.0680367 5.55584 0.189143 5.43297C0.310249 5.31011 0.474505 5.24109 0.645775 5.24109H12.9697V0.655136C12.9697 0.481383 13.0378 0.314747 13.1589 0.191885C13.28 0.0690232 13.4442 0 13.6155 0H20.6648C20.8361 0 21.0003 0.0690232 21.1214 0.191885C21.2425 0.314747 21.3106 0.481383 21.3106 0.655136V5.89623H20.019V1.31027H14.2613V5.89623C14.2613 6.06998 14.1932 6.23662 14.0721 6.35948C13.951 6.48234 13.7868 6.55136 13.6155 6.55136H1.29155V13.0608L4.88658 18.2966L3.82944 19.0461Z"/>
<path d="M31.5359 16.9791H23.8938C23.7226 16.9791 23.5583 16.9101 23.4372 16.7872C23.3161 16.6644 23.248 16.4977 23.248 16.324V9.22624C23.248 9.05249 23.3161 8.88585 23.4372 8.76299C23.5583 8.64013 23.7226 8.57111 23.8938 8.57111H27.2305C27.3409 8.57114 27.4495 8.59989 27.5458 8.6546C27.6421 8.70931 27.723 8.78815 27.7807 8.88361L32.0855 15.9807C32.1457 16.0799 32.1787 16.1937 32.1811 16.3101C32.1835 16.4266 32.1553 16.5417 32.0993 16.6434C32.0433 16.7451 31.9616 16.8299 31.8625 16.8889C31.7635 16.9479 31.6508 16.979 31.5359 16.9791ZM24.5396 15.6689H30.38L26.8696 9.88138H24.5396V15.6689Z"/>
<path d="M8.51615 30C7.60933 30 6.72286 29.7272 5.96886 29.2161C5.21487 28.705 4.62719 27.9785 4.28017 27.1286C3.93314 26.2786 3.84234 25.3434 4.01925 24.4411C4.19617 23.5388 4.63285 22.71 5.27407 22.0595C5.91529 21.4089 6.73226 20.9659 7.62166 20.7865C8.51107 20.607 9.43296 20.6991 10.2708 21.0512C11.1086 21.4032 11.8246 21.9994 12.3284 22.7643C12.8322 23.5293 13.1012 24.4286 13.1012 25.3486C13.0989 26.5815 12.6152 27.7633 11.7558 28.6352C10.8964 29.507 9.73149 29.9978 8.51615 30ZM8.51615 22.0015C7.86491 22.0015 7.22828 22.1973 6.68675 22.5643C6.14521 22.9313 5.72308 23.4529 5.47371 24.0633C5.22434 24.6736 5.15893 25.3452 5.28575 25.9933C5.41257 26.6413 5.72592 27.2367 6.18619 27.7041C6.64647 28.1715 7.233 28.49 7.87166 28.6193C8.51031 28.7485 9.17241 28.6828 9.77427 28.4305C10.3761 28.1781 10.8907 27.7503 11.253 27.2013C11.6153 26.6523 11.809 26.0066 11.8096 25.3459C11.8088 24.4598 11.4616 23.6101 10.8442 22.9831C10.2269 22.3562 9.38967 22.0032 8.51615 22.0015Z"/>
<path d="M8.51682 28.0346C7.99316 28.0346 7.48126 27.8771 7.04585 27.5819C6.61044 27.2868 6.27108 26.8673 6.07068 26.3764C5.87029 25.8856 5.81786 25.3456 5.92002 24.8245C6.02218 24.3035 6.27434 23.8249 6.64463 23.4492C7.01491 23.0736 7.48668 22.8177 8.00028 22.7141C8.51388 22.6104 9.04624 22.6636 9.53004 22.8669C10.0138 23.0702 10.4273 23.4145 10.7183 23.8562C11.0092 24.298 11.1645 24.8173 11.1645 25.3485C11.163 26.0604 10.8835 26.7427 10.3873 27.2461C9.89111 27.7495 9.21855 28.033 8.51682 28.0346ZM8.51682 23.9669C8.24874 23.9669 7.98667 24.0475 7.76373 24.1985C7.54079 24.3495 7.36697 24.5642 7.26423 24.8154C7.1615 25.0666 7.13445 25.3431 7.18652 25.6098C7.23858 25.8766 7.36742 26.1218 7.55676 26.3143C7.74609 26.5068 7.98743 26.6381 8.25028 26.6916C8.51313 26.745 8.7857 26.7183 9.03355 26.6146C9.28141 26.511 9.49343 26.3352 9.64283 26.1094C9.79223 25.8836 9.87231 25.6179 9.87294 25.3459C9.87277 24.9808 9.72995 24.6306 9.47575 24.3721C9.22156 24.1136 8.87673 23.9679 8.51682 23.9669Z"/>
<path d="M28.5357 30C27.6289 30 26.7424 29.7272 25.9884 29.2161C25.2344 28.705 24.6467 27.9785 24.2997 27.1286C23.9527 26.2786 23.8619 25.3434 24.0388 24.4411C24.2157 23.5388 24.6524 22.71 25.2936 22.0595C25.9348 21.4089 26.7518 20.9659 27.6412 20.7865C28.5306 20.607 29.4525 20.6991 30.2903 21.0512C31.1281 21.4032 31.8442 21.9994 32.348 22.7643C32.8518 23.5293 33.1207 24.4286 33.1207 25.3486C33.1185 26.5815 32.6347 27.7633 31.7753 28.6352C30.9159 29.507 29.751 29.9978 28.5357 30ZM28.5357 22.0015C27.8844 22.0015 27.2478 22.1973 26.7063 22.5643C26.1647 22.9313 25.7426 23.4529 25.4932 24.0633C25.2439 24.6736 25.1785 25.3452 25.3053 25.9933C25.4321 26.6413 25.7455 27.2367 26.2057 27.7041C26.666 28.1715 27.2525 28.49 27.8912 28.6193C28.5298 28.7485 29.1919 28.6828 29.7938 28.4305C30.3957 28.1781 30.9102 27.7503 31.2725 27.2013C31.6348 26.6523 31.8285 26.0066 31.8291 25.3459C31.8283 24.4598 31.4811 23.6101 30.8638 22.9831C30.2464 22.3562 29.4092 22.0032 28.5357 22.0015Z"/>
<path d="M28.5354 28.0346C28.0117 28.0346 27.4998 27.8771 27.0644 27.5819C26.629 27.2868 26.2896 26.8673 26.0892 26.3764C25.8888 25.8856 25.8364 25.3456 25.9386 24.8245C26.0407 24.3035 26.2929 23.8249 26.6632 23.4492C27.0335 23.0736 27.5052 22.8177 28.0188 22.7141C28.5324 22.6104 29.0648 22.6636 29.5486 22.8669C30.0324 23.0702 30.4459 23.4145 30.7368 23.8562C31.0278 24.298 31.183 24.8173 31.183 25.3485C31.1815 26.0604 30.9021 26.7427 30.4059 27.2461C29.9097 27.7495 29.2371 28.033 28.5354 28.0346ZM28.5354 23.9669C28.2673 23.9669 28.0052 24.0475 27.7823 24.1985C27.5593 24.3495 27.3855 24.5642 27.2828 24.8154C27.1801 25.0666 27.153 25.3431 27.2051 25.6098C27.2571 25.8766 27.386 26.1218 27.5753 26.3143C27.7646 26.5068 28.006 26.6381 28.2688 26.6916C28.5317 26.745 28.8043 26.7183 29.0521 26.6146C29.3 26.511 29.512 26.3352 29.6614 26.1094C29.8108 25.8836 29.8909 25.6179 29.8915 25.3459C29.8913 24.9808 29.7485 24.6306 29.4943 24.3721C29.2401 24.1136 28.8953 23.9679 28.5354 23.9669Z"/>
<path d="M4.61569 26.5592H2.74294C2.57167 26.5592 2.40742 26.4902 2.28631 26.3673C2.1652 26.2444 2.09717 26.0778 2.09717 25.9041V22.6808H3.38872V25.2489H4.61569V26.5592Z"/>
<path d="M35.354 26.5592H32.4351V25.2489H34.7082V22.8773H35.9997V25.9041C35.9997 26.0778 35.9317 26.2444 35.8106 26.3673C35.6895 26.4902 35.5252 26.5592 35.354 26.5592Z"/>
<path d="M24.6346 26.5592H12.4617L12.4165 25.2489H24.6346V26.5592Z"/>
<path d="M15.9293 10.646H6.51199C6.34072 10.646 6.17646 10.5769 6.05535 10.4541C5.93425 10.3312 5.86621 10.1646 5.86621 9.99083C5.86621 9.81708 5.93425 9.65044 6.05535 9.52758C6.17646 9.40472 6.34072 9.33569 6.51199 9.33569H15.9293C16.1006 9.33569 16.2648 9.40472 16.3859 9.52758C16.5071 9.65044 16.5751 9.81708 16.5751 9.99083C16.5751 10.1646 16.5071 10.3312 16.3859 10.4541C16.2648 10.5769 16.1006 10.646 15.9293 10.646Z"/>
<path d="M15.9293 12.6114H6.51199C6.34072 12.6114 6.17646 12.5424 6.05535 12.4195C5.93425 12.2967 5.86621 12.13 5.86621 11.9563C5.86621 11.7825 5.93425 11.6159 6.05535 11.493C6.17646 11.3702 6.34072 11.3011 6.51199 11.3011H15.9293C16.1006 11.3011 16.2648 11.3702 16.3859 11.493C16.5071 11.6159 16.5751 11.7825 16.5751 11.9563C16.5751 12.13 16.5071 12.2967 16.3859 12.4195C16.2648 12.5424 16.1006 12.6114 15.9293 12.6114Z"/>
<path d="M15.9293 14.5768H6.51199C6.34072 14.5768 6.17646 14.5077 6.05535 14.3849C5.93425 14.262 5.86621 14.0954 5.86621 13.9216C5.86621 13.7479 5.93425 13.5812 6.05535 13.4584C6.17646 13.3355 6.34072 13.2665 6.51199 13.2665H15.9293C16.1006 13.2665 16.2648 13.3355 16.3859 13.4584C16.5071 13.5812 16.5751 13.7479 16.5751 13.9216C16.5751 14.0954 16.5071 14.262 16.3859 14.3849C16.2648 14.5077 16.1006 14.5768 15.9293 14.5768Z"/>
</svg>
