<svg width="36" height="38" viewBox="0 0 36 38" xmlns="http://www.w3.org/2000/svg">
<path d="M28.6035 15.6784C28.597 15.6784 28.5905 15.6784 28.5837 15.6781C27.7866 15.6529 26.9632 15.3992 26.0917 15.1304C24.4839 14.6346 22.6617 14.0726 20.6049 14.8917C20.2051 15.0502 19.752 14.7492 19.752 14.3232V8.58801C19.752 8.42559 19.8171 8.26991 19.9332 8.15499C23.1087 5.01478 25.9787 6.81978 28.7541 8.56502C30.7845 9.84201 32.8842 11.1631 35.2918 10.8153C35.7769 10.746 36.159 11.2621 35.9355 11.6985C35.4374 12.6702 34.7086 13.5194 32.9792 13.4949C33.2871 13.8712 33.6707 14.5408 32.9472 14.7762C31.8553 15.1311 30.8479 14.8209 29.8804 14.3542C29.9745 14.5485 30.0539 14.7618 30.0539 14.9981C30.0542 15.706 29.1017 15.6784 28.6035 15.6784ZM22.7747 13.2482C24.1534 13.2482 25.3893 13.6294 26.4616 13.9601C27.2155 14.1927 27.9294 14.4127 28.5396 14.4489C28.3549 14.0502 28.1994 13.5062 28.557 12.9252C28.7798 12.5633 29.2013 12.5881 29.525 12.7815C30.238 13.1688 30.8891 13.5222 31.5108 13.6506L31.0257 13.0579C30.6613 12.6126 31.0924 11.9424 31.6539 12.0767C32.8718 12.3666 33.5779 12.3043 34.0252 12.0803C31.7843 11.9237 29.8391 10.7004 28.0874 9.59838C25.1854 7.77346 23.2642 6.74868 20.9935 8.84696V13.4738C21.6105 13.3135 22.2048 13.2482 22.7747 13.2482Z"/>
<path d="M7.37726 15.6649C7.00326 15.6649 6.44148 15.6462 6.14942 15.3836C5.84245 15.1077 5.94333 14.6707 6.09417 14.3422C5.14628 14.8151 4.11956 15.1142 3.02487 14.6986C2.33677 14.4375 2.71698 13.7992 3.02146 13.4275C1.29174 13.4514 0.563286 12.6031 0.0651337 11.6311C-0.157405 11.1968 0.223115 10.6755 0.709783 10.7482C3.07825 11.0932 5.15808 9.78162 7.17086 8.51352C9.95834 6.75694 12.8411 4.9403 16.0647 8.0848C16.1826 8.20002 16.249 8.35693 16.249 8.52088V14.2561C16.249 14.6836 15.7915 14.9858 15.3911 14.8227C13.4023 14.011 11.6853 14.5595 10.0254 15.0906C9.10822 15.3832 8.22676 15.6649 7.37726 15.6649ZM7.44368 12.8581C7.86331 13.4376 7.62959 14.0352 7.43437 14.4382C8.07467 14.4253 8.81802 14.1878 9.643 13.9239C11.1365 13.4465 12.951 12.8664 15.0075 13.403V8.78228C12.6937 6.67267 10.7591 7.70664 7.83848 9.54657C6.10472 10.6391 4.17978 11.8517 1.97363 12.012C2.42057 12.2366 3.12667 12.2997 4.34676 12.0092C4.90698 11.8753 5.34089 12.5434 4.97496 12.9905L4.44484 13.6377C5.06993 13.5301 5.7512 13.1523 6.59201 12.6512C6.69257 12.5915 7.17583 12.4879 7.44368 12.8581Z"/>
<path d="M24.7006 24.8931C24.1261 22.9376 21.7896 22.2177 20.3935 21.7875L20.1278 21.705C19.6064 21.5408 19.1132 21.4415 18.6402 21.3784V7.11642C20.3677 6.82682 21.6878 5.35585 21.6878 3.58579C21.6878 1.60856 20.0422 0 18.0195 0C15.9967 0 14.3508 1.60856 14.3508 3.58579C14.3508 5.35585 15.6708 6.82682 17.3984 7.11642V21.2895C16.8506 21.2834 16.3332 21.3128 15.8434 21.3422C14.4874 21.424 13.4166 21.4887 12.3933 20.7128C11.9048 20.3426 11.0823 19.5571 11.0612 18.4573C11.0373 17.1932 12.1208 16.2943 12.338 16.127C12.6084 15.9189 12.6565 15.5337 12.4457 15.2668C12.235 14.9999 11.8449 14.9524 11.5745 15.1605C11.1543 15.4841 9.78582 16.6799 9.81996 18.4803C9.85069 20.0937 10.9715 21.1807 11.6369 21.6851C13.0286 22.7402 14.4328 22.656 15.9188 22.5659C16.4008 22.5368 16.8906 22.5095 17.3984 22.5156V27.5555C16.9992 27.5503 16.6231 27.5715 16.2674 27.5929C15.3133 27.6505 14.6236 27.6922 13.9554 27.1856C13.637 26.9438 13.1003 26.4339 13.087 25.734C13.0718 24.9277 13.7763 24.3439 13.9175 24.2351C14.1879 24.027 14.2363 23.6418 14.0255 23.3749C13.8151 23.108 13.4247 23.0599 13.1543 23.2683C12.8408 23.5094 11.8203 24.4018 11.8458 25.7563C11.8687 26.9696 12.7033 27.7814 13.1993 28.1574C14.2357 28.9428 15.3068 28.8785 16.3431 28.816C16.687 28.7951 17.0365 28.7758 17.3984 28.7816V33.0864C17.1122 33.0811 16.8472 33.0959 16.6076 33.1103C15.9399 33.1498 15.5743 33.1584 15.2084 32.881C15.0616 32.7701 14.7195 32.4692 14.7121 32.0741C14.7037 31.6258 15.1351 31.281 15.1842 31.243C15.4548 31.035 15.5032 30.6498 15.2928 30.3828C15.0821 30.1153 14.6922 30.0678 14.4216 30.2756C14.1938 30.4509 13.4517 31.0996 13.4709 32.0968C13.4877 32.9911 14.0935 33.5813 14.4526 33.8534C15.2037 34.4228 15.9561 34.3774 16.6836 34.3336C16.9167 34.3195 17.1535 34.3063 17.3987 34.3119V37.3871C17.3987 37.7254 17.6768 38 18.0195 38C18.3621 38 18.6402 37.7254 18.6402 37.3871V34.55C19.1225 34.702 19.7895 34.9428 19.9099 35.3532C20.0006 35.6624 19.7898 36.0399 19.6564 36.2376C19.2153 36.8891 20.243 37.5777 20.6884 36.9188C21.1328 36.2621 21.2759 35.6029 21.1024 35.0118C20.7833 33.9257 19.5335 33.5408 18.8618 33.3337L18.7392 33.2957C18.7054 33.2849 18.6731 33.2779 18.6399 33.2684V28.9312C18.7516 28.9581 18.8646 28.9885 18.9801 29.025L19.1737 29.085C19.9559 29.3259 21.2644 29.7292 21.5112 30.5695C21.6744 31.1248 21.3718 31.7386 21.0894 32.156C20.6486 32.8078 21.6757 33.4958 22.1217 32.8372C22.7368 31.9283 22.938 31.0261 22.7036 30.2281C22.271 28.7553 20.5636 28.2291 19.5434 27.915L19.3569 27.8574C19.1089 27.7792 18.8714 27.7238 18.6396 27.679V22.6149C18.9968 22.6707 19.3652 22.7519 19.7504 22.8729L20.0235 22.9578C21.1812 23.3145 23.1195 23.9115 23.5081 25.2348C23.767 26.1158 23.3076 27.06 22.8768 27.6968C22.4358 28.3483 23.4634 29.0363 23.9091 28.3777C24.7372 27.1538 25.0106 25.9491 24.7006 24.8931C24.1264 22.9376 25.0106 25.9491 24.7006 24.8931ZM15.5923 3.58579C15.5923 2.2846 16.6811 1.22581 18.0195 1.22581C19.3578 1.22581 20.4463 2.2846 20.4463 3.58579C20.4463 4.88698 19.3575 5.94608 18.0195 5.94608C16.6814 5.94608 15.5923 4.88729 15.5923 3.58579Z"/>
<path d="M23.7244 21.614C23.0477 21.614 22.877 20.6518 23.5133 20.4247C24.4668 20.0845 25.0928 19.2951 25.1083 18.4137C25.1229 17.5781 24.5683 16.7908 23.6952 16.408C23.3817 16.2707 23.2405 15.9085 23.3795 15.599C23.5189 15.2898 23.8861 15.151 24.1989 15.2873C25.5286 15.8702 26.3725 17.1055 26.3495 18.4349C26.325 19.8292 25.3774 21.0627 23.9354 21.5772C23.8659 21.6021 23.7945 21.614 23.7244 21.614Z"/>
<path d="M16.0345 37.5308C15.6779 37.5308 15.3281 37.4079 15.0509 37.1809C14.7334 36.9204 14.5388 36.545 14.5168 36.1509C14.4739 35.3808 15.09 34.6919 15.8895 34.6155C16.2294 34.5831 16.5342 34.8298 16.5671 35.1665C16.6 35.5033 16.3501 35.803 16.009 35.8355C15.7527 35.86 15.6794 36.1401 15.8948 36.271C16.1254 36.4114 16.3827 36.2557 16.6071 36.4959C17.0507 36.9709 16.5764 37.5308 16.0345 37.5308Z"/>
</svg>
