<svg width="13" height="14" viewBox="0 0 13 14" fill="none" xmlns="http://www.w3.org/2000/svg">
<path d="M2.41184 6.195L6.175 0L9.93816 6.195H2.41184ZM10.0237 14C9.17982 14 8.47281 13.7083 7.90263 13.125C7.33246 12.5417 7.04737 11.8183 7.04737 10.955C7.04737 10.0917 7.33246 9.36833 7.90263 8.785C8.47281 8.20167 9.17982 7.91 10.0237 7.91C10.8675 7.91 11.5746 8.20167 12.1447 8.785C12.7149 9.36833 13 10.0917 13 10.955C13 11.8183 12.7149 12.5417 12.1447 13.125C11.5746 13.7083 10.8675 14 10.0237 14ZM0 13.5625V8.2425H5.2V13.5625H0ZM10.0237 12.95C10.5711 12.95 11.0329 12.7575 11.4092 12.3725C11.7855 11.9875 11.9737 11.515 11.9737 10.955C11.9737 10.395 11.7855 9.9225 11.4092 9.5375C11.0329 9.1525 10.5711 8.96 10.0237 8.96C9.47632 8.96 9.01447 9.1525 8.63816 9.5375C8.26184 9.9225 8.07368 10.395 8.07368 10.955C8.07368 11.515 8.26184 11.9875 8.63816 12.3725C9.01447 12.7575 9.47632 12.95 10.0237 12.95ZM1.02632 12.5125H4.17368V9.2925H1.02632V12.5125ZM4.25921 5.145H8.09079L6.175 1.9775L4.25921 5.145Z" fill="#00AB62"/>
</svg>
