<svg width="12" height="11" viewBox="0 0 12 11" fill="none" xmlns="http://www.w3.org/2000/svg">
<path d="M11.4 1.83333H8.8V1.01852C8.79932 0.456245 8.35205 0.000696254 7.8 0H4.2C3.64795 0.000696254 3.20068 0.456245 3.2 1.01852V1.83333H0.6C0.268652 1.83333 0 2.10696 0 2.44444V6.97884C0.00126953 7.23725 0.161133 7.46711 0.4 7.55395V10.3889C0.4 10.7264 0.668652 11 1 11H11C11.3313 11 11.6 10.7264 11.6 10.3889V7.55414C11.8389 7.46721 11.9988 7.23725 12 6.97884V2.44444C12 2.10696 11.7313 1.83333 11.4 1.83333ZM3.6 1.01852C3.6 0.681035 3.86865 0.407407 4.2 0.407407H7.8C8.13135 0.407407 8.4 0.681035 8.4 1.01852V1.83333H8V1.01852C8 0.906024 7.91045 0.814815 7.8 0.814815H4.2C4.08955 0.814815 4 0.906024 4 1.01852V1.83333H3.6V1.01852ZM7.6 1.83333H4.4V1.22222H7.6V1.83333ZM11.2 10.3889C11.2 10.5014 11.1104 10.5926 11 10.5926H1C0.889551 10.5926 0.8 10.5014 0.8 10.3889V7.62397L5.2 8.24204V8.75926C5.2 9.09674 5.46865 9.37037 5.8 9.37037H6.2C6.53135 9.37037 6.8 9.09674 6.8 8.75926V8.24204L11.2 7.62397V10.3889ZM6.4 8.75926C6.4 8.87175 6.31045 8.96296 6.2 8.96296H5.8C5.68955 8.96296 5.6 8.87175 5.6 8.75926V7.53704C5.6 7.42454 5.68955 7.33333 5.8 7.33333H6.2C6.31045 7.33333 6.4 7.42454 6.4 7.53704V8.75926ZM11.6 6.97884C11.6001 7.08039 11.5268 7.16653 11.428 7.18075L11.3726 7.18851L6.8 7.83076V7.53704C6.8 7.19955 6.53135 6.92593 6.2 6.92593H5.8C5.46865 6.92593 5.2 7.19955 5.2 7.53704V7.83076L0.572168 7.18075C0.473437 7.16663 0.399902 7.08049 0.4 6.97884V2.44444C0.4 2.33195 0.489551 2.24074 0.6 2.24074H11.4C11.5104 2.24074 11.6 2.33195 11.6 2.44444V6.97884Z" fill="#00AB62"/>
</svg>
