<svg width="40" height="40" viewBox="0 0 40 40" fill="none" xmlns="http://www.w3.org/2000/svg">
<path d="M34.8387 28.391V25.8064C34.8377 24.9512 34.4975 24.1313 33.8928 23.5266C33.288 22.9219 32.4681 22.5817 31.6129 22.5806H26.1819C26.7791 21.4791 27.2608 20.3187 27.6194 19.1181L30.071 17.1561C30.452 16.8519 30.7306 16.4381 30.8691 15.9706C31.0076 15.503 30.9994 15.0043 30.8455 14.5416C30.6916 14.0789 30.3995 13.6745 30.0086 13.383C29.6177 13.0916 29.1467 12.927 28.6594 12.9116L30.0968 8.95936C30.4635 7.95072 30.5818 6.86854 30.4415 5.8045C30.3012 4.74046 29.9065 3.72591 29.2908 2.84682C28.6751 1.96773 27.8566 1.25 26.9046 0.754442C25.9526 0.258881 24.8952 9.15919e-05 23.8219 6.79769e-07H18.3445C14.246 -0.00102151 10.2298 1.1508 6.75484 3.32387C6.65043 3.38855 6.56665 3.48168 6.51335 3.59233C6.46004 3.70298 6.43943 3.82654 6.45393 3.9485C6.46843 4.07046 6.51744 4.18574 6.5952 4.28081C6.67296 4.37587 6.77624 4.44677 6.8929 4.48516L8.44839 5.00129C8.66248 5.07271 8.85972 5.18711 9.02801 5.33749C9.1963 5.48786 9.3321 5.67104 9.42706 5.87577C9.52203 6.08051 9.57417 6.30249 9.58027 6.52809C9.58638 6.7537 9.54633 6.97817 9.46258 7.18774C9.308 7.5741 9.23699 7.98881 9.25422 8.40458C9.27146 8.82036 9.37655 9.22777 9.56258 9.6L11.2258 12.9232C10.75 12.9611 10.2966 13.1412 9.92441 13.44C9.55225 13.7389 9.27855 14.1428 9.13887 14.5992C8.99918 15.0556 8.99996 15.5435 9.14109 15.9995C9.28223 16.4554 9.55721 16.8584 9.93032 17.1561L12.3819 19.1181C12.7401 20.3186 13.2214 21.479 13.8181 22.5806H8.3871C7.53187 22.5817 6.71197 22.9219 6.10724 23.5266C5.5025 24.1313 5.16231 24.9512 5.16129 25.8064V28.391C3.63435 29.0288 2.32988 30.1036 1.41163 31.4803C0.493382 32.8569 0.00228802 34.4742 0 36.129V39.3548C0 39.5259 0.0679721 39.69 0.188963 39.811C0.309955 39.932 0.474054 40 0.645161 40H39.3548C39.5259 40 39.69 39.932 39.811 39.811C39.932 39.69 40 39.5259 40 39.3548V36.129C39.9977 34.4742 39.5066 32.8569 38.5884 31.4803C37.6701 30.1036 36.3656 29.0288 34.8387 28.391ZM25.1613 12.9032H21.2903C21.1192 12.9032 20.9551 12.9712 20.8341 13.0922C20.7131 13.2132 20.6452 13.3773 20.6452 13.5484V14.1935H19.3548V13.5484C19.3548 13.3773 19.2869 13.2132 19.1659 13.0922C19.0449 12.9712 18.8808 12.9032 18.7097 12.9032H12.9032V11.9581L16.9303 9.27355C17.7969 8.69462 18.8159 8.38609 19.8581 8.3871C21.3491 8.38536 22.7954 7.87793 23.9606 6.94774L25.0148 6.10452L26.1213 7.76516C26.7583 8.71837 27.0978 9.83933 27.0968 10.9858V12.9032H25.1613ZM24.5161 14.1935V16.129C24.5161 16.3001 24.4482 16.4642 24.3272 16.5852C24.2062 16.7062 24.0421 16.7742 23.871 16.7742H22.5806C22.4095 16.7742 22.2454 16.7062 22.1244 16.5852C22.0035 16.4642 21.9355 16.3001 21.9355 16.129V14.1935H24.5161ZM18.0645 14.1935V16.129C18.0645 16.3001 17.9965 16.4642 17.8756 16.5852C17.7546 16.7062 17.5905 16.7742 17.4194 16.7742H16.129C15.9579 16.7742 15.7938 16.7062 15.6728 16.5852C15.5518 16.4642 15.4839 16.3001 15.4839 16.129V14.1935H18.0645ZM29.6774 15.2903C29.6778 15.4549 29.6409 15.6174 29.5696 15.7658C29.4984 15.9142 29.3945 16.0445 29.2658 16.1471L28.0961 17.0826C28.2666 16.1286 28.3605 15.1625 28.3768 14.1935H28.5806C28.7247 14.1935 28.8673 14.2219 29.0004 14.277C29.1334 14.3322 29.2543 14.4129 29.3562 14.5148C29.458 14.6166 29.5388 14.7375 29.5939 14.8706C29.649 15.0037 29.6774 15.1463 29.6774 15.2903ZM10.66 7.6671C10.8091 7.29434 10.8804 6.89506 10.8696 6.49374C10.8588 6.09243 10.7662 5.69756 10.5973 5.33333C10.4285 4.96911 10.187 4.64323 9.88769 4.37568C9.58838 4.10812 9.23757 3.90454 8.85677 3.77742L8.65935 3.7129C11.6396 2.12179 14.9661 1.28973 18.3445 1.29032H23.8219C24.6875 1.29049 25.5404 1.49923 26.3082 1.89889C27.076 2.29855 27.7362 2.87735 28.2329 3.58627C28.7296 4.2952 29.0481 5.11337 29.1616 5.97152C29.275 6.82966 29.18 7.7025 28.8845 8.51613L28.3239 10.0581C28.1837 8.98083 27.7974 7.95033 27.1948 7.04645L25.6981 4.80065C25.6484 4.72626 25.5838 4.66301 25.5084 4.61492C25.433 4.56683 25.3484 4.53495 25.26 4.52129C25.1716 4.50795 25.0815 4.51292 24.9952 4.53589C24.9088 4.55887 24.8281 4.59935 24.7581 4.65484L23.1548 5.94065C22.2182 6.68755 21.0561 7.09507 19.8581 7.09677C18.561 7.0956 17.2928 7.47956 16.2142 8.2L11.9 11.0761C11.86 11.1033 11.8232 11.1349 11.7903 11.1703L10.7168 9.02258C10.6122 8.81346 10.553 8.58455 10.5432 8.35092C10.5334 8.11729 10.5732 7.88424 10.66 7.6671ZM10.7348 16.1484C10.5568 16.0066 10.4272 15.813 10.3641 15.5943C10.3011 15.3756 10.3076 15.1427 10.3828 14.9278C10.458 14.713 10.5982 14.5269 10.7839 14.3954C10.9697 14.2638 11.1917 14.1933 11.4194 14.1935H11.6219C11.6382 15.1629 11.732 16.1295 11.9026 17.0839L10.7348 16.1484ZM12.9135 14.1935H14.1935V16.129C14.1935 16.6424 14.3975 17.1347 14.7604 17.4976C15.1234 17.8606 15.6157 18.0645 16.129 18.0645H17.4194C17.9327 18.0645 18.425 17.8606 18.7879 17.4976C19.1509 17.1347 19.3548 16.6424 19.3548 16.129V15.4839H20.6452V16.129C20.6452 16.6424 20.8491 17.1347 21.2121 17.4976C21.575 17.8606 22.0673 18.0645 22.5806 18.0645H23.871C24.3843 18.0645 24.8766 17.8606 25.2396 17.4976C25.6025 17.1347 25.8064 16.6424 25.8064 16.129V14.1935H27.0865C27.0364 17.1506 26.2108 20.0427 24.6923 22.5806H15.3077C13.7892 20.0427 12.9636 17.1506 12.9135 14.1935ZM8.3871 23.871H31.6129C32.1262 23.871 32.6185 24.0749 32.9815 24.4379C33.3445 24.8008 33.5484 25.2931 33.5484 25.8064V38.7097H6.45161V25.8064C6.45161 25.2931 6.65553 24.8008 7.0185 24.4379C7.38148 24.0749 7.87377 23.871 8.3871 23.871ZM1.29032 36.129C1.29207 34.8218 1.65435 33.5403 2.3373 32.4256C3.02025 31.3109 3.99741 30.4062 5.16129 29.811V38.7097H1.29032V36.129ZM38.7097 38.7097H34.8387V29.811C36.0025 30.4063 36.9797 31.311 37.6626 32.4257C38.3455 33.5404 38.7079 34.8218 38.7097 36.129V38.7097Z" fill="#00AB62"/>
<path d="M19.9996 36.7742C20.51 36.7742 21.0089 36.6229 21.4333 36.3393C21.8577 36.0557 22.1885 35.6527 22.3838 35.1811C22.5791 34.7096 22.6302 34.1907 22.5306 33.6901C22.4311 33.1895 22.1853 32.7297 21.8244 32.3688C21.4635 32.0079 21.0036 31.7621 20.503 31.6625C20.0025 31.5629 19.4836 31.614 19.012 31.8094C18.5405 32.0047 18.1374 32.3354 17.8539 32.7598C17.5703 33.1842 17.4189 33.6832 17.4189 34.1936C17.4189 34.878 17.6908 35.5344 18.1748 36.0184C18.6588 36.5023 19.3152 36.7742 19.9996 36.7742ZM19.9996 32.9032C20.2548 32.9032 20.5043 32.9789 20.7165 33.1207C20.9286 33.2625 21.094 33.464 21.1917 33.6998C21.2894 33.9356 21.3149 34.195 21.2651 34.4453C21.2153 34.6956 21.0924 34.9255 20.912 35.106C20.7315 35.2864 20.5016 35.4093 20.2513 35.4591C20.001 35.5089 19.7416 35.4833 19.5058 35.3857C19.27 35.288 19.0685 35.1226 18.9267 34.9104C18.7849 34.6982 18.7093 34.4488 18.7093 34.1936C18.7093 33.8513 18.8452 33.5231 19.0872 33.2812C19.3292 33.0392 19.6574 32.9032 19.9996 32.9032Z" fill="#00AB62"/>
<path d="M15.6729 30.7787L16.5851 29.8664L14.4606 27.7419L16.5851 25.6174L15.6729 24.7051L13.0922 27.2858C12.9713 27.4068 12.9033 27.5708 12.9033 27.7419C12.9033 27.913 12.9713 28.0771 13.0922 28.198L15.6729 30.7787Z" fill="#00AB62"/>
<path d="M24.3273 30.7787L26.9079 28.198C27.0289 28.0771 27.0968 27.913 27.0968 27.7419C27.0968 27.5708 27.0289 27.4068 26.9079 27.2858L24.3273 24.7051L23.415 25.6174L25.5396 27.7419L23.415 29.8664L24.3273 30.7787Z" fill="#00AB62"/>
<path d="M21.4198 24.7742L17.5479 29.9347L18.58 30.7091L22.4519 25.5485L21.4198 24.7742Z" fill="#00AB62"/>
</svg>
