<svg width="18" height="13" viewBox="0 0 18 13" fill="none" xmlns="http://www.w3.org/2000/svg">
<path d="M12.9955 8.49175C12.6038 9.51131 11.9866 10.5186 11.1616 11.4891C10.9005 11.7962 10.8648 12.2384 11.0785 12.5823C11.2447 12.8526 11.5177 13 11.8144 13C11.8975 13 11.9806 12.9939 12.0637 12.9631C13.8086 12.4349 17.8861 10.5616 17.9989 4.55467C18.0404 2.23914 16.4023 0.24912 14.2716 0.0218642C13.0905 -0.100983 11.9154 0.298226 11.0429 1.10898C10.1704 1.92589 9.67188 3.09289 9.67188 4.30901C9.67188 6.33588 11.0607 8.11095 12.9955 8.49175Z" fill="#00AB62"/>
<path d="M4.59381 0.0218642C3.41864 -0.100983 2.24349 0.298226 1.37105 1.10898C0.498567 1.92589 0 3.09289 0 4.30901C0 6.33588 1.38884 8.11094 3.32369 8.49175C2.93196 9.51131 2.31472 10.5186 1.48972 11.4891C1.22858 11.7962 1.19297 12.2384 1.40666 12.5823C1.57283 12.8526 1.84585 13 2.14261 13C2.22567 13 2.30877 12.9939 2.39187 12.9631C4.1368 12.4349 8.21423 10.5616 8.327 4.55467V4.46871C8.327 2.18999 6.70672 0.24912 4.59381 0.0218642Z" fill="#00AB62"/>
</svg>
