<svg width="24" height="24" viewBox="0 0 24 24" fill="none" xmlns="http://www.w3.org/2000/svg">
<path d="M21.6 0H2.4C1.07508 0.0013125 0.0013125 1.07508 0 2.4V20C0.0013125 21.3249 1.07508 22.3987 2.4 22.4H17.0588L18.2148 23.5564C18.5129 23.8546 18.9218 24.015 19.3432 23.9989C19.7646 23.9829 20.1601 23.792 20.4348 23.472C20.6875 23.1745 20.8124 22.7892 20.7824 22.4H21.6C22.9249 22.3987 23.9987 21.3249 24 20V2.4C23.9987 1.07508 22.9249 0.0013125 21.6 0V0ZM2.4 0.800016H21.6C22.4836 0.800016 23.2 1.51636 23.2 2.4V4.8H0.800016V2.4C0.800016 1.51636 1.51636 0.800016 2.4 0.800016ZM15.4516 19.086C15.6084 18.9528 15.7616 18.8152 15.9068 18.6692L16.7468 19.5092C16.5736 19.623 16.4257 19.7711 16.312 19.9444L15.4516 19.086ZM10.8 20C7.26539 20 4.40002 17.1346 4.40002 13.6C4.40002 10.0654 7.26539 7.2 10.8 7.2C14.3346 7.2 17.2 10.0654 17.2 13.6C17.1958 17.1329 14.3329 19.9958 10.8 20ZM19.8284 22.95C19.6959 23.0961 19.5101 23.1827 19.313 23.1902C19.1159 23.1978 18.9241 23.1256 18.7808 22.99L17.0708 21.28C16.8075 20.9988 16.8148 20.5596 17.0872 20.2872C17.3595 20.0148 17.7988 20.0076 18.08 20.2708L19.7472 21.938C20.0287 22.2052 20.0637 22.6414 19.8284 22.95ZM21.6 21.6H20.5028C20.4467 21.5186 20.3834 21.4424 20.3136 21.3724L18.6464 19.7052C18.3765 19.4362 18.0145 19.2798 17.6336 19.2676L16.436 18.0676C18.754 15.1261 18.4183 10.8963 15.6654 8.3572C12.9125 5.81813 8.66934 5.82473 5.92444 8.37248C3.17953 10.9202 2.85708 15.1511 5.18423 18.0853C7.51139 21.0195 11.7045 21.6691 14.8104 19.5765L16.0668 20.8329C16.0755 21.1058 16.1585 21.3712 16.3068 21.6005H2.4C1.51636 21.6005 0.800016 20.8841 0.800016 20.0005V5.60002H23.2V20C23.2 20.8837 22.4836 21.6 21.6 21.6Z" fill="#00AB62"/>
<path d="M2.8001 3.99999C3.46282 3.99999 4.0001 3.46271 4.0001 2.79999C4.0001 2.13727 3.46282 1.59999 2.8001 1.59999C2.13738 1.59999 1.6001 2.13727 1.6001 2.79999C1.6001 3.46271 2.13738 3.99999 2.8001 3.99999ZM2.8001 2.40001C3.02102 2.40001 3.20008 2.57912 3.20008 2.79999C3.20008 3.02087 3.02097 3.19998 2.8001 3.19998C2.57922 3.19998 2.40011 3.02091 2.40011 2.79999C2.40011 2.57907 2.57922 2.40001 2.8001 2.40001Z" fill="#00AB62"/>
<path d="M5.9998 3.99999C6.66257 3.99999 7.1998 3.46271 7.1998 2.79999C7.1998 2.13727 6.66252 1.59999 5.9998 1.59999C5.33709 1.59999 4.7998 2.13727 4.7998 2.79999C4.7998 3.46271 5.33709 3.99999 5.9998 3.99999ZM5.9998 2.40001C6.22073 2.40001 6.39979 2.57912 6.39979 2.79999C6.39979 3.02087 6.22068 3.19998 5.9998 3.19998C5.77888 3.19998 5.59982 3.02087 5.59982 2.79999C5.59982 2.57912 5.77888 2.40001 5.9998 2.40001Z" fill="#00AB62"/>
<path d="M9.2 3.99999C9.86272 3.99999 10.4 3.46271 10.4 2.79999C10.4 2.13727 9.86272 1.59999 9.2 1.59999C8.53728 1.59999 8 2.13727 8 2.79999C8 3.46271 8.53723 3.99999 9.2 3.99999ZM9.2 2.40001C9.42092 2.40001 9.59998 2.57912 9.59998 2.79999C9.59998 3.02087 9.42092 3.19998 9.2 3.19998C8.97908 3.19998 8.80001 3.02087 8.80001 2.79999C8.80001 2.57912 8.97908 2.40001 9.2 2.40001Z" fill="#00AB62"/>
<path d="M17.2 3.99999H21.2C21.8627 3.99999 22.4 3.46271 22.4 2.79999C22.4 2.13727 21.8627 1.59999 21.2 1.59999H17.2C16.5373 1.59999 16 2.13727 16 2.79999C16 3.46271 16.5373 3.99999 17.2 3.99999ZM17.2 2.40001H21.2C21.4209 2.40001 21.6 2.57912 21.6 2.79999C21.6 3.02087 21.4209 3.19998 21.2 3.19998H17.2C16.9791 3.19998 16.8 3.02087 16.8 2.79999C16.8 2.57912 16.9791 2.40001 17.2 2.40001Z" fill="#00AB62"/>
<path d="M10.8002 8.79998C11.0211 8.79998 11.2002 8.62092 11.2002 8.4C11.2002 8.17907 11.0211 8.00001 10.8002 8.00001C9.07593 7.99636 7.44716 8.79145 6.38943 10.1532C6.25311 10.3271 6.28358 10.5785 6.45744 10.7148C6.6313 10.8511 6.88274 10.8207 7.01905 10.6468C7.92571 9.47925 9.32197 8.79731 10.8002 8.79998Z" fill="#00AB62"/>
<path d="M8.00025 11.6C7.77932 11.6 7.60026 11.7791 7.60026 12V14.4C7.60026 14.6209 7.42115 14.8 7.20028 14.8C6.9794 14.8 6.80029 14.9791 6.80029 15.2C6.80029 15.4208 6.9794 15.6 7.20028 15.6C7.863 15.6 8.40028 15.0627 8.40028 14.4V12C8.40023 11.7791 8.22117 11.6 8.00025 11.6Z" fill="#00AB62"/>
<path d="M10.4002 11.6C9.73743 11.6 9.2002 12.1373 9.2002 12.8V14.4C9.2002 15.0627 9.73748 15.6 10.4002 15.6C11.0629 15.6 11.6002 15.0627 11.6002 14.4V12.8C11.6002 12.1373 11.0629 11.6 10.4002 11.6ZM10.8002 14.4C10.8002 14.6209 10.6211 14.8 10.4002 14.8C10.1793 14.8 10.0002 14.6209 10.0002 14.4V12.8C10.0002 12.5791 10.1793 12.4 10.4002 12.4C10.6211 12.4 10.8002 12.5791 10.8002 12.8V14.4Z" fill="#00AB62"/>
<path d="M13.5999 11.6H12.7999C12.579 11.6 12.3999 11.7791 12.3999 12V15.2C12.3999 15.4209 12.579 15.6 12.7999 15.6H13.5999C14.0741 15.6021 14.5047 15.3235 14.6972 14.8901C14.8897 14.4566 14.8075 13.9504 14.4879 13.6C14.8075 13.2496 14.8896 12.7434 14.6972 12.31C14.5048 11.8765 14.0742 11.5979 13.5999 11.6ZM13.1999 12.4H13.5999C13.8208 12.4 13.9999 12.579 13.9999 12.8C13.9999 13.0209 13.8208 13.2 13.5999 13.2H13.1999V12.4ZM13.5999 14.8H13.1999V14H13.5999C13.8208 14 13.9999 14.179 13.9999 14.4C13.9999 14.6209 13.8208 14.8 13.5999 14.8Z" fill="#00AB62"/>
<path d="M6.00008 12C6.22099 12 6.40007 11.8209 6.40007 11.6C6.40007 11.3791 6.22099 11.2 6.00008 11.2C5.77918 11.2 5.6001 11.3791 5.6001 11.6C5.6001 11.8209 5.77918 12 6.00008 12Z" fill="#00AB62"/>
</svg>
