<svg width="30" height="30" viewBox="0 0 30 30" fill="none" xmlns="http://www.w3.org/2000/svg">
<path d="M24.3678 26.1292L23.2451 22.7682C22.8527 21.5948 21.8517 20.7287 20.6315 20.5071L17.3903 19.9187V19.6681C17.9543 19.3414 18.4451 18.9045 18.836 18.3873H19.8152C20.6174 18.3873 21.2702 17.736 21.2702 16.9356V11.1292C21.2702 7.6608 18.4417 4.83887 14.9653 4.83887C11.4889 4.83887 8.66046 7.6608 8.66046 11.1292V14.5163C8.66046 15.4492 9.32538 16.2297 10.2071 16.4116C10.4792 17.8023 11.3502 18.979 12.5404 19.6681V19.9187L9.29871 20.5071C8.07896 20.7287 7.07746 21.5948 6.68558 22.7682L6.49159 23.3494L4.83971 21.7013C4.65057 21.5126 4.65057 21.2053 4.83971 21.0166L6.75542 19.1058L3.15971 15.5184L0.994717 17.6784C0.353561 18.3181 0.000488281 19.1687 0.000488281 20.0735C0.000488281 20.9784 0.353561 21.8285 0.994717 22.4682L7.54935 29.0077C8.19051 29.6474 9.04312 30.0002 9.95005 30.0002C10.857 30.0002 11.7091 29.6474 12.3352 29.0223L14.6976 26.8627L13.9609 26.1292H24.3678ZM20.3002 16.9356C20.3002 17.2027 20.0825 17.4195 19.8152 17.4195H19.4073C19.548 17.0997 19.6547 16.7624 19.7236 16.4116C19.9311 16.3685 20.1222 16.2863 20.3002 16.1827V16.9356ZM19.8152 15.3495V13.6831C20.1038 13.851 20.3002 14.1597 20.3002 14.5163C20.3002 14.8729 20.1038 15.1816 19.8152 15.3495ZM10.1154 15.3495C9.82686 15.1816 9.63044 14.8729 9.63044 14.5163C9.63044 14.1597 9.82686 13.851 10.1154 13.6831V15.3495ZM10.1154 12.0969V12.6495C9.94277 12.6945 9.78079 12.7623 9.63044 12.8498V11.1292C9.63044 8.19451 12.0239 5.80661 14.9653 5.80661C17.9068 5.80661 20.3002 8.19451 20.3002 11.1292V12.8498C20.1499 12.7623 19.9879 12.694 19.8152 12.6495V12.0969H19.3302C17.8961 12.0969 16.5478 11.5395 15.5332 10.5277L14.9653 9.96113L14.3974 10.5277C13.3828 11.5395 12.0345 12.0969 10.6004 12.0969H10.1154ZM11.0854 15.484V13.0463C12.5418 12.9369 13.8998 12.3374 14.9653 11.3266C16.0308 12.3374 17.3888 12.9374 18.8452 13.0463V15.484C18.8452 16.1895 18.6522 16.8495 18.3205 17.4195H14.9653V18.3873H17.5232C16.8393 18.9877 15.9455 19.355 14.9653 19.355C12.826 19.355 11.0854 17.6184 11.0854 15.484ZM16.4203 20.0997V20.1224L14.9653 21.574L13.5104 20.1224V20.0997C13.9701 20.2439 14.4585 20.3227 14.9653 20.3227C15.4721 20.3227 15.9605 20.2439 16.4203 20.0997ZM7.60512 23.074C7.88496 22.236 8.60032 21.6171 9.47185 21.4584L12.8619 20.8439L14.9653 22.9424L17.0682 20.8444L20.4578 21.4589C21.3294 21.6176 22.0447 22.236 22.3246 23.0745L23.0225 25.1614H12.9909L11.1019 23.2768L9.00286 25.1711C8.82002 25.3545 8.50042 25.3545 8.31709 25.1711L7.25787 24.1143L7.60512 23.074ZM3.15922 16.8868L5.38339 19.1058L4.85669 19.6313L2.63253 17.4123L3.15922 16.8868ZM11.6635 28.3245C11.2057 28.7803 10.5965 29.0324 9.94908 29.0324C9.30162 29.0324 8.69247 28.7803 8.23416 28.3235L1.67952 21.7845C1.22169 21.3277 0.969497 20.72 0.969497 20.074C0.969497 19.4276 1.22169 18.8198 1.67952 18.3631L1.94627 18.0969L4.17043 20.316L4.15297 20.3334C3.58602 20.8995 3.58602 21.8203 4.15297 22.3864L7.63083 25.8563C7.90582 26.1302 8.27102 26.2816 8.65998 26.2816C9.04894 26.2816 9.41414 26.1306 9.67118 25.8732L9.70755 25.8408L11.9419 28.07L11.6635 28.3245ZM12.6577 27.4148L10.4282 25.1905L11.0689 24.6127L13.2945 26.8332L12.6577 27.4148Z" fill="#00AB62"/>
<path d="M28.5451 0H21.7553C20.9531 0 20.3003 0.65129 20.3003 1.45161V5.32258C20.3003 6.1229 20.9531 6.77419 21.7553 6.77419H23.0507L22.5492 9.69242L27.2293 6.77419H28.5451C29.3473 6.77419 30.0001 6.1229 30.0001 5.32258V1.45161C30.0001 0.65129 29.3473 0 28.5451 0ZM29.0301 5.32258C29.0301 5.58919 28.8123 5.80645 28.5451 5.80645H26.951L23.8708 7.72694L24.2011 5.80645H21.7553C21.488 5.80645 21.2703 5.58919 21.2703 5.32258V1.45161C21.2703 1.185 21.488 0.967742 21.7553 0.967742H28.5451C28.8123 0.967742 29.0301 1.185 29.0301 1.45161V5.32258Z" fill="#00AB62"/>
<path d="M28.0596 1.93506H22.2397V2.9028H28.0596V1.93506Z" fill="#00AB62"/>
<path d="M26.1197 3.87012H22.2397V4.83786H26.1197V3.87012Z" fill="#00AB62"/>
<path d="M28.0603 3.87012H27.0903V4.83786H28.0603V3.87012Z" fill="#00AB62"/>
<path d="M14.9653 1.45166C8.62845 1.45166 3.16989 5.82489 1.75081 11.925L0.831757 10.3965L0 10.8944L1.70474 13.7284L4.54532 12.0276L4.04627 11.1978L2.73195 11.9846C4.10641 6.40408 9.13623 2.4194 14.9653 2.4194C16.2394 2.4194 17.4965 2.60811 18.7017 2.98069L18.9888 2.0565C17.6905 1.65489 16.3369 1.45166 14.9653 1.45166Z" fill="#00AB62"/>
<path d="M29.7639 10.714L26.9233 9.01318L25.2191 11.8477L26.0508 12.3456L26.8996 10.9342C27.3462 12.2382 27.5747 13.6022 27.5747 15.0001C27.5747 17.8777 26.5756 20.6909 24.7622 22.9211L25.5154 23.5308C27.4689 21.1288 28.5446 18.0988 28.5446 15.0001C28.5446 13.52 28.3055 12.0746 27.8395 10.6908L29.2649 11.5438L29.7639 10.714Z" fill="#00AB62"/>
</svg>
