<svg width="50" height="7" viewBox="0 0 50 7" fill="none" xmlns="http://www.w3.org/2000/svg">
<path d="M1 0C0.723858 0 0.5 0.223858 0.5 0.5C0.5 0.776142 0.723858 1 1 1V0ZM24.5 6.5C24.5 6.77614 24.7239 7 25 7C25.2761 7 25.5 6.77614 25.5 6.5H24.5ZM49 1C49.2761 1 49.5 0.776142 49.5 0.5C49.5 0.223858 49.2761 0 49 0V1ZM1 1H21V0H1V1ZM21 1C21.0313 1 21.1174 1.01267 21.2642 1.07474C21.4044 1.13406 21.5742 1.22752 21.7643 1.35778C22.1443 1.61817 22.5789 2.00729 22.989 2.50535C23.811 3.50351 24.5 4.89486 24.5 6.5H25.5C25.5 4.60514 24.689 2.99649 23.761 1.86965C23.2961 1.30521 22.7932 0.850583 22.3295 0.532846C22.0977 0.374043 21.8691 0.244843 21.6538 0.153774C21.4451 0.0654591 21.2187 0 21 0V1ZM25.5 6.5C25.5 6.19418 25.5854 5.68432 25.7669 5.07173C25.9459 4.46758 26.2087 3.79616 26.5412 3.17279C26.8753 2.54625 27.2685 1.98961 27.6997 1.59573C28.1302 1.20252 28.5653 1 29 1V0C28.2347 0 27.5698 0.35998 27.0253 0.857397C26.4815 1.35414 26.0247 2.01625 25.6588 2.70221C25.2913 3.39134 25.0041 4.12617 24.8081 4.78764C24.6146 5.44068 24.5 6.05582 24.5 6.5H25.5ZM29 1C29.0047 1 29.0094 1 29.0142 1C29.0189 1 29.0237 1 29.0286 1C29.0334 1 29.0383 1 29.0432 1C29.0481 1 29.053 1 29.058 1C29.063 1 29.068 1 29.073 1C29.0781 1 29.0832 1 29.0883 1C29.0934 1 29.0986 1 29.1037 1C29.1089 1 29.1142 1 29.1194 1C29.1247 1 29.13 1 29.1353 1C29.1406 1 29.146 1 29.1514 1C29.1568 1 29.1623 1 29.1677 1C29.1732 1 29.1787 1 29.1843 1C29.1898 1 29.1954 1 29.201 1C29.2066 1 29.2123 1 29.2179 1C29.2236 1 29.2293 1 29.2351 1C29.2408 1 29.2466 1 29.2524 1C29.2583 1 29.2641 1 29.27 1C29.2759 1 29.2818 1 29.2878 1C29.2937 1 29.2997 1 29.3058 1C29.3118 1 29.3179 1 29.3239 1C29.33 1 29.3362 1 29.3423 1C29.3485 1 29.3547 1 29.3609 1C29.3672 1 29.3734 1 29.3797 1C29.386 1 29.3923 1 29.3987 1C29.4051 1 29.4115 1 29.4179 1C29.4243 1 29.4308 1 29.4373 1C29.4438 1 29.4503 1 29.4569 1C29.4635 1 29.4701 1 29.4767 1C29.4833 1 29.49 1 29.4967 1C29.5034 1 29.5101 1 29.5169 1C29.5237 1 29.5304 1 29.5373 1C29.5441 1 29.551 1 29.5579 1C29.5648 1 29.5717 1 29.5786 1C29.5856 1 29.5926 1 29.5996 1C29.6066 1 29.6137 1 29.6208 1C29.6279 1 29.635 1 29.6422 1C29.6493 1 29.6565 1 29.6637 1C29.6709 1 29.6782 1 29.6855 1C29.6927 1 29.7001 1 29.7074 1C29.7147 1 29.7221 1 29.7295 1C29.7369 1 29.7444 1 29.7518 1C29.7593 1 29.7668 1 29.7744 1C29.7819 1 29.7895 1 29.7971 1C29.8047 1 29.8123 1 29.8199 1C29.8276 1 29.8353 1 29.843 1C29.8507 1 29.8585 1 29.8663 1C29.8741 1 29.8819 1 29.8897 1C29.8976 1 29.9054 1 29.9133 1C29.9213 1 29.9292 1 29.9372 1C29.9451 1 29.9531 1 29.9612 1C29.9692 1 29.9773 1 29.9853 1C29.9934 1 30.0016 1 30.0097 1C30.0179 1 30.026 1 30.0343 1C30.0425 1 30.0507 1 30.059 1C30.0672 1 30.0755 1 30.0839 1C30.0922 1 30.1006 1 30.109 1C30.1174 1 30.1258 1 30.1342 1C30.1427 1 30.1512 1 30.1597 1C30.1682 1 30.1767 1 30.1853 1C30.1939 1 30.2025 1 30.2111 1C30.2197 1 30.2284 1 30.2371 1C30.2457 1 30.2545 1 30.2632 1C30.2719 1 30.2807 1 30.2895 1C30.2983 1 30.3072 1 30.316 1C30.3249 1 30.3338 1 30.3427 1C30.3516 1 30.3605 1 30.3695 1C30.3785 1 30.3875 1 30.3965 1C30.4056 1 30.4146 1 30.4237 1C30.4328 1 30.4419 1 30.4511 1C30.4602 1 30.4694 1 30.4786 1C30.4878 1 30.497 1 30.5063 1C30.5155 1 30.5248 1 30.5341 1C30.5435 1 30.5528 1 30.5622 1C30.5715 1 30.5809 1 30.5904 1C30.5998 1 30.6092 1 30.6187 1C30.6282 1 30.6377 1 30.6472 1C30.6568 1 30.6663 1 30.6759 1C30.6855 1 30.6951 1 30.7048 1C30.7144 1 30.7241 1 30.7338 1C30.7435 1 30.7532 1 30.763 1C30.7727 1 30.7825 1 30.7923 1C30.8021 1 30.8119 1 30.8218 1C30.8317 1 30.8416 1 30.8515 1C30.8614 1 30.8713 1 30.8813 1C30.8913 1 30.9012 1 30.9113 1C30.9213 1 30.9313 1 30.9414 1C30.9515 1 30.9616 1 30.9717 1C30.9818 1 30.992 1 31.0022 1C31.0123 1 31.0225 1 31.0328 1C31.043 1 31.0532 1 31.0635 1C31.0738 1 31.0841 1 31.0944 1C31.1048 1 31.1151 1 31.1255 1C31.1359 1 31.1463 1 31.1567 1C31.1672 1 31.1776 1 31.1881 1C31.1986 1 31.2091 1 31.2196 1C31.2302 1 31.2407 1 31.2513 1C31.2619 1 31.2725 1 31.2831 1C31.2938 1 31.3044 1 31.3151 1C31.3258 1 31.3365 1 31.3473 1C31.358 1 31.3688 1 31.3795 1C31.3903 1 31.4011 1 31.412 1C31.4228 1 31.4336 1 31.4445 1C31.4554 1 31.4663 1 31.4772 1C31.4882 1 31.4991 1 31.5101 1C31.5211 1 31.5321 1 31.5431 1C31.5541 1 31.5652 1 31.5763 1C31.5873 1 31.5984 1 31.6096 1C31.6207 1 31.6318 1 31.643 1C31.6542 1 31.6654 1 31.6766 1C31.6878 1 31.699 1 31.7103 1C31.7216 1 31.7329 1 31.7442 1C31.7555 1 31.7668 1 31.7782 1C31.7895 1 31.8009 1 31.8123 1C31.8237 1 31.8351 1 31.8466 1C31.858 1 31.8695 1 31.881 1C31.8925 1 31.904 1 31.9156 1C31.9271 1 31.9387 1 31.9502 1C31.9618 1 31.9734 1 31.9851 1C31.9967 1 32.0084 1 32.02 1C32.0317 1 32.0434 1 32.0551 1C32.0668 1 32.0786 1 32.0904 1C32.1021 1 32.1139 1 32.1257 1C32.1375 1 32.1494 1 32.1612 1C32.1731 1 32.1849 1 32.1968 1C32.2087 1 32.2206 1 32.2326 1C32.2445 1 32.2565 1 32.2685 1C32.2805 1 32.2925 1 32.3045 1C32.3165 1 32.3286 1 32.3406 1C32.3527 1 32.3648 1 32.3769 1C32.389 1 32.4011 1 32.4133 1C32.4254 1 32.4376 1 32.4498 1C32.462 1 32.4742 1 32.4865 1C32.4987 1 32.511 1 32.5232 1C32.5355 1 32.5478 1 32.5601 1C32.5725 1 32.5848 1 32.5972 1C32.6095 1 32.6219 1 32.6343 1C32.6467 1 32.6591 1 32.6716 1C32.684 1 32.6965 1 32.709 1C32.7214 1 32.7339 1 32.7465 1C32.759 1 32.7715 1 32.7841 1C32.7967 1 32.8092 1 32.8218 1C32.8344 1 32.8471 1 32.8597 1C32.8724 1 32.885 1 32.8977 1C32.9104 1 32.9231 1 32.9358 1C32.9485 1 32.9613 1 32.974 1C32.9868 1 32.9996 1 33.0123 1C33.0251 1 33.038 1 33.0508 1C33.0636 1 33.0765 1 33.0894 1C33.1022 1 33.1151 1 33.128 1C33.141 1 33.1539 1 33.1668 1C33.1798 1 33.1927 1 33.2057 1C33.2187 1 33.2317 1 33.2447 1C33.2578 1 33.2708 1 33.2839 1C33.2969 1 33.31 1 33.3231 1C33.3362 1 33.3493 1 33.3625 1C33.3756 1 33.3887 1 33.4019 1C33.4151 1 33.4283 1 33.4415 1C33.4547 1 33.4679 1 33.4811 1C33.4944 1 33.5076 1 33.5209 1C33.5342 1 33.5475 1 33.5608 1C33.5741 1 33.5874 1 33.6008 1C33.6141 1 33.6275 1 33.6409 1C33.6542 1 33.6676 1 33.6811 1C33.6945 1 33.7079 1 33.7214 1C33.7348 1 33.7483 1 33.7618 1C33.7752 1 33.7887 1 33.8023 1C33.8158 1 33.8293 1 33.8429 1C33.8564 1 33.87 1 33.8836 1C33.8972 1 33.9108 1 33.9244 1C33.938 1 33.9516 1 33.9653 1C33.9789 1 33.9926 1 34.0063 1C34.02 1 34.0337 1 34.0474 1C34.0611 1 34.0748 1 34.0886 1C34.1023 1 34.1161 1 34.1298 1C34.1436 1 34.1574 1 34.1712 1C34.185 1 34.1989 1 34.2127 1C34.2266 1 34.2404 1 34.2543 1C34.2682 1 34.282 1 34.296 1C34.3099 1 34.3238 1 34.3377 1C34.3516 1 34.3656 1 34.3796 1C34.3935 1 34.4075 1 34.4215 1C34.4355 1 34.4495 1 34.4635 1C34.4776 1 34.4916 1 34.5057 1C34.5197 1 34.5338 1 34.5479 1C34.562 1 34.5761 1 34.5902 1C34.6043 1 34.6184 1 34.6326 1C34.6467 1 34.6609 1 34.675 1C34.6892 1 34.7034 1 34.7176 1C34.7318 1 34.746 1 34.7602 1C34.7745 1 34.7887 1 34.803 1C34.8172 1 34.8315 1 34.8458 1C34.8601 1 34.8744 1 34.8887 1C34.903 1 34.9173 1 34.9317 1C34.946 1 34.9603 1 34.9747 1C34.9891 1 35.0035 1 35.0179 1C35.0322 1 35.0467 1 35.0611 1C35.0755 1 35.0899 1 35.1044 1C35.1188 1 35.1333 1 35.1478 1C35.1622 1 35.1767 1 35.1912 1C35.2057 1 35.2202 1 35.2348 1C35.2493 1 35.2638 1 35.2784 1C35.2929 1 35.3075 1 35.3221 1C35.3366 1 35.3512 1 35.3658 1C35.3804 1 35.395 1 35.4097 1C35.4243 1 35.4389 1 35.4536 1C35.4682 1 35.4829 1 35.4976 1C35.5123 1 35.5269 1 35.5416 1C35.5563 1 35.571 1 35.5858 1C35.6005 1 35.6152 1 35.63 1C35.6447 1 35.6595 1 35.6743 1C35.689 1 35.7038 1 35.7186 1C35.7334 1 35.7482 1 35.763 1C35.7778 1 35.7927 1 35.8075 1C35.8223 1 35.8372 1 35.852 1C35.8669 1 35.8818 1 35.8967 1C35.9115 1 35.9264 1 35.9413 1C35.9563 1 35.9712 1 35.9861 1C36.001 1 36.016 1 36.0309 1C36.0459 1 36.0608 1 36.0758 1C36.0908 1 36.1057 1 36.1207 1C36.1357 1 36.1507 1 36.1657 1C36.1808 1 36.1958 1 36.2108 1C36.2258 1 36.2409 1 36.2559 1C36.271 1 36.286 1 36.3011 1C36.3162 1 36.3313 1 36.3464 1C36.3615 1 36.3766 1 36.3917 1C36.4068 1 36.4219 1 36.437 1C36.4522 1 36.4673 1 36.4825 1C36.4976 1 36.5128 1 36.528 1C36.5431 1 36.5583 1 36.5735 1C36.5887 1 36.6039 1 36.6191 1C36.6343 1 36.6495 1 36.6647 1C36.68 1 36.6952 1 36.7104 1C36.7257 1 36.7409 1 36.7562 1C36.7715 1 36.7867 1 36.802 1C36.8173 1 36.8326 1 36.8479 1C36.8632 1 36.8785 1 36.8938 1C36.9091 1 36.9244 1 36.9398 1C36.9551 1 36.9704 1 36.9858 1C37.0011 1 37.0165 1 37.0318 1C37.0472 1 37.0626 1 37.0779 1C37.0933 1 37.1087 1 37.1241 1C37.1395 1 37.1549 1 37.1703 1C37.1857 1 37.2011 1 37.2166 1C37.232 1 37.2474 1 37.2629 1C37.2783 1 37.2938 1 37.3092 1C37.3247 1 37.3401 1 37.3556 1C37.3711 1 37.3866 1 37.402 1C37.4175 1 37.433 1 37.4485 1C37.464 1 37.4795 1 37.495 1C37.5105 1 37.5261 1 37.5416 1C37.5571 1 37.5727 1 37.5882 1C37.6037 1 37.6193 1 37.6348 1C37.6504 1 37.666 1 37.6815 1C37.6971 1 37.7127 1 37.7282 1C37.7438 1 37.7594 1 37.775 1C37.7906 1 37.8062 1 37.8218 1C37.8374 1 37.853 1 37.8686 1C37.8842 1 37.8999 1 37.9155 1C37.9311 1 37.9468 1 37.9624 1C37.978 1 37.9937 1 38.0093 1C38.025 1 38.0406 1 38.0563 1C38.072 1 38.0876 1 38.1033 1C38.119 1 38.1347 1 38.1504 1C38.166 1 38.1817 1 38.1974 1C38.2131 1 38.2288 1 38.2445 1C38.2602 1 38.2759 1 38.2917 1C38.3074 1 38.3231 1 38.3388 1C38.3545 1 38.3703 1 38.386 1C38.4017 1 38.4175 1 38.4332 1C38.449 1 38.4647 1 38.4805 1C38.4962 1 38.512 1 38.5277 1C38.5435 1 38.5593 1 38.575 1C38.5908 1 38.6066 1 38.6224 1C38.6381 1 38.6539 1 38.6697 1C38.6855 1 38.7013 1 38.7171 1C38.7329 1 38.7487 1 38.7645 1C38.7803 1 38.7961 1 38.8119 1C38.8277 1 38.8435 1 38.8593 1C38.8752 1 38.891 1 38.9068 1C38.9226 1 38.9384 1 38.9543 1C38.9701 1 38.9859 1 39.0018 1C39.0176 1 39.0335 1 39.0493 1C39.0651 1 39.081 1 39.0968 1C39.1127 1 39.1285 1 39.1444 1C39.1602 1 39.1761 1 39.192 1C39.2078 1 39.2237 1 39.2396 1C39.2554 1 39.2713 1 39.2872 1C39.303 1 39.3189 1 39.3348 1C39.3507 1 39.3665 1 39.3824 1C39.3983 1 39.4142 1 39.4301 1C39.4459 1 39.4618 1 39.4777 1C39.4936 1 39.5095 1 39.5254 1C39.5413 1 39.5572 1 39.5731 1C39.589 1 39.6049 1 39.6208 1C39.6367 1 39.6526 1 39.6685 1C39.6844 1 39.7003 1 39.7162 1C39.7321 1 39.748 1 39.7639 1C39.7798 1 39.7957 1 39.8116 1C39.8275 1 39.8434 1 39.8594 1C39.8753 1 39.8912 1 39.9071 1C39.923 1 39.9389 1 39.9549 1C39.9708 1 39.9867 1 40.0026 1C40.0185 1 40.0344 1 40.0504 1C40.0663 1 40.0822 1 40.0981 1C40.114 1 40.13 1 40.1459 1C40.1618 1 40.1777 1 40.1936 1C40.2096 1 40.2255 1 40.2414 1C40.2573 1 40.2733 1 40.2892 1C40.3051 1 40.321 1 40.3369 1C40.3529 1 40.3688 1 40.3847 1C40.4006 1 40.4166 1 40.4325 1C40.4484 1 40.4643 1 40.4802 1C40.4962 1 40.5121 1 40.528 1C40.5439 1 40.5598 1 40.5758 1C40.5917 1 40.6076 1 40.6235 1C40.6394 1 40.6553 1 40.6712 1C40.6872 1 40.7031 1 40.719 1C40.7349 1 40.7508 1 40.7667 1C40.7826 1 40.7985 1 40.8145 1C40.8304 1 40.8463 1 40.8622 1C40.8781 1 40.894 1 40.9099 1C40.9258 1 40.9417 1 40.9576 1C40.9735 1 40.9894 1 41.0053 1C41.0212 1 41.0371 1 41.053 1C41.0688 1 41.0847 1 41.1006 1C41.1165 1 41.1324 1 41.1483 1C41.1642 1 41.18 1 41.1959 1C41.2118 1 41.2277 1 41.2436 1C41.2594 1 41.2753 1 41.2912 1C41.307 1 41.3229 1 41.3388 1C41.3546 1 41.3705 1 41.3864 1C41.4022 1 41.4181 1 41.4339 1C41.4498 1 41.4656 1 41.4815 1C41.4973 1 41.5132 1 41.529 1C41.5449 1 41.5607 1 41.5765 1C41.5924 1 41.6082 1 41.624 1C41.6399 1 41.6557 1 41.6715 1C41.6873 1 41.7032 1 41.719 1C41.7348 1 41.7506 1 41.7664 1C41.7822 1 41.798 1 41.8138 1C41.8296 1 41.8454 1 41.8612 1C41.877 1 41.8928 1 41.9086 1C41.9244 1 41.9402 1 41.9559 1C41.9717 1 41.9875 1 42.0033 1C42.019 1 42.0348 1 42.0505 1C42.0663 1 42.0821 1 42.0978 1C42.1136 1 42.1293 1 42.1451 1C42.1608 1 42.1765 1 42.1923 1C42.208 1 42.2237 1 42.2395 1C42.2552 1 42.2709 1 42.2866 1C42.3023 1 42.318 1 42.3337 1C42.3494 1 42.3651 1 42.3808 1C42.3965 1 42.4122 1 42.4279 1C42.4436 1 42.4593 1 42.4749 1C42.4906 1 42.5063 1 42.5219 1C42.5376 1 42.5533 1 42.5689 1C42.5846 1 42.6002 1 42.6158 1C42.6315 1 42.6471 1 42.6627 1C42.6784 1 42.694 1 42.7096 1C42.7252 1 42.7408 1 42.7564 1C42.772 1 42.7876 1 42.8032 1C42.8188 1 42.8344 1 42.85 1C42.8655 1 42.8811 1 42.8967 1C42.9123 1 42.9278 1 42.9434 1C42.9589 1 42.9745 1 42.99 1C43.0055 1 43.0211 1 43.0366 1C43.0521 1 43.0676 1 43.0831 1C43.0987 1 43.1142 1 43.1297 1C43.1452 1 43.1606 1 43.1761 1C43.1916 1 43.2071 1 43.2226 1C43.238 1 43.2535 1 43.2689 1C43.2844 1 43.2998 1 43.3153 1C43.3307 1 43.3462 1 43.3616 1C43.377 1 43.3924 1 43.4078 1C43.4232 1 43.4386 1 43.454 1C43.4694 1 43.4848 1 43.5002 1C43.5156 1 43.5309 1 43.5463 1C43.5616 1 43.577 1 43.5923 1C43.6077 1 43.623 1 43.6384 1C43.6537 1 43.669 1 43.6843 1C43.6996 1 43.7149 1 43.7302 1C43.7455 1 43.7608 1 43.7761 1C43.7913 1 43.8066 1 43.8219 1C43.8371 1 43.8524 1 43.8676 1C43.8829 1 43.8981 1 43.9133 1C43.9285 1 43.9438 1 43.959 1C43.9742 1 43.9894 1 44.0045 1C44.0197 1 44.0349 1 44.0501 1C44.0652 1 44.0804 1 44.0956 1C44.1107 1 44.1258 1 44.141 1C44.1561 1 44.1712 1 44.1863 1C44.2014 1 44.2165 1 44.2316 1C44.2467 1 44.2618 1 44.2769 1C44.2919 1 44.307 1 44.3221 1C44.3371 1 44.3521 1 44.3672 1C44.3822 1 44.3972 1 44.4122 1C44.4272 1 44.4422 1 44.4572 1C44.4722 1 44.4872 1 44.5022 1C44.5171 1 44.5321 1 44.547 1C44.562 1 44.5769 1 44.5918 1C44.6068 1 44.6217 1 44.6366 1C44.6515 1 44.6664 1 44.6812 1C44.6961 1 44.711 1 44.7259 1C44.7407 1 44.7556 1 44.7704 1C44.7852 1 44.8001 1 44.8149 1C44.8297 1 44.8445 1 44.8593 1C44.8741 1 44.8888 1 44.9036 1C44.9184 1 44.9331 1 44.9479 1C44.9626 1 44.9773 1 44.9921 1C45.0068 1 45.0215 1 45.0362 1C45.0509 1 45.0656 1 45.0802 1C45.0949 1 45.1096 1 45.1242 1C45.1389 1 45.1535 1 45.1681 1C45.1828 1 45.1974 1 45.212 1C45.2266 1 45.2411 1 45.2557 1C45.2703 1 45.2848 1 45.2994 1C45.3139 1 45.3285 1 45.343 1C45.3575 1 45.372 1 45.3865 1C45.401 1 45.4155 1 45.43 1C45.4444 1 45.4589 1 45.4733 1C45.4878 1 45.5022 1 45.5166 1C45.5311 1 45.5455 1 45.5598 1C45.5742 1 45.5886 1 45.603 1C45.6173 1 45.6317 1 45.646 1C45.6604 1 45.6747 1 45.689 1C45.7033 1 45.7176 1 45.7319 1C45.7462 1 45.7604 1 45.7747 1C45.7889 1 45.8032 1 45.8174 1C45.8316 1 45.8458 1 45.86 1C45.8742 1 45.8884 1 45.9026 1C45.9167 1 45.9309 1 45.945 1C45.9592 1 45.9733 1 45.9874 1C46.0015 1 46.0156 1 46.0297 1C46.0438 1 46.0578 1 46.0719 1C46.0859 1 46.1 1 46.114 1C46.128 1 46.142 1 46.156 1C46.17 1 46.184 1 46.198 1C46.2119 1 46.2259 1 46.2398 1C46.2537 1 46.2676 1 46.2815 1C46.2954 1 46.3093 1 46.3232 1C46.3371 1 46.3509 1 46.3647 1C46.3786 1 46.3924 1 46.4062 1C46.42 1 46.4338 1 46.4476 1C46.4614 1 46.4751 1 46.4889 1C46.5026 1 46.5163 1 46.53 1C46.5438 1 46.5574 1 46.5711 1C46.5848 1 46.5985 1 46.6121 1C46.6258 1 46.6394 1 46.653 1C46.6666 1 46.6802 1 46.6938 1C46.7074 1 46.7209 1 46.7345 1C46.748 1 46.7615 1 46.7751 1C46.7886 1 46.8021 1 46.8155 1C46.829 1 46.8425 1 46.8559 1C46.8694 1 46.8828 1 46.8962 1C46.9096 1 46.923 1 46.9364 1C46.9498 1 46.9631 1 46.9765 1C46.9898 1 47.0031 1 47.0164 1C47.0298 1 47.043 1 47.0563 1C47.0696 1 47.0828 1 47.0961 1C47.1093 1 47.1225 1 47.1357 1C47.1489 1 47.1621 1 47.1753 1C47.1884 1 47.2016 1 47.2147 1C47.2278 1 47.2409 1 47.254 1C47.2671 1 47.2802 1 47.2933 1C47.3063 1 47.3193 1 47.3324 1C47.3454 1 47.3584 1 47.3714 1C47.3843 1 47.3973 1 47.4102 1C47.4232 1 47.4361 1 47.449 1C47.4619 1 47.4748 1 47.4877 1C47.5005 1 47.5134 1 47.5262 1C47.5391 1 47.5519 1 47.5647 1C47.5775 1 47.5902 1 47.603 1C47.6157 1 47.6285 1 47.6412 1C47.6539 1 47.6666 1 47.6793 1C47.6919 1 47.7046 1 47.7172 1C47.7299 1 47.7425 1 47.7551 1C47.7677 1 47.7803 1 47.7928 1C47.8054 1 47.8179 1 47.8304 1C47.8429 1 47.8554 1 47.8679 1C47.8804 1 47.8929 1 47.9053 1C47.9177 1 47.9301 1 47.9425 1C47.9549 1 47.9673 1 47.9797 1C47.992 1 48.0044 1 48.0167 1C48.029 1 48.0413 1 48.0536 1C48.0658 1 48.0781 1 48.0903 1C48.1025 1 48.1147 1 48.1269 1C48.1391 1 48.1513 1 48.1634 1C48.1756 1 48.1877 1 48.1998 1C48.2119 1 48.224 1 48.2361 1C48.2481 1 48.2602 1 48.2722 1C48.2842 1 48.2962 1 48.3082 1C48.3202 1 48.3321 1 48.3441 1C48.356 1 48.3679 1 48.3798 1C48.3917 1 48.4036 1 48.4154 1C48.4272 1 48.4391 1 48.4509 1C48.4627 1 48.4745 1 48.4862 1C48.498 1 48.5097 1 48.5214 1C48.5331 1 48.5448 1 48.5565 1C48.5682 1 48.5798 1 48.5914 1C48.6031 1 48.6147 1 48.6262 1C48.6378 1 48.6494 1 48.6609 1C48.6724 1 48.684 1 48.6954 1C48.7069 1 48.7184 1 48.7298 1C48.7413 1 48.7527 1 48.7641 1C48.7755 1 48.7869 1 48.7982 1C48.8096 1 48.8209 1 48.8322 1C48.8435 1 48.8548 1 48.866 1C48.8773 1 48.8885 1 48.8997 1C48.911 1 48.9221 1 48.9333 1C48.9445 1 48.9556 1 48.9667 1C48.9778 1 48.9889 1 49 1V0C48.9889 0 48.9778 0 48.9667 0C48.9556 0 48.9445 0 48.9333 0C48.9221 0 48.911 0 48.8997 0C48.8885 0 48.8773 0 48.866 0C48.8548 0 48.8435 0 48.8322 0C48.8209 0 48.8096 0 48.7982 0C48.7869 0 48.7755 0 48.7641 0C48.7527 0 48.7413 0 48.7298 0C48.7184 0 48.7069 0 48.6954 0C48.684 0 48.6724 0 48.6609 0C48.6494 0 48.6378 0 48.6262 0C48.6147 0 48.6031 0 48.5914 0C48.5798 0 48.5682 0 48.5565 0C48.5448 0 48.5331 0 48.5214 0C48.5097 0 48.498 0 48.4862 0C48.4745 0 48.4627 0 48.4509 0C48.4391 0 48.4272 0 48.4154 0C48.4036 0 48.3917 0 48.3798 0C48.3679 0 48.356 0 48.3441 0C48.3321 0 48.3202 0 48.3082 0C48.2962 0 48.2842 0 48.2722 0C48.2602 0 48.2481 0 48.2361 0C48.224 0 48.2119 0 48.1998 0C48.1877 0 48.1756 0 48.1634 0C48.1513 0 48.1391 0 48.1269 0C48.1147 0 48.1025 0 48.0903 0C48.0781 0 48.0658 0 48.0536 0C48.0413 0 48.029 0 48.0167 0C48.0044 0 47.992 0 47.9797 0C47.9673 0 47.9549 0 47.9425 0C47.9301 0 47.9177 0 47.9053 0C47.8929 0 47.8804 0 47.8679 0C47.8554 0 47.8429 0 47.8304 0C47.8179 0 47.8054 0 47.7928 0C47.7803 0 47.7677 0 47.7551 0C47.7425 0 47.7299 0 47.7172 0C47.7046 0 47.6919 0 47.6793 0C47.6666 0 47.6539 0 47.6412 0C47.6285 0 47.6157 0 47.603 0C47.5902 0 47.5775 0 47.5647 0C47.5519 0 47.5391 0 47.5262 0C47.5134 0 47.5005 0 47.4877 0C47.4748 0 47.4619 0 47.449 0C47.4361 0 47.4232 0 47.4102 0C47.3973 0 47.3843 0 47.3714 0C47.3584 0 47.3454 0 47.3324 0C47.3193 0 47.3063 0 47.2933 0C47.2802 0 47.2671 0 47.254 0C47.2409 0 47.2278 0 47.2147 0C47.2016 0 47.1884 0 47.1753 0C47.1621 0 47.1489 0 47.1357 0C47.1225 0 47.1093 0 47.0961 0C47.0828 0 47.0696 0 47.0563 0C47.043 0 47.0298 0 47.0164 0C47.0031 0 46.9898 0 46.9765 0C46.9631 0 46.9498 0 46.9364 0C46.923 0 46.9096 0 46.8962 0C46.8828 0 46.8694 0 46.8559 0C46.8425 0 46.829 0 46.8155 0C46.8021 0 46.7886 0 46.7751 0C46.7615 0 46.748 0 46.7345 0C46.7209 0 46.7074 0 46.6938 0C46.6802 0 46.6666 0 46.653 0C46.6394 0 46.6258 0 46.6121 0C46.5985 0 46.5848 0 46.5711 0C46.5574 0 46.5438 0 46.53 0C46.5163 0 46.5026 0 46.4889 0C46.4751 0 46.4614 0 46.4476 0C46.4338 0 46.42 0 46.4062 0C46.3924 0 46.3786 0 46.3647 0C46.3509 0 46.3371 0 46.3232 0C46.3093 0 46.2954 0 46.2815 0C46.2676 0 46.2537 0 46.2398 0C46.2259 0 46.2119 0 46.198 0C46.184 0 46.17 0 46.156 0C46.142 0 46.128 0 46.114 0C46.1 0 46.0859 0 46.0719 0C46.0578 0 46.0438 0 46.0297 0C46.0156 0 46.0015 0 45.9874 0C45.9733 0 45.9592 0 45.945 0C45.9309 0 45.9167 0 45.9026 0C45.8884 0 45.8742 0 45.86 0C45.8458 0 45.8316 0 45.8174 0C45.8032 0 45.7889 0 45.7747 0C45.7604 0 45.7462 0 45.7319 0C45.7176 0 45.7033 0 45.689 0C45.6747 0 45.6604 0 45.646 0C45.6317 0 45.6173 0 45.603 0C45.5886 0 45.5742 0 45.5598 0C45.5455 0 45.5311 0 45.5166 0C45.5022 0 45.4878 0 45.4733 0C45.4589 0 45.4444 0 45.43 0C45.4155 0 45.401 0 45.3865 0C45.372 0 45.3575 0 45.343 0C45.3285 0 45.3139 0 45.2994 0C45.2848 0 45.2703 0 45.2557 0C45.2411 0 45.2266 0 45.212 0C45.1974 0 45.1828 0 45.1681 0C45.1535 0 45.1389 0 45.1242 0C45.1096 0 45.0949 0 45.0802 0C45.0656 0 45.0509 0 45.0362 0C45.0215 0 45.0068 0 44.9921 0C44.9773 0 44.9626 0 44.9479 0C44.9331 0 44.9184 0 44.9036 0C44.8888 0 44.8741 0 44.8593 0C44.8445 0 44.8297 0 44.8149 0C44.8001 0 44.7852 0 44.7704 0C44.7556 0 44.7407 0 44.7259 0C44.711 0 44.6961 0 44.6812 0C44.6664 0 44.6515 0 44.6366 0C44.6217 0 44.6068 0 44.5918 0C44.5769 0 44.562 0 44.547 0C44.5321 0 44.5171 0 44.5022 0C44.4872 0 44.4722 0 44.4572 0C44.4422 0 44.4272 0 44.4122 0C44.3972 0 44.3822 0 44.3672 0C44.3521 0 44.3371 0 44.3221 0C44.307 0 44.2919 0 44.2769 0C44.2618 0 44.2467 0 44.2316 0C44.2165 0 44.2014 0 44.1863 0C44.1712 0 44.1561 0 44.141 0C44.1258 0 44.1107 0 44.0956 0C44.0804 0 44.0652 0 44.0501 0C44.0349 0 44.0197 0 44.0045 0C43.9894 0 43.9742 0 43.959 0C43.9438 0 43.9285 0 43.9133 0C43.8981 0 43.8829 0 43.8676 0C43.8524 0 43.8371 0 43.8219 0C43.8066 0 43.7913 0 43.7761 0C43.7608 0 43.7455 0 43.7302 0C43.7149 0 43.6996 0 43.6843 0C43.669 0 43.6537 0 43.6384 0C43.623 0 43.6077 0 43.5923 0C43.577 0 43.5616 0 43.5463 0C43.5309 0 43.5156 0 43.5002 0C43.4848 0 43.4694 0 43.454 0C43.4386 0 43.4232 0 43.4078 0C43.3924 0 43.377 0 43.3616 0C43.3462 0 43.3307 0 43.3153 0C43.2998 0 43.2844 0 43.2689 0C43.2535 0 43.238 0 43.2226 0C43.2071 0 43.1916 0 43.1761 0C43.1606 0 43.1452 0 43.1297 0C43.1142 0 43.0987 0 43.0831 0C43.0676 0 43.0521 0 43.0366 0C43.0211 0 43.0055 0 42.99 0C42.9745 0 42.9589 0 42.9434 0C42.9278 0 42.9123 0 42.8967 0C42.8811 0 42.8655 0 42.85 0C42.8344 0 42.8188 0 42.8032 0C42.7876 0 42.772 0 42.7564 0C42.7408 0 42.7252 0 42.7096 0C42.694 0 42.6784 0 42.6627 0C42.6471 0 42.6315 0 42.6158 0C42.6002 0 42.5846 0 42.5689 0C42.5533 0 42.5376 0 42.5219 0C42.5063 0 42.4906 0 42.4749 0C42.4593 0 42.4436 0 42.4279 0C42.4122 0 42.3965 0 42.3808 0C42.3651 0 42.3494 0 42.3337 0C42.318 0 42.3023 0 42.2866 0C42.2709 0 42.2552 0 42.2395 0C42.2237 0 42.208 0 42.1923 0C42.1765 0 42.1608 0 42.1451 0C42.1293 0 42.1136 0 42.0978 0C42.0821 0 42.0663 0 42.0505 0C42.0348 0 42.019 0 42.0033 0C41.9875 0 41.9717 0 41.9559 0C41.9402 0 41.9244 0 41.9086 0C41.8928 0 41.877 0 41.8612 0C41.8454 0 41.8296 0 41.8138 0C41.798 0 41.7822 0 41.7664 0C41.7506 0 41.7348 0 41.719 0C41.7032 0 41.6873 0 41.6715 0C41.6557 0 41.6399 0 41.624 0C41.6082 0 41.5924 0 41.5765 0C41.5607 0 41.5449 0 41.529 0C41.5132 0 41.4973 0 41.4815 0C41.4656 0 41.4498 0 41.4339 0C41.4181 0 41.4022 0 41.3864 0C41.3705 0 41.3546 0 41.3388 0C41.3229 0 41.307 0 41.2912 0C41.2753 0 41.2594 0 41.2436 0C41.2277 0 41.2118 0 41.1959 0C41.18 0 41.1642 0 41.1483 0C41.1324 0 41.1165 0 41.1006 0C41.0847 0 41.0688 0 41.053 0C41.0371 0 41.0212 0 41.0053 0C40.9894 0 40.9735 0 40.9576 0C40.9417 0 40.9258 0 40.9099 0C40.894 0 40.8781 0 40.8622 0C40.8463 0 40.8304 0 40.8145 0C40.7985 0 40.7826 0 40.7667 0C40.7508 0 40.7349 0 40.719 0C40.7031 0 40.6872 0 40.6712 0C40.6553 0 40.6394 0 40.6235 0C40.6076 0 40.5917 0 40.5758 0C40.5598 0 40.5439 0 40.528 0C40.5121 0 40.4962 0 40.4802 0C40.4643 0 40.4484 0 40.4325 0C40.4166 0 40.4006 0 40.3847 0C40.3688 0 40.3529 0 40.3369 0C40.321 0 40.3051 0 40.2892 0C40.2733 0 40.2573 0 40.2414 0C40.2255 0 40.2096 0 40.1936 0C40.1777 0 40.1618 0 40.1459 0C40.13 0 40.114 0 40.0981 0C40.0822 0 40.0663 0 40.0504 0C40.0344 0 40.0185 0 40.0026 0C39.9867 0 39.9708 0 39.9549 0C39.9389 0 39.923 0 39.9071 0C39.8912 0 39.8753 0 39.8594 0C39.8434 0 39.8275 0 39.8116 0C39.7957 0 39.7798 0 39.7639 0C39.748 0 39.7321 0 39.7162 0C39.7003 0 39.6844 0 39.6685 0C39.6526 0 39.6367 0 39.6208 0C39.6049 0 39.589 0 39.5731 0C39.5572 0 39.5413 0 39.5254 0C39.5095 0 39.4936 0 39.4777 0C39.4618 0 39.4459 0 39.4301 0C39.4142 0 39.3983 0 39.3824 0C39.3665 0 39.3507 0 39.3348 0C39.3189 0 39.303 0 39.2872 0C39.2713 0 39.2554 0 39.2396 0C39.2237 0 39.2078 0 39.192 0C39.1761 0 39.1602 0 39.1444 0C39.1285 0 39.1127 0 39.0968 0C39.081 0 39.0651 0 39.0493 0C39.0335 0 39.0176 0 39.0018 0C38.9859 0 38.9701 0 38.9543 0C38.9384 0 38.9226 0 38.9068 0C38.891 0 38.8752 0 38.8593 0C38.8435 0 38.8277 0 38.8119 0C38.7961 0 38.7803 0 38.7645 0C38.7487 0 38.7329 0 38.7171 0C38.7013 0 38.6855 0 38.6697 0C38.6539 0 38.6381 0 38.6224 0C38.6066 0 38.5908 0 38.575 0C38.5593 0 38.5435 0 38.5277 0C38.512 0 38.4962 0 38.4805 0C38.4647 0 38.449 0 38.4332 0C38.4175 0 38.4017 0 38.386 0C38.3703 0 38.3545 0 38.3388 0C38.3231 0 38.3074 0 38.2917 0C38.2759 0 38.2602 0 38.2445 0C38.2288 0 38.2131 0 38.1974 0C38.1817 0 38.166 0 38.1504 0C38.1347 0 38.119 0 38.1033 0C38.0876 0 38.072 0 38.0563 0C38.0406 0 38.025 0 38.0093 0C37.9937 0 37.978 0 37.9624 0C37.9468 0 37.9311 0 37.9155 0C37.8999 0 37.8842 0 37.8686 0C37.853 0 37.8374 0 37.8218 0C37.8062 0 37.7906 0 37.775 0C37.7594 0 37.7438 0 37.7282 0C37.7127 0 37.6971 0 37.6815 0C37.666 0 37.6504 0 37.6348 0C37.6193 0 37.6037 0 37.5882 0C37.5727 0 37.5571 0 37.5416 0C37.5261 0 37.5105 0 37.495 0C37.4795 0 37.464 0 37.4485 0C37.433 0 37.4175 0 37.402 0C37.3866 0 37.3711 0 37.3556 0C37.3401 0 37.3247 0 37.3092 0C37.2938 0 37.2783 0 37.2629 0C37.2474 0 37.232 0 37.2166 0C37.2011 0 37.1857 0 37.1703 0C37.1549 0 37.1395 0 37.1241 0C37.1087 0 37.0933 0 37.0779 0C37.0626 0 37.0472 0 37.0318 0C37.0165 0 37.0011 0 36.9858 0C36.9704 0 36.9551 0 36.9398 0C36.9244 0 36.9091 0 36.8938 0C36.8785 0 36.8632 0 36.8479 0C36.8326 0 36.8173 0 36.802 0C36.7867 0 36.7715 0 36.7562 0C36.7409 0 36.7257 0 36.7104 0C36.6952 0 36.68 0 36.6647 0C36.6495 0 36.6343 0 36.6191 0C36.6039 0 36.5887 0 36.5735 0C36.5583 0 36.5431 0 36.528 0C36.5128 0 36.4976 0 36.4825 0C36.4673 0 36.4522 0 36.437 0C36.4219 0 36.4068 0 36.3917 0C36.3766 0 36.3615 0 36.3464 0C36.3313 0 36.3162 0 36.3011 0C36.286 0 36.271 0 36.2559 0C36.2409 0 36.2258 0 36.2108 0C36.1958 0 36.1808 0 36.1657 0C36.1507 0 36.1357 0 36.1207 0C36.1057 0 36.0908 0 36.0758 0C36.0608 0 36.0459 0 36.0309 0C36.016 0 36.001 0 35.9861 0C35.9712 0 35.9563 0 35.9413 0C35.9264 0 35.9115 0 35.8967 0C35.8818 0 35.8669 0 35.852 0C35.8372 0 35.8223 0 35.8075 0C35.7927 0 35.7778 0 35.763 0C35.7482 0 35.7334 0 35.7186 0C35.7038 0 35.689 0 35.6743 0C35.6595 0 35.6447 0 35.63 0C35.6152 0 35.6005 0 35.5858 0C35.571 0 35.5563 0 35.5416 0C35.5269 0 35.5123 0 35.4976 0C35.4829 0 35.4682 0 35.4536 0C35.4389 0 35.4243 0 35.4097 0C35.395 0 35.3804 0 35.3658 0C35.3512 0 35.3366 0 35.3221 0C35.3075 0 35.2929 0 35.2784 0C35.2638 0 35.2493 0 35.2348 0C35.2202 0 35.2057 0 35.1912 0C35.1767 0 35.1622 0 35.1478 0C35.1333 0 35.1188 0 35.1044 0C35.0899 0 35.0755 0 35.0611 0C35.0467 0 35.0322 0 35.0179 0C35.0035 0 34.9891 0 34.9747 0C34.9603 0 34.946 0 34.9317 0C34.9173 0 34.903 0 34.8887 0C34.8744 0 34.8601 0 34.8458 0C34.8315 0 34.8172 0 34.803 0C34.7887 0 34.7745 0 34.7602 0C34.746 0 34.7318 0 34.7176 0C34.7034 0 34.6892 0 34.675 0C34.6609 0 34.6467 0 34.6326 0C34.6184 0 34.6043 0 34.5902 0C34.5761 0 34.562 0 34.5479 0C34.5338 0 34.5197 0 34.5057 0C34.4916 0 34.4776 0 34.4635 0C34.4495 0 34.4355 0 34.4215 0C34.4075 0 34.3935 0 34.3796 0C34.3656 0 34.3516 0 34.3377 0C34.3238 0 34.3099 0 34.296 0C34.282 0 34.2682 0 34.2543 0C34.2404 0 34.2266 0 34.2127 0C34.1989 0 34.185 0 34.1712 0C34.1574 0 34.1436 0 34.1298 0C34.1161 0 34.1023 0 34.0886 0C34.0748 0 34.0611 0 34.0474 0C34.0337 0 34.02 0 34.0063 0C33.9926 0 33.9789 0 33.9653 0C33.9516 0 33.938 0 33.9244 0C33.9108 0 33.8972 0 33.8836 0C33.87 0 33.8564 0 33.8429 0C33.8293 0 33.8158 0 33.8023 0C33.7887 0 33.7752 0 33.7618 0C33.7483 0 33.7348 0 33.7214 0C33.7079 0 33.6945 0 33.6811 0C33.6676 0 33.6542 0 33.6409 0C33.6275 0 33.6141 0 33.6008 0C33.5874 0 33.5741 0 33.5608 0C33.5475 0 33.5342 0 33.5209 0C33.5076 0 33.4944 0 33.4811 0C33.4679 0 33.4547 0 33.4415 0C33.4283 0 33.4151 0 33.4019 0C33.3887 0 33.3756 0 33.3625 0C33.3493 0 33.3362 0 33.3231 0C33.31 0 33.2969 0 33.2839 0C33.2708 0 33.2578 0 33.2447 0C33.2317 0 33.2187 0 33.2057 0C33.1927 0 33.1798 0 33.1668 0C33.1539 0 33.141 0 33.128 0C33.1151 0 33.1022 0 33.0894 0C33.0765 0 33.0636 0 33.0508 0C33.038 0 33.0251 0 33.0123 0C32.9996 0 32.9868 0 32.974 0C32.9613 0 32.9485 0 32.9358 0C32.9231 0 32.9104 0 32.8977 0C32.885 0 32.8724 0 32.8597 0C32.8471 0 32.8344 0 32.8218 0C32.8092 0 32.7967 0 32.7841 0C32.7715 0 32.759 0 32.7465 0C32.7339 0 32.7214 0 32.709 0C32.6965 0 32.684 0 32.6716 0C32.6591 0 32.6467 0 32.6343 0C32.6219 0 32.6095 0 32.5972 0C32.5848 0 32.5725 0 32.5601 0C32.5478 0 32.5355 0 32.5232 0C32.511 0 32.4987 0 32.4865 0C32.4742 0 32.462 0 32.4498 0C32.4376 0 32.4254 0 32.4133 0C32.4011 0 32.389 0 32.3769 0C32.3648 0 32.3527 0 32.3406 0C32.3286 0 32.3165 0 32.3045 0C32.2925 0 32.2805 0 32.2685 0C32.2565 0 32.2445 0 32.2326 0C32.2206 0 32.2087 0 32.1968 0C32.1849 0 32.1731 0 32.1612 0C32.1494 0 32.1375 0 32.1257 0C32.1139 0 32.1021 0 32.0904 0C32.0786 0 32.0668 0 32.0551 0C32.0434 0 32.0317 0 32.02 0C32.0084 0 31.9967 0 31.9851 0C31.9734 0 31.9618 0 31.9502 0C31.9387 0 31.9271 0 31.9156 0C31.904 0 31.8925 0 31.881 0C31.8695 0 31.858 0 31.8466 0C31.8351 0 31.8237 0 31.8123 0C31.8009 0 31.7895 0 31.7782 0C31.7668 0 31.7555 0 31.7442 0C31.7329 0 31.7216 0 31.7103 0C31.699 0 31.6878 0 31.6766 0C31.6654 0 31.6542 0 31.643 0C31.6318 0 31.6207 0 31.6096 0C31.5984 0 31.5873 0 31.5763 0C31.5652 0 31.5541 0 31.5431 0C31.5321 0 31.5211 0 31.5101 0C31.4991 0 31.4882 0 31.4772 0C31.4663 0 31.4554 0 31.4445 0C31.4336 0 31.4228 0 31.412 0C31.4011 0 31.3903 0 31.3795 0C31.3688 0 31.358 0 31.3473 0C31.3365 0 31.3258 0 31.3151 0C31.3044 0 31.2938 0 31.2831 0C31.2725 0 31.2619 0 31.2513 0C31.2407 0 31.2302 0 31.2196 0C31.2091 0 31.1986 0 31.1881 0C31.1776 0 31.1672 0 31.1567 0C31.1463 0 31.1359 0 31.1255 0C31.1151 0 31.1048 0 31.0944 0C31.0841 0 31.0738 0 31.0635 0C31.0532 0 31.043 0 31.0328 0C31.0225 0 31.0123 0 31.0022 0C30.992 0 30.9818 0 30.9717 0C30.9616 0 30.9515 0 30.9414 0C30.9313 0 30.9213 0 30.9113 0C30.9012 0 30.8913 0 30.8813 0C30.8713 0 30.8614 0 30.8515 0C30.8416 0 30.8317 0 30.8218 0C30.8119 0 30.8021 0 30.7923 0C30.7825 0 30.7727 0 30.763 0C30.7532 0 30.7435 0 30.7338 0C30.7241 0 30.7144 0 30.7048 0C30.6951 0 30.6855 0 30.6759 0C30.6663 0 30.6568 0 30.6472 0C30.6377 0 30.6282 0 30.6187 0C30.6092 0 30.5998 0 30.5904 0C30.5809 0 30.5715 0 30.5622 0C30.5528 0 30.5435 0 30.5341 0C30.5248 0 30.5155 0 30.5063 0C30.497 0 30.4878 0 30.4786 0C30.4694 0 30.4602 0 30.4511 0C30.4419 0 30.4328 0 30.4237 0C30.4146 0 30.4056 0 30.3965 0C30.3875 0 30.3785 0 30.3695 0C30.3605 0 30.3516 0 30.3427 0C30.3338 0 30.3249 0 30.316 0C30.3072 0 30.2983 0 30.2895 0C30.2807 0 30.2719 0 30.2632 0C30.2545 0 30.2457 0 30.2371 0C30.2284 0 30.2197 0 30.2111 0C30.2025 0 30.1939 0 30.1853 0C30.1767 0 30.1682 0 30.1597 0C30.1512 0 30.1427 0 30.1342 0C30.1258 0 30.1174 0 30.109 0C30.1006 0 30.0922 0 30.0839 0C30.0755 0 30.0672 0 30.059 0C30.0507 0 30.0425 0 30.0343 0C30.026 0 30.0179 0 30.0097 0C30.0016 0 29.9934 0 29.9853 0C29.9773 0 29.9692 0 29.9612 0C29.9531 0 29.9451 0 29.9372 0C29.9292 0 29.9213 0 29.9133 0C29.9054 0 29.8976 0 29.8897 0C29.8819 0 29.8741 0 29.8663 0C29.8585 0 29.8507 0 29.843 0C29.8353 0 29.8276 0 29.8199 0C29.8123 0 29.8047 0 29.7971 0C29.7895 0 29.7819 0 29.7744 0C29.7668 0 29.7593 0 29.7518 0C29.7444 0 29.7369 0 29.7295 0C29.7221 0 29.7147 0 29.7074 0C29.7001 0 29.6927 0 29.6855 0C29.6782 0 29.6709 0 29.6637 0C29.6565 0 29.6493 0 29.6422 0C29.635 0 29.6279 0 29.6208 0C29.6137 0 29.6066 0 29.5996 0C29.5926 0 29.5856 0 29.5786 0C29.5717 0 29.5648 0 29.5579 0C29.551 0 29.5441 0 29.5373 0C29.5304 0 29.5237 0 29.5169 0C29.5101 0 29.5034 0 29.4967 0C29.49 0 29.4833 0 29.4767 0C29.4701 0 29.4635 0 29.4569 0C29.4503 0 29.4438 0 29.4373 0C29.4308 0 29.4243 0 29.4179 0C29.4115 0 29.4051 0 29.3987 0C29.3923 0 29.386 0 29.3797 0C29.3734 0 29.3672 0 29.3609 0C29.3547 0 29.3485 0 29.3423 0C29.3362 0 29.33 0 29.3239 0C29.3179 0 29.3118 0 29.3058 0C29.2997 0 29.2937 0 29.2878 0C29.2818 0 29.2759 0 29.27 0C29.2641 0 29.2583 0 29.2524 0C29.2466 0 29.2408 0 29.2351 0C29.2293 0 29.2236 0 29.2179 0C29.2123 0 29.2066 0 29.201 0C29.1954 0 29.1898 0 29.1843 0C29.1787 0 29.1732 0 29.1677 0C29.1623 0 29.1568 0 29.1514 0C29.146 0 29.1406 0 29.1353 0C29.13 0 29.1247 0 29.1194 0C29.1142 0 29.1089 0 29.1037 0C29.0986 0 29.0934 0 29.0883 0C29.0832 0 29.0781 0 29.073 0C29.068 0 29.063 0 29.058 0C29.053 0 29.0481 0 29.0432 0C29.0383 0 29.0334 0 29.0286 0C29.0237 0 29.0189 0 29.0142 0C29.0094 0 29.0047 0 29 0V1Z" fill="#00AB62"/>
</svg>
