<svg width="12" height="12" viewBox="0 0 12 12" fill="none" xmlns="http://www.w3.org/2000/svg">
<mask id="mask0_1234_989" style="mask-type:alpha" maskUnits="userSpaceOnUse" x="0" y="0" width="12" height="12">
<rect width="12" height="12" fill="#D9D9D9"/>
</mask>
<g mask="url(#mask0_1234_989)">
<path d="M10.1036 2.48286L9.09475 2.33305V0.259116C9.09475 0.179054 9.05313 0.104804 8.98045 0.0554912C8.90776 0.00617869 8.8146 -0.0108838 8.72617 0.00861619L3.72698 1.09049C3.64028 1.10924 3.58766 1.18555 3.60923 1.26093C3.63058 1.3363 3.71814 1.38224 3.80527 1.3633L8.77168 0.288741V2.28524L8.5297 2.24924V0.969178C8.5297 0.889116 8.48807 0.814866 8.41561 0.765553C8.34315 0.716428 8.25062 0.698991 8.16069 0.718491L4.11669 1.59355L2.53973 1.35937C2.4925 1.35243 2.4444 1.36368 2.40817 1.39049C2.37172 1.41712 2.35059 1.45649 2.35059 1.49793V10.7413C2.35059 10.8097 2.40752 10.8682 2.48516 10.88L10.004 11.997C10.0206 11.9992 10.0372 12.0007 10.0534 12.0007C10.1231 12.0007 10.191 11.9792 10.2453 11.9396C10.3122 11.8901 10.3506 11.8183 10.3506 11.7422V2.73749C10.3508 2.6113 10.2471 2.50424 10.1036 2.48286ZM10.0275 11.715L2.6743 10.6228V1.66461L7.56243 2.39043C7.64848 2.4028 7.73388 2.35218 7.74898 2.27549C7.76408 2.19899 7.70477 2.12624 7.61656 2.1133L4.91078 1.71149L8.2062 0.998428V2.36755C8.20749 2.36699 8.20792 2.36736 8.20922 2.3668C8.209 2.4343 8.26162 2.49449 8.34077 2.50611L10.0275 2.7568V11.715ZM6.3728 3.42993C5.68784 3.32793 5.04428 3.46799 4.56032 3.82293C4.08521 4.1713 3.8236 4.68524 3.8236 5.27005C3.8236 6.07067 4.32546 6.87786 5.13335 7.37661C5.20603 7.42199 5.30697 7.40642 5.35894 7.34342C5.4107 7.28005 5.39367 7.1923 5.32055 7.1473C4.9289 6.90542 4.62136 6.58274 4.41798 6.22574L5.33457 6.36186C5.48231 7.1038 5.81638 7.7368 6.31845 7.81142C6.46446 7.83299 6.60852 7.84367 6.74957 7.84367C7.27041 7.84367 7.75027 7.69761 8.13114 7.41824C8.60604 7.06986 8.86765 6.55574 8.86765 5.9713C8.86765 4.7743 7.74855 3.63411 6.3728 3.42993ZM8.54436 5.97111C8.54436 6.17192 8.50727 6.36186 8.43869 6.53736L7.39744 6.38267C7.42656 6.18561 7.44338 5.97711 7.44338 5.75942C7.44338 5.56649 7.43044 5.36961 7.40563 5.17592L8.4223 5.32686C8.50015 5.53517 8.54436 5.75192 8.54436 5.97111ZM5.57116 5.48155C5.57116 5.27361 5.58647 5.08405 5.61084 4.90949L7.07458 5.12699C7.10348 5.32461 7.12009 5.53649 7.12009 5.7598C7.12009 5.96924 7.10478 6.1603 7.07998 6.3358L5.61731 6.11867C5.58798 5.91955 5.57116 5.70636 5.57116 5.48155ZM8.2806 5.02068L7.35733 4.88343C7.28292 4.50749 7.16064 4.16043 6.99285 3.8983C7.54798 4.13474 8.00908 4.54105 8.2806 5.02068ZM6.10063 3.77174C6.16209 3.72655 6.22183 3.70443 6.28179 3.70443C6.29408 3.70443 6.30616 3.70536 6.31845 3.70724C6.58502 3.7468 6.87229 4.18293 7.02002 4.83355L5.66109 4.63161C5.76095 4.19343 5.93068 3.89624 6.10063 3.77174ZM4.76887 4.0378C5.04299 3.83699 5.38051 3.71999 5.7493 3.68924C5.56944 3.89286 5.42968 4.20655 5.34363 4.58455L4.38585 4.44224C4.48506 4.28905 4.61295 4.15236 4.76887 4.0378ZM4.27413 5.91899C4.19433 5.70711 4.1471 5.48867 4.1471 5.27005C4.1471 5.07055 4.18355 4.88193 4.25127 4.70755L5.29187 4.86205C5.26319 5.0578 5.24766 5.26574 5.24766 5.48155C5.24766 5.6758 5.2606 5.87417 5.28583 6.06917L4.27413 5.91899ZM6.59062 7.46942C6.51687 7.52361 6.44526 7.54424 6.3728 7.53392C6.10688 7.49436 5.82004 7.0603 5.67231 6.41192L7.02951 6.61349C6.92922 7.04961 6.75992 7.34511 6.59062 7.46942ZM7.92238 7.20317C7.64848 7.40455 7.31096 7.52174 6.94152 7.5523C7.12074 7.34961 7.2592 7.03611 7.34525 6.66036L8.30325 6.80267C8.20447 6.95436 8.07723 7.08974 7.92238 7.20317ZM8.71151 9.57261C8.70223 9.57261 8.69339 9.57223 8.68412 9.57073L3.96335 8.86948C3.87536 8.85617 3.81605 8.78361 3.83115 8.7073C3.84625 8.6308 3.92842 8.57886 4.0177 8.59217L8.73825 9.29342C8.82646 9.30673 8.88577 9.3793 8.87067 9.45561C8.85708 9.52442 8.78893 9.57261 8.71151 9.57261ZM8.11281 10.2084C8.10354 10.2084 8.0947 10.208 8.08542 10.2065L4.56183 9.68305C4.47384 9.66973 4.41453 9.59717 4.42963 9.52086C4.44472 9.44436 4.52776 9.39242 4.61618 9.40573L8.13955 9.92923C8.22776 9.94255 8.28707 10.0151 8.27197 10.0914C8.25839 10.1602 8.19024 10.2084 8.11281 10.2084Z" fill="#00AB62"/>
</g>
</svg>
