<svg width="35" height="50" viewBox="0 0 35 50" fill="none" xmlns="http://www.w3.org/2000/svg">
<circle cx="16" cy="34" r="16" fill="white"/>
<path d="M16.2766 40.2069C16.1417 40.5443 15.3994 40.5443 14.5222 40.2069C13.7124 39.8695 13.1726 39.3297 13.2401 39.0597C13.375 38.7223 14.1173 38.7898 14.9945 39.0597C15.8043 39.3971 16.4116 39.937 16.2766 40.2069Z" fill="#BFC0C1"/>
<path d="M18.2363 33.3238C18.2363 33.1889 17.6965 32.919 17.0217 32.7165C16.3469 32.5141 15.7396 32.4466 15.6721 32.5141L13.4453 39.3295C13.7152 39.6669 14.3225 39.9368 14.9299 40.0718C15.3347 40.2067 15.8071 40.2742 16.077 40.1392L18.2363 33.3238Z" fill="url(#paint0_linear_1028_6170)"/>
<path d="M31.9925 22.798C29.5632 18.2769 26.6616 16.0501 22.8153 14.903C22.7478 14.903 22.6803 14.8355 22.6129 14.8355C22.5454 14.8355 22.4779 14.768 22.4104 14.768C18.5641 13.6209 14.9202 13.8233 10.3991 16.2525C6.95764 18.0745 5.67553 22.2582 5.00074 24.4176C5.00074 24.4176 4.86578 28.6013 8.23975 31.7053C11.4788 34.8094 15.2576 36.0915 16.1348 36.2939C17.0121 36.5638 20.8584 37.711 25.2446 36.9012C30.238 35.9565 31.9925 32.5826 31.9925 32.5826C32.6673 30.3557 33.8819 26.2395 31.9925 22.798Z" fill="url(#paint1_radial_1028_6170)"/>
<path opacity="0.0909" d="M18.5527 27.9928C13.0194 26.3733 9.37551 22.1895 10.4552 18.6806C11.4674 15.2392 16.7982 13.8221 22.3315 15.4416C27.8649 17.1286 31.5087 21.3123 30.4965 24.7537C29.4169 28.1952 24.086 29.6797 18.5527 27.9928Z" fill="#BAC5C0"/>
<path opacity="0.1818" d="M18.6236 27.7905C13.2253 26.171 9.71634 22.0548 10.7285 18.7483C11.7407 15.3743 16.9366 14.0247 22.335 15.6442C27.7333 17.2637 31.3097 21.3125 30.2975 24.6865C29.2854 27.993 24.022 29.41 18.6236 27.7905Z" fill="#ADC3BA"/>
<path opacity="0.2727" d="M18.6312 27.5881C13.4353 25.9686 10.0614 21.9874 11.0061 18.7483C12.0183 15.5093 17.0792 14.1598 22.2751 15.7793C27.606 17.3313 31.0475 21.2451 30.1027 24.4841C29.0906 27.7231 23.8946 29.1402 18.6312 27.5881Z" fill="#A0C0B3"/>
<path opacity="0.3636" d="M18.6995 27.3855C13.571 25.8334 10.332 21.9196 11.2767 18.8156C12.2214 15.7115 17.1474 14.4294 22.2759 15.9814C27.4043 17.5335 30.8458 21.3123 29.901 24.4838C28.9563 27.5204 23.8279 28.9375 18.6995 27.3855Z" fill="#93BEAC"/>
<path opacity="0.4545" d="M18.7549 27.1157C13.7614 25.6311 10.6574 21.7848 11.5346 18.7482C12.4793 15.7117 17.2704 14.497 22.2638 15.9816C27.2573 17.4661 30.6313 21.1775 29.6866 24.2141C28.8093 27.2506 23.7484 28.6677 18.7549 27.1157Z" fill="#86BCA5"/>
<path opacity="0.5455" d="M18.83 26.914C13.9715 25.4294 11.0024 21.7181 11.8797 18.8164C12.7569 15.9148 17.413 14.7677 22.2715 16.1847C27.13 17.6693 30.4365 21.1782 29.4918 24.0798C28.6145 26.9814 23.6885 28.3985 18.83 26.914Z" fill="#79BA9F"/>
<path opacity="0.6364" d="M18.8961 26.7115C14.1725 25.2944 11.2709 21.6505 12.1481 18.8164C13.0254 16.0497 17.5465 14.9026 22.27 16.3197C26.9936 17.7367 30.1651 21.1782 29.3554 23.9448C28.4781 26.779 23.6196 28.1285 18.8961 26.7115Z" fill="#6CB898"/>
<path opacity="0.7273" d="M18.9669 26.441C14.3783 25.0914 11.6117 21.515 12.4214 18.8158C13.2312 16.1167 17.6173 15.1045 22.2059 16.4541C26.7945 17.8711 29.8986 21.1776 29.0888 23.8093C28.3465 26.5085 23.5555 27.8581 18.9669 26.441Z" fill="#5FB691"/>
<path opacity="0.8182" d="M19.0306 26.2393C14.577 24.8898 11.9453 21.3808 12.755 18.8166C13.4973 16.2524 17.7485 15.2402 22.2021 16.5898C26.6558 17.9394 29.6923 21.1109 28.9501 23.6751C28.1403 26.3068 23.4842 27.5889 19.0306 26.2393Z" fill="#52B38A"/>
<path opacity="0.9091" d="M19.0936 26.0357C14.7749 24.7536 12.2781 21.3121 13.0204 18.8829C13.7627 16.3861 17.8789 15.5089 22.2651 16.791C26.6513 18.0731 29.5529 21.1771 28.8106 23.6064C28.0008 26.0357 23.4122 27.3178 19.0936 26.0357Z" fill="#45B184"/>
<path d="M28.542 23.4724C27.7997 25.8341 23.3461 27.1162 19.0949 25.8341C14.9112 24.552 12.5494 21.2455 13.2917 18.8838C14.0339 16.522 18.0152 15.6448 22.1989 16.9269C26.4501 18.1415 29.2843 21.1106 28.542 23.4724Z" fill="#38AF7D"/>
<path opacity="0.51" d="M31.1135 22.4594C31.3834 23.4716 31.3834 24.4163 31.1135 25.361C29.8314 29.4097 24.0281 31.2317 18.0899 29.4772C12.0843 27.6553 8.23796 22.9317 9.52007 18.883C9.78998 17.9383 10.3298 17.1285 11.0721 16.3862C9.58754 17.2635 8.50788 18.4781 8.03552 20.0301C6.75341 24.3488 10.9371 29.4772 17.4826 31.4341C23.9606 33.391 30.3712 31.4341 31.6533 27.1154C32.0582 25.5634 31.8557 24.0114 31.1135 22.4594Z" fill="#02D179"/>
<path d="M18.842 6.60181L13.7136 19.153C13.7136 19.153 13.6461 19.3554 13.7136 19.4904C13.8485 20.3676 14.5908 23.4716 19.4493 25.1586C23.8355 26.6432 27.007 24.079 27.2095 23.0668C27.4119 21.7172 30.246 8.55871 30.246 8.55871L18.842 6.60181Z" fill="url(#paint2_linear_1028_6170)"/>
<path d="M19.0418 6.9397C17.6247 10.1112 13.9134 19.086 13.7109 19.6258C13.7784 20.0307 14.1833 22.7973 18.0296 24.6193L23.3605 7.68197L19.0418 6.9397Z" fill="url(#paint3_linear_1028_6170)"/>
<path d="M27.0149 23.4714C27.1499 22.7966 27.6222 20.2324 28.2296 17.1958C28.6344 15.2389 29.9165 10.178 30.1865 8.62597L26.0027 7.95117L20.6719 25.4958C24.1133 26.2381 26.88 24.0113 27.0149 23.4714Z" fill="url(#paint4_linear_1028_6170)"/>
<path d="M34.8461 9.23031C33.9167 12.2855 28.3404 13.944 23.0176 12.2855C17.7793 10.627 14.8222 6.34973 15.7516 3.29457C16.6809 0.23941 21.6658 -0.895363 26.9041 0.763152C32.2269 2.33438 35.7754 6.17515 34.8461 9.23031Z" fill="#00AB62"/>
<defs>
<linearGradient id="paint0_linear_1028_6170" x1="13.7551" y1="35.7065" x2="16.9875" y2="36.7204" gradientUnits="userSpaceOnUse">
<stop stop-color="#C7C7C7"/>
<stop offset="0.0275" stop-color="#ABABAB"/>
<stop offset="0.2143" stop-color="#929593"/>
<stop offset="0.3571" stop-color="#EDEDED"/>
<stop offset="0.4231" stop-color="#EDEDED"/>
<stop offset="0.6044" stop-color="#949AA1"/>
<stop offset="0.6209" stop-color="#8A8E97"/>
<stop offset="0.6777" stop-color="#6A6978"/>
<stop offset="0.7237" stop-color="#565265"/>
<stop offset="0.7527" stop-color="#4F4A5E"/>
<stop offset="0.8571" stop-color="#8799A6"/>
<stop offset="0.9341" stop-color="#A8A8A8"/>
<stop offset="0.9719" stop-color="#A6A6A6"/>
<stop offset="0.9901" stop-color="#9E9E9E"/>
<stop offset="1" stop-color="#969696"/>
</linearGradient>
<radialGradient id="paint1_radial_1028_6170" cx="0" cy="0" r="1" gradientUnits="userSpaceOnUse" gradientTransform="translate(19.5871 20.1734) rotate(16.7624) scale(27.4524 27.4524)">
<stop offset="0.1813" stop-color="#00974E"/>
<stop offset="0.4847" stop-color="#00B773"/>
<stop offset="0.6758" stop-color="#00C786"/>
<stop offset="0.7986" stop-color="#22C797"/>
<stop offset="0.9268" stop-color="#3FC7A6"/>
<stop offset="1" stop-color="#4AC7AC"/>
</radialGradient>
<linearGradient id="paint2_linear_1028_6170" x1="15.2794" y1="13.9609" x2="28.7001" y2="18.0025" gradientUnits="userSpaceOnUse">
<stop offset="0.0275" stop-color="#18C795"/>
<stop offset="0.1056" stop-color="#12BB85"/>
<stop offset="0.2644" stop-color="#08A66A"/>
<stop offset="0.4048" stop-color="#029959"/>
<stop offset="0.511" stop-color="#009553"/>
<stop offset="0.8139" stop-color="#00B779"/>
<stop offset="1" stop-color="#00C78C"/>
</linearGradient>
<linearGradient id="paint3_linear_1028_6170" x1="23.3392" y1="17.1953" x2="14.1096" y2="15.0756" gradientUnits="userSpaceOnUse">
<stop stop-color="#868686"/>
<stop offset="0.280436" stop-color="#06A05F"/>
<stop offset="0.703682" stop-color="#13C478"/>
</linearGradient>
<linearGradient id="paint4_linear_1028_6170" x1="30.1655" y1="18.2155" x2="21.0516" y2="16.1534" gradientUnits="userSpaceOnUse">
<stop stop-color="#C7C7C7"/>
<stop offset="0.2677" stop-color="#06A05F"/>
<stop offset="0.4176" stop-color="#13C478"/>
</linearGradient>
</defs>
</svg>
