<svg width="160" height="80" viewBox="0 0 160 80" fill="none" xmlns="http://www.w3.org/2000/svg">
<path d="M63.7001 33.0933C63.7001 34.8267 63.7001 35.7387 63.9827 35.98C64.2094 36.1827 64.5587 36.2787 65.6094 36.2787C66.3227 36.2787 66.8427 36.2627 67.1787 35.9C67.3622 35.6667 67.4817 35.3896 67.5254 35.096C67.5361 34.9627 67.5654 34.896 67.6587 34.896C67.7521 34.896 67.7654 34.9627 67.7654 35.1227C67.7357 35.6425 67.668 36.1594 67.5627 36.6693C67.4787 36.9627 67.4121 37.032 66.7174 37.032C64.7841 37.032 63.8974 36.9493 62.8081 36.9493L61.1174 36.9893C60.9441 36.9893 60.8481 36.9493 60.8481 36.856C60.8481 36.7893 60.9041 36.7493 61.0641 36.7493C61.227 36.7497 61.3893 36.7313 61.5481 36.6947C61.8147 36.6413 61.8841 36.3453 61.9387 35.9587C62.0054 35.3907 62.0054 34.332 62.0054 33.096V30.7333L61.9787 27.8867C61.9494 27.4293 61.8454 27.2147 61.4027 27.1213C61.2907 27.0947 61.1321 27.0813 60.9601 27.0813C60.8107 27.0813 60.7334 27.0547 60.7334 26.948C60.7334 26.8413 60.8267 26.8147 61.0294 26.8147L62.8667 26.8547L64.6934 26.8147C64.8827 26.8147 64.9601 26.8413 64.9601 26.948C64.9601 27.0547 64.8801 27.0813 64.7174 27.0813C64.5424 27.0819 64.3677 27.0953 64.1947 27.1213C63.8321 27.188 63.7227 27.4187 63.6947 27.8867L63.6707 30.7333V33.0973L63.7001 33.0933ZM70.6134 30.7307L70.5894 27.884C70.5627 27.4267 70.4294 27.2 70.1307 27.132C69.9974 27.092 69.8067 27.0787 69.6467 27.0787C69.5134 27.0787 69.4307 27.052 69.4307 26.9453C69.4307 26.8653 69.5401 26.8387 69.7547 26.8387L71.4881 26.8787L73.1281 26.8387C73.3014 26.8387 73.3947 26.8653 73.3947 26.9453C73.3947 27.052 73.3147 27.0787 73.1814 27.0787C73.0471 27.0801 72.9133 27.0935 72.7814 27.1187C72.4187 27.1853 72.3121 27.416 72.2841 27.884C72.2574 28.3133 72.2574 28.6907 72.2574 30.7307V33.0947L72.3134 36.0373C72.3534 36.3973 72.4467 36.64 72.8521 36.6933C73.0387 36.72 73.3321 36.7467 73.5347 36.7467C73.6787 36.7467 73.7481 36.7867 73.7481 36.8533C73.7481 36.9493 73.6414 36.9867 73.4921 36.9867C72.6067 36.9867 71.7587 36.9467 71.3987 36.9467L69.7054 36.9867C69.5321 36.9867 69.4361 36.9467 69.4361 36.8533C69.4361 36.7867 69.4894 36.7467 69.6494 36.7467C69.8123 36.7472 69.9747 36.7289 70.1334 36.692C70.4027 36.6387 70.4801 36.4093 70.5334 36.02C70.6001 35.456 70.6001 34.3987 70.6001 33.0933V30.7307H70.6134ZM77.6801 30.7307L77.6534 27.884C77.6267 27.4267 77.5201 27.212 77.0747 27.1187C76.9681 27.092 76.7387 27.0787 76.5494 27.0787C76.4161 27.0787 76.3227 27.052 76.3227 26.9453C76.3227 26.8387 76.4201 26.812 76.6201 26.812L78.4467 26.852L80.0841 26.812C82.5147 26.812 82.9467 28.116 82.9467 28.828C82.9467 29.928 82.3121 30.584 81.5734 31.1747C82.6734 31.552 84.0187 32.508 84.0187 34.0773C84.0187 35.5133 82.9014 37.0067 80.4187 37.0067C80.0987 37.0067 78.8774 36.924 78.4721 36.924L76.7787 36.964C76.6054 36.964 76.5121 36.924 76.5121 36.8307C76.5121 36.764 76.5654 36.724 76.7254 36.724C76.8892 36.7249 77.0525 36.7065 77.2121 36.6693C77.4787 36.616 77.5454 36.32 77.6121 35.9333C77.6787 35.3653 77.6787 34.3067 77.6787 33.0707V30.72L77.6801 30.7307ZM79.2801 30.96C79.2801 31.0667 79.3174 31.0933 79.3734 31.0933C79.4961 31.12 79.6974 31.1333 80.0054 31.1333C80.4454 31.1333 80.7414 31.08 80.9707 30.8667C81.3201 30.5813 81.5214 30.0987 81.5214 29.44C81.5214 28.544 80.9974 27.36 79.8454 27.36C79.6969 27.3538 79.5481 27.3627 79.4014 27.3867C79.3081 27.4133 79.2681 27.4667 79.2681 27.6133L79.2801 30.96ZM81.0507 32.0347C80.7841 31.8347 80.4601 31.7387 79.9374 31.7107L79.3587 31.6973C79.3054 31.6973 79.2787 31.724 79.2787 31.7907V34.9733C79.2787 35.8587 79.3161 36.0867 79.7494 36.2613C80.0636 36.3757 80.3965 36.43 80.7307 36.4213C81.3334 36.4213 82.3521 36.0987 82.3521 34.704C82.3521 33.868 82.0854 32.74 81.0494 32.0293L81.0507 32.0347ZM87.9147 30.7307L87.8854 27.884C87.8587 27.4267 87.7521 27.212 87.3081 27.1187C87.1347 27.0885 86.9587 27.0751 86.7827 27.0787C86.6387 27.0787 86.5561 27.052 86.5561 26.9453C86.5561 26.8387 86.6494 26.812 86.8521 26.812L88.6921 26.852L90.5854 26.812C91.4321 26.812 92.3187 26.8947 93.0561 27.392C93.4334 27.6587 93.9694 28.3293 93.9694 29.232C93.9694 30.2253 93.5521 31.136 92.1961 32.2387L95.1107 35.772C95.8641 36.5453 96.4147 36.6427 96.6134 36.6813C96.7627 36.708 96.8854 36.7213 96.9921 36.7213C97.0987 36.7213 97.1521 36.7613 97.1521 36.828C97.1521 36.9373 97.0561 36.9613 96.8947 36.9613H95.6187C94.8667 36.9613 94.5347 36.8947 94.1787 36.6947C93.6054 36.3853 93.0947 35.7573 92.3387 34.7213L91.0107 32.8547C90.9441 32.7747 90.8614 32.7613 90.7707 32.7613L89.6001 32.7347C89.5334 32.7347 89.4934 32.7613 89.4934 32.8413V33.0307L89.5601 35.9053C89.6001 36.3053 89.6934 36.588 90.0827 36.6413C90.3015 36.6721 90.5219 36.6903 90.7427 36.696C90.8467 36.696 90.9001 36.736 90.9001 36.8027C90.9001 36.8987 90.8067 36.936 90.6334 36.936C89.8534 36.936 88.8601 36.896 88.6561 36.896L87.0187 36.936C86.8454 36.936 86.7521 36.896 86.7521 36.8027C86.7521 36.736 86.8054 36.696 86.9654 36.696C87.1283 36.6967 87.2907 36.6783 87.4494 36.6413C87.7187 36.588 87.7854 36.292 87.8494 35.9053C87.9201 35.3373 87.9201 34.2787 87.9201 33.0427L87.9147 30.7307ZM89.4974 31.792C89.4974 31.9253 89.5241 31.992 89.6307 32.0347C89.9626 32.1302 90.3068 32.1761 90.6521 32.1707C91.1881 32.1707 91.3627 32.1147 91.6041 31.94C92.0041 31.644 92.3974 31.0267 92.3974 29.94C92.3974 28.0333 91.1361 27.4787 90.3401 27.4787C90.0067 27.4787 89.7641 27.492 89.6307 27.536C89.5374 27.5627 89.4974 27.616 89.4974 27.7227V31.8067V31.792Z" fill="black"/>
<path d="M99.3403 33.4837C99.2736 33.4837 99.247 33.5104 99.207 33.5904L98.4803 35.5103C98.347 35.8437 98.2803 36.1677 98.2803 36.329C98.2803 36.569 98.4136 36.7463 98.8163 36.7463H99.0163C99.1763 36.7463 99.2163 36.7703 99.2163 36.853C99.2163 36.9623 99.1363 36.9863 98.9896 36.9863C98.559 36.9863 97.983 36.9463 97.563 36.9463L95.979 36.9863C95.8056 36.9863 95.7123 36.9597 95.7123 36.853C95.7123 36.773 95.7656 36.7463 95.8723 36.7463C96.0122 36.744 96.1519 36.7351 96.291 36.7197C96.9083 36.637 97.163 36.181 97.431 35.5103L100.802 27.077C100.962 26.677 101.044 26.541 101.179 26.541C101.314 26.541 101.379 26.6743 101.512 26.9717L104.842 35.229C105.354 36.437 105.744 36.6237 106.023 36.693C106.227 36.733 106.426 36.7463 106.586 36.7463C106.695 36.7463 106.763 36.7597 106.763 36.853C106.763 36.9623 106.64 36.9863 106.143 36.9863C105.659 36.9863 104.68 36.9863 103.607 36.9597C103.367 36.9463 103.202 36.9464 103.202 36.8503C103.202 36.7703 103.259 36.7437 103.391 36.717C103.487 36.6903 103.578 36.5837 103.524 36.4077L102.452 33.5583C102.426 33.4917 102.383 33.465 102.319 33.465H99.323L99.3403 33.4837ZM102.082 32.813C102.148 32.813 102.162 32.773 102.148 32.733L100.938 29.4183C100.924 29.3623 100.911 29.2957 100.871 29.2957C100.831 29.2957 100.804 29.3623 100.791 29.4183L99.5536 32.7197C99.5403 32.773 99.5536 32.813 99.607 32.813H102.082ZM108.675 30.7303L108.648 27.8837C108.619 27.4263 108.512 27.2117 108.067 27.1183C107.891 27.088 107.712 27.0746 107.534 27.0783C107.4 27.0783 107.304 27.0517 107.304 26.945C107.304 26.8383 107.398 26.8117 107.6 26.8117L109.44 26.8517L111.334 26.8117C112.179 26.8117 113.078 26.8943 113.804 27.3917C114.18 27.6583 114.716 28.329 114.716 29.2317C114.716 30.225 114.316 31.1357 112.943 32.2383L115.859 35.7717C116.61 36.545 117.16 36.6423 117.359 36.681C117.492 36.7077 117.631 36.721 117.736 36.721C117.842 36.721 117.899 36.761 117.899 36.8277C117.899 36.937 117.806 36.961 117.64 36.961H116.367C115.615 36.961 115.28 36.8943 114.93 36.6943C114.356 36.385 113.843 35.757 113.092 34.721L111.759 32.8544C111.696 32.7744 111.626 32.761 111.522 32.761L110.354 32.7343C110.284 32.7343 110.247 32.761 110.247 32.841V33.0303L110.314 35.905C110.356 36.305 110.436 36.5877 110.836 36.641C111.056 36.6716 111.276 36.6899 111.498 36.6957C111.604 36.6957 111.658 36.7357 111.658 36.8023C111.658 36.8983 111.562 36.9357 111.388 36.9357C110.611 36.9357 109.615 36.8957 109.415 36.8957L107.775 36.9357C107.602 36.9357 107.508 36.8957 107.508 36.8023C107.508 36.7357 107.562 36.6957 107.724 36.6957C107.887 36.6961 108.049 36.6778 108.207 36.641C108.471 36.5877 108.54 36.2917 108.598 35.905C108.664 35.337 108.664 34.2783 108.664 33.0423L108.675 30.7303ZM110.258 31.7917C110.258 31.925 110.284 31.9917 110.391 32.0343C110.658 32.1277 111.075 32.1703 111.411 32.1703C111.95 32.1703 112.123 32.1143 112.364 31.9397C112.767 31.6437 113.156 31.0263 113.156 29.9397C113.156 28.033 111.894 27.4783 111.103 27.4783C110.766 27.4783 110.524 27.4917 110.39 27.5357C110.294 27.5623 110.256 27.6157 110.256 27.7223L110.258 31.7917ZM120.8 33.525C120.8 32.7997 120.663 32.5063 120.49 32.1117C119.731 30.8048 118.943 29.5156 118.126 28.245C117.792 27.749 117.454 27.4143 117.198 27.2677C117.027 27.1743 116.795 27.0917 116.635 27.0917C116.528 27.0917 116.431 27.065 116.431 26.9583C116.431 26.8783 116.527 26.825 116.688 26.825L118.382 26.865L119.819 26.825C119.952 26.825 120.019 26.865 120.019 26.9583C120.019 27.0517 119.926 27.0517 119.726 27.0917C119.592 27.1183 119.539 27.225 119.539 27.3317C119.539 27.4383 119.606 27.6023 119.702 27.789C119.886 28.193 121.768 31.429 121.968 31.789C122.102 31.4663 123.795 28.513 123.986 28.0983C124.116 27.801 124.17 27.5743 124.17 27.3983C124.17 27.2623 124.116 27.1317 123.887 27.0623C123.754 27.0357 123.647 27.009 123.647 26.929C123.647 26.8357 123.714 26.7957 123.874 26.7957L125.138 26.8357L126.575 26.7957C126.708 26.7957 126.815 26.8223 126.815 26.9023C126.815 26.9957 126.706 27.0357 126.559 27.0357C126.426 27.0357 126.159 27.089 125.968 27.1957C125.702 27.3317 125.538 27.4943 125.246 27.8557C124.806 28.3917 122.926 31.549 122.682 32.1263C122.478 32.609 122.478 33.0277 122.478 33.4677V34.569L122.518 35.9023C122.544 36.3023 122.668 36.585 123.068 36.6383C123.291 36.6706 123.515 36.6889 123.74 36.693C123.874 36.693 123.956 36.733 123.956 36.7997C123.956 36.8957 123.85 36.933 123.674 36.933C122.834 36.933 121.983 36.893 121.62 36.893L119.943 36.933C119.756 36.933 119.647 36.9063 119.647 36.7997C119.647 36.733 119.714 36.693 119.863 36.693C120.021 36.6926 120.178 36.6742 120.332 36.6383C120.599 36.585 120.724 36.289 120.732 35.9023L120.775 34.569V33.4663L120.8 33.525ZM129.915 31.929C129.915 29.6317 131.435 26.6623 135.462 26.6623C138.806 26.6623 140.884 28.609 140.884 31.685C140.884 34.761 138.751 37.189 135.328 37.189C131.472 37.189 129.915 34.3023 129.915 31.9277V31.929ZM139.008 32.1957C139.008 29.185 137.275 27.3157 135.075 27.3157C133.528 27.3157 131.771 28.1757 131.771 31.521C131.771 34.3144 133.315 36.529 135.904 36.529C136.843 36.529 139.02 36.0757 139.02 32.1957H139.008ZM145.974 33.1063L146.043 35.969C146.083 36.369 146.16 36.6517 146.576 36.705C146.799 36.7372 147.024 36.7554 147.25 36.7597C147.426 36.7597 147.48 36.7997 147.48 36.8663C147.48 36.9623 147.384 36.9997 147.182 36.9997C146.335 36.9997 145.492 36.9597 145.142 36.9597L143.435 36.9997C143.248 36.9997 143.168 36.973 143.168 36.8663C143.168 36.7997 143.222 36.7597 143.368 36.7597C143.531 36.7602 143.694 36.7419 143.852 36.705C144.119 36.6517 144.188 36.3557 144.242 35.969C144.308 35.401 144.308 34.3957 144.308 33.1063V30.7423L144.282 27.8957C144.255 27.4383 144.148 27.2237 143.704 27.1303C143.528 27.1003 143.35 27.0869 143.171 27.0903C143.034 27.0903 142.939 27.0637 142.939 26.9837C142.939 26.877 143.048 26.8477 143.25 26.8477L145.183 26.8877L148.73 26.8743C148.996 26.861 149.13 26.861 149.263 26.8183C149.343 26.7917 149.412 26.741 149.482 26.741C149.535 26.741 149.572 26.7943 149.572 26.8743C149.572 26.9677 149.506 27.141 149.466 27.4783C149.45 27.6117 149.423 28.405 149.399 28.565C149.383 28.6717 149.362 28.7543 149.266 28.7543C149.17 28.7543 149.132 28.6837 149.132 28.5383C149.132 28.4317 149.132 28.2157 149.052 28.029C148.959 27.8383 148.675 27.629 148.168 27.6263L146.098 27.5837C146.018 27.5837 145.964 27.6263 145.964 27.773V31.1303C145.964 31.2103 145.978 31.2637 146.058 31.2637L147.775 31.2503L148.378 31.2343C148.634 31.221 148.824 31.1677 148.956 30.9943C149.027 30.9143 149.052 30.861 149.13 30.861C149.186 30.861 149.214 30.901 149.214 30.9943C149.214 31.0877 149.144 31.4103 149.102 31.8237L149.051 32.8077C149.051 32.941 149.051 33.0743 148.918 33.0743C148.838 33.0743 148.811 32.981 148.811 32.885C148.804 32.7441 148.777 32.6049 148.731 32.4717C148.66 32.281 148.46 32.041 148.044 31.9877C147.711 31.9477 146.284 31.9477 146.044 31.9477C145.978 31.9477 145.951 31.977 145.951 32.081V33.169L145.974 33.1063ZM62.2216 49.9797C60.907 48.8264 60.5576 47.321 60.5576 46.0197C60.5576 45.105 60.8403 43.521 62.131 42.3397C63.095 41.4557 64.3736 40.913 66.371 40.913C67.0232 40.9093 67.6748 40.9548 68.3203 41.049L69.663 41.2757C69.7963 41.289 69.8656 41.3557 69.8656 41.4383C69.8656 41.545 69.8256 41.7077 69.799 42.1784L69.759 43.6277C69.7456 43.8277 69.719 43.9383 69.599 43.9383C69.4923 43.9383 69.463 43.829 69.463 43.641C69.443 43.1789 69.257 42.7395 68.939 42.4037C68.495 41.937 67.4496 41.5743 66.215 41.5743C65.0416 41.5743 64.2816 41.8703 63.6896 42.4037C62.7123 43.305 62.455 44.5837 62.455 45.8864C62.4536 49.0664 64.883 50.6663 66.667 50.6663C67.8616 50.6663 68.587 50.533 69.123 49.9144C69.3396 49.6559 69.4963 49.3526 69.5816 49.0264C69.6216 48.813 69.6483 48.757 69.7576 48.757C69.851 48.757 69.8736 48.853 69.8736 48.957C69.8736 49.1197 69.7136 50.2903 69.5803 50.7437C69.5658 50.8356 69.525 50.9213 69.4628 50.9904C69.4005 51.0595 69.3195 51.1091 69.2296 51.133C68.6923 51.3503 67.6736 51.4437 66.8123 51.4437C64.9723 51.4437 63.4283 51.0437 62.2056 49.9797H62.2216ZM72.307 46.1797C72.307 43.8797 73.8243 40.913 77.8536 40.913C81.1963 40.913 83.2776 42.8597 83.2776 45.9424C83.2776 49.009 81.1443 51.4437 77.7203 51.4437C73.8643 51.4437 72.307 48.5557 72.307 46.1824V46.1797ZM81.3976 46.4463C81.3976 43.4397 79.6643 41.5717 77.4643 41.5717C75.9176 41.5717 74.1576 42.4303 74.1576 45.777C74.1576 48.569 75.7043 50.7877 78.2816 50.7877C79.2216 50.7877 81.3963 50.329 81.3963 46.4463H81.3976ZM87.915 49.4424C87.9456 50.4877 88.115 50.837 88.3856 50.9357C88.6123 51.0157 88.8696 51.029 89.0856 51.029C89.219 51.029 89.3123 51.0557 89.3123 51.1357C89.3123 51.2424 89.187 51.269 89.003 51.269C88.1296 51.269 87.5923 51.229 87.3363 51.229L85.8696 51.269C85.6963 51.269 85.5736 51.2557 85.5736 51.1357C85.5736 51.0557 85.6536 51.029 85.7869 51.029C85.9902 51.0329 86.1932 51.011 86.391 50.9637C86.743 50.857 86.791 50.465 86.807 49.297L86.9336 41.333C86.9336 41.0663 86.9736 40.8743 87.107 40.8743C87.2403 40.8743 87.3776 41.0503 87.6056 41.293L94.723 48.6663H94.7896L94.6563 42.6357C94.639 41.8183 94.523 41.561 94.199 41.4263C93.999 41.349 93.6736 41.349 93.4883 41.349C93.3283 41.349 93.271 41.309 93.271 41.225C93.271 41.1157 93.4043 41.0917 93.6203 41.0917L95.247 41.1317L96.5616 41.0917C96.735 41.0917 96.8683 41.101 96.8683 41.225C96.8683 41.305 96.7883 41.349 96.6256 41.349C96.4923 41.349 96.3856 41.349 96.2256 41.389C95.8523 41.4957 95.743 41.789 95.7283 42.529L95.579 51.0037C95.579 51.297 95.5283 51.4037 95.4056 51.4037C95.255 51.4037 95.0923 51.2704 94.9483 51.1077L90.9843 47.161L87.7896 43.7744H87.7496L87.915 49.4424ZM108.974 50.3557C108.974 50.7183 108.96 50.7557 108.796 50.841C107.923 51.2983 106.607 51.445 105.562 51.445C102.271 51.445 99.359 49.889 99.359 46.1837C99.359 44.033 100.471 42.5303 101.692 41.7903C102.98 41.013 104.172 40.9157 105.303 40.9157C106.1 40.9292 106.895 41.0018 107.682 41.133C108.031 41.2059 108.385 41.2549 108.742 41.2797C108.904 41.293 108.928 41.3504 108.928 41.4424C108.928 41.5757 108.835 41.9663 108.835 43.6423C108.835 43.8583 108.792 43.909 108.702 43.909C108.611 43.909 108.578 43.8423 108.568 43.7357C108.526 43.4237 108.458 42.9984 108.112 42.6197C107.708 42.193 106.646 41.573 105.116 41.573C104.378 41.573 103.383 41.6263 102.455 42.4037C101.704 43.037 101.22 44.0437 101.22 45.693C101.22 48.581 103.063 50.7437 105.896 50.7437C106.243 50.7437 106.712 50.7437 107.038 50.6103C107.238 50.517 107.304 50.3397 107.304 50.1117V48.8517L107.291 47.2517C107.278 46.7983 107.158 46.5797 106.714 46.4837C106.54 46.4551 106.365 46.4421 106.19 46.445C106.056 46.445 105.987 46.4184 105.987 46.3384C105.987 46.2317 106.086 46.2024 106.271 46.2024L108.218 46.2423L109.788 46.2024C109.964 46.2024 110.058 46.2317 110.058 46.3384C110.058 46.4184 109.978 46.445 109.882 46.445C109.775 46.445 109.682 46.4583 109.522 46.485C109.156 46.5557 109.022 46.785 109.008 47.253L108.998 48.8623V50.3397L108.974 50.3557ZM113.726 44.9997L113.699 42.149C113.672 41.693 113.566 41.4797 113.122 41.385C113.015 41.3583 112.786 41.345 112.596 41.345C112.463 41.345 112.37 41.3144 112.37 41.221C112.37 41.1277 112.463 41.0877 112.663 41.0877L114.503 41.1277L116.396 41.0877C117.242 41.0877 118.13 41.1704 118.863 41.665C119.24 41.921 119.778 42.6064 119.778 43.505C119.778 44.4984 119.378 45.4117 118.004 46.5144L120.92 50.0437C121.672 50.825 122.224 50.917 122.427 50.9584C122.55 50.9837 122.676 50.9971 122.802 50.9984C122.911 50.9984 122.962 51.0383 122.962 51.105C122.962 51.2117 122.871 51.2383 122.695 51.2383H121.419C120.667 51.2383 120.332 51.1717 119.983 50.9717C119.403 50.6597 118.895 50.029 118.143 48.9957L116.815 47.129C116.748 47.049 116.664 47.033 116.571 47.033L115.406 47.009C115.336 47.009 115.296 47.033 115.296 47.113V47.2997L115.363 50.177C115.403 50.5677 115.487 50.861 115.887 50.9157L116.544 50.969C116.651 50.969 116.704 51.009 116.704 51.0757C116.704 51.169 116.611 51.209 116.438 51.209C115.658 51.209 114.664 51.169 114.464 51.169L112.827 51.209C112.654 51.209 112.56 51.169 112.56 51.0757C112.56 51.009 112.614 50.969 112.774 50.969C112.936 50.969 113.099 50.9511 113.258 50.9157C113.527 50.8597 113.594 50.5663 113.648 50.177C113.715 49.6103 113.715 48.5503 113.715 47.3157V44.9557L113.726 44.9997ZM115.308 46.0583C115.308 46.1917 115.335 46.2583 115.434 46.2983C115.708 46.3917 116.1 46.4317 116.45 46.4317C116.988 46.4317 117.16 46.3783 117.404 46.205C117.804 45.9117 118.195 45.2917 118.195 44.205C118.195 42.301 116.931 41.7517 116.142 41.7517C115.804 41.7517 115.563 41.765 115.432 41.8023C115.334 41.8317 115.307 41.885 115.307 41.9943L115.308 46.0583ZM125.138 44.9997L125.111 42.149C125.084 41.693 124.978 41.4797 124.534 41.385C124.427 41.3583 124.198 41.345 124.01 41.345C123.876 41.345 123.78 41.3144 123.78 41.221C123.78 41.1277 123.874 41.0877 124.076 41.0877L126.012 41.1277L129.368 41.1117L129.946 41.0317C130.012 41.0183 130.079 40.981 130.159 40.981C130.239 40.981 130.239 41.0317 130.239 41.097C130.239 41.1943 130.17 41.353 130.128 41.9717L130.064 42.8584C130.051 42.9277 130.022 42.9917 129.928 42.9917C129.835 42.9917 129.804 42.925 129.804 42.805C129.804 42.7117 129.791 42.4823 129.724 42.325C129.631 42.081 129.495 41.921 128.823 41.8423C128.596 41.8157 127.186 41.789 126.916 41.789C126.85 41.789 126.823 41.829 126.823 41.9223V45.3183C126.823 45.4117 126.836 45.4704 126.916 45.4704L129.05 45.441C129.372 45.4144 129.575 45.3743 129.695 45.241C129.788 45.1343 129.844 45.0677 129.911 45.0677C129.964 45.0677 130.004 45.0943 130.004 45.177C130.004 45.2597 129.938 45.473 129.898 46.157L129.844 47.053C129.844 47.1623 129.844 47.3117 129.722 47.3117C129.628 47.3117 129.588 47.2557 129.588 47.1783C129.575 47.0397 129.575 46.8664 129.535 46.6917C129.468 46.425 129.279 46.2223 128.784 46.1677C128.148 46.1417 127.512 46.1283 126.875 46.1277C126.808 46.1277 126.795 46.1783 126.795 46.261V49.405C126.822 50.3317 127.035 50.5317 128.395 50.5317C128.742 50.5317 129.302 50.5317 129.656 50.369C130.003 50.209 130.163 49.929 130.256 49.3757C130.283 49.2424 130.312 49.1757 130.406 49.1757C130.512 49.1757 130.512 49.2824 130.512 49.4157C130.49 49.917 130.431 50.416 130.338 50.909C130.244 51.2557 130.122 51.2557 129.612 51.2557C127.586 51.2557 126.686 51.1757 125.879 51.1757L124.186 51.2157C124.012 51.2157 123.916 51.1757 123.916 51.0823C123.916 51.0157 123.97 50.9757 124.13 50.9757C124.292 50.9758 124.455 50.9583 124.614 50.9237C124.878 50.8677 124.947 50.5744 125.004 50.185C125.068 49.6183 125.068 48.5583 125.068 47.3237L125.138 44.9997ZM134.16 51.093C133.947 51.0023 133.894 50.933 133.894 50.6397L133.96 48.8797C133.974 48.6797 134.014 48.533 134.123 48.533C134.246 48.533 134.256 48.6663 134.256 48.7597C134.267 48.9925 134.307 49.2231 134.374 49.4463C134.667 50.4383 135.463 50.8037 136.298 50.8037C137.503 50.8037 138.094 49.981 138.094 49.2703C138.094 48.6117 137.896 47.981 136.78 47.121L136.162 46.641C134.695 45.4837 134.162 44.5477 134.162 43.457C134.162 41.9837 135.395 40.917 137.262 40.917C137.865 40.9092 138.467 40.9878 139.048 41.1504C139.182 41.1744 139.235 41.217 139.235 41.3103C139.235 41.4863 139.179 41.8757 139.179 42.921C139.179 43.2184 139.139 43.3237 139.046 43.3237C138.952 43.3237 138.912 43.2437 138.912 43.081C138.912 42.9477 138.846 42.5477 138.563 42.1957C138.363 41.929 137.974 41.529 137.102 41.529C136.106 41.529 135.502 42.1023 135.502 42.9103C135.502 43.5303 135.812 43.997 136.926 44.8463L137.299 45.129C138.899 46.3743 139.504 47.2623 139.504 48.5503C139.512 49.0157 139.4 49.4754 139.179 49.8848C138.957 50.2942 138.634 50.6397 138.24 50.8877C137.57 51.317 136.819 51.4383 136.107 51.4383C135.328 51.4383 134.723 51.345 134.147 51.0877L134.16 51.093ZM143.254 51.093C143.034 51.0023 142.987 50.933 142.987 50.6397L143.051 48.8797C143.064 48.6797 143.104 48.533 143.211 48.533C143.334 48.533 143.344 48.6663 143.344 48.7597C143.355 48.9939 143.4 49.2253 143.478 49.4463C143.774 50.4383 144.568 50.8037 145.398 50.8037C146.608 50.8037 147.2 49.981 147.2 49.2703C147.2 48.6117 146.996 47.981 145.867 47.121L145.251 46.641C143.775 45.4837 143.251 44.5477 143.251 43.457C143.251 41.9837 144.482 40.917 146.354 40.917C146.957 40.9092 147.559 40.9878 148.14 41.1504C148.274 41.1744 148.327 41.217 148.327 41.3103C148.327 41.4863 148.274 41.8757 148.274 42.921C148.274 43.2184 148.234 43.3237 148.14 43.3237C148.047 43.3237 148.007 43.2437 148.007 43.081C148.007 42.9477 147.938 42.5477 147.658 42.1957C147.458 41.929 147.066 41.529 146.195 41.529C145.202 41.529 144.595 42.1023 144.595 42.9103C144.595 43.5303 144.902 43.997 146.019 44.8463L146.395 45.129C147.995 46.3743 148.595 47.2623 148.595 48.5503C148.595 49.329 148.302 50.257 147.332 50.8877C146.662 51.317 145.91 51.4383 145.199 51.4383C144.419 51.4383 143.812 51.345 143.239 51.0877L143.254 51.093Z" fill="black"/>
<path d="M48.9149 33.0904C46.7869 33.0904 44.5643 32.3837 44.5643 32.3837C44.5643 32.3837 41.3936 31.4011 39.0763 31.4011C35.5896 31.4011 33.2043 34.2784 33.2043 34.2784V31.9451C33.2043 31.9451 35.4896 29.2411 39.0709 29.2411C40.3696 29.2411 42.0309 29.3117 44.7856 30.1451C47.5403 30.9784 48.9776 30.8744 48.9776 30.8744C52.1029 30.8744 55.1483 29.8038 55.9816 29.4878V26.2878C55.0923 26.5678 51.7309 27.5718 48.9176 27.5718C46.7896 27.5718 44.5669 26.8651 44.5669 26.8651C44.5669 26.8651 41.3963 25.8824 39.0789 25.8824C35.5923 25.8824 33.2069 28.7584 33.2069 28.7584V26.4251C33.2069 26.4251 35.4923 23.7211 39.0736 23.7211C40.3723 23.7211 42.0336 23.7918 44.7883 24.6251C47.5429 25.4584 48.9803 25.3544 48.9803 25.3544C52.1056 25.3544 55.1509 24.2824 55.9843 23.9651V20.4291C55.9843 20.4291 52.1789 21.9958 48.8683 21.9958C45.5576 21.9958 43.5376 20.4131 39.8323 20.4131C36.1269 20.4131 33.2123 22.9171 33.2123 22.9171C33.2123 22.9171 30.2976 20.4131 26.5896 20.4131C22.8816 20.4131 20.8643 21.9958 17.5536 21.9958C14.2429 21.9958 10.4336 20.4291 10.4336 20.4291V57.1331C10.4336 57.1331 13.8763 58.5704 17.3203 58.5704C20.1003 58.5704 23.7003 56.5464 26.2109 56.7091C28.4469 56.8424 29.7669 57.8784 30.7709 59.1624C30.8424 59.2815 30.941 59.382 31.0587 59.4557C31.1764 59.5294 31.3099 59.5742 31.4483 59.5864H34.9776C34.9776 59.5864 35.4283 59.5637 35.6576 59.1624C36.6603 57.8784 37.9776 56.8557 40.2149 56.7091C42.7256 56.5491 45.9216 58.5357 49.1083 58.5704C52.6496 58.6104 55.9923 57.1331 55.9923 57.1331V53.8931C55.1029 54.1757 51.7416 55.1771 48.9283 55.1771C46.8003 55.1771 44.5776 54.4704 44.5776 54.4704C44.5776 54.4704 41.4069 53.4877 39.0896 53.4877C35.6029 53.4877 33.2176 56.3637 33.2176 56.3637V54.0304C33.2176 54.0304 35.5029 51.3264 39.0843 51.3264C40.3829 51.3264 42.0443 51.3971 44.7989 52.2304C47.5536 53.0637 48.9909 52.9597 48.9909 52.9597C52.1163 52.9597 55.1616 51.8891 55.9949 51.5704V48.3704C55.1056 48.6531 51.7443 49.6544 48.9309 49.6544C46.8029 49.6544 44.5803 48.9477 44.5803 48.9477C44.5803 48.9477 41.4096 47.9651 39.0923 47.9651C35.6056 47.9651 33.2203 50.8411 33.2203 50.8411V48.5077C33.2203 48.5077 35.5056 45.8037 39.0869 45.8037C40.3856 45.8037 42.0469 45.8744 44.8016 46.7077C47.5563 47.5411 48.9936 47.4384 48.9936 47.4384C52.1189 47.4384 55.1643 46.3677 55.9976 46.0491V42.8491C55.1083 43.1317 51.7469 44.1331 48.9336 44.1331C46.8056 44.1331 44.5829 43.4264 44.5829 43.4264C44.5829 43.4264 41.4123 42.4437 39.0949 42.4437C35.6083 42.4437 33.2229 45.3197 33.2229 45.3197V42.9864C33.2229 42.9864 35.5083 40.2824 39.0896 40.2824C40.3883 40.2824 42.0496 40.3531 44.8043 41.1864C47.5589 42.0197 48.9963 41.9157 48.9963 41.9157C52.1216 41.9157 55.1669 40.8451 56.0003 40.5264V37.3264C55.1109 37.6064 51.7496 38.6104 48.9363 38.6104C46.8083 38.6104 44.5856 37.9037 44.5856 37.9037C44.5856 37.9037 41.4149 36.9211 39.0976 36.9211C35.6109 36.9211 33.2256 39.7971 33.2256 39.7971V37.4664C33.2256 37.4664 35.5109 34.7624 39.0923 34.7624C40.3909 34.7624 42.0523 34.8331 44.8069 35.6664C47.5616 36.4998 48.9989 36.3971 48.9989 36.3971C52.1243 36.3971 55.1696 35.3251 56.0029 35.0078V31.8078C55.1163 32.0904 51.7549 33.0918 48.9416 33.0918L48.9149 33.0904Z" fill="#0069AA"/>
</svg>
