<svg width="160" height="80" viewBox="0 0 160 80" fill="none" xmlns="http://www.w3.org/2000/svg">
<path d="M34.5928 40.2098C34.5928 40.2098 38.2198 29.6028 50.1325 28.3293C67.7355 26.4433 68.5737 23.6223 70.0245 19.5439C68.5254 29.8285 62.0935 34.0036 47.5533 35.3577C35.7051 36.4699 34.5928 40.2098 34.5928 40.2098Z" fill="#9FC666"/>
<path d="M32.7715 48.1569C32.7715 48.1569 32.304 40.5966 43.2011 39.7262C55.8553 38.7106 60.0788 37.0986 61.997 34.8418C60.6107 42.0152 55.6619 46.2709 45.2484 45.8195C33.4163 45.2876 32.7715 48.1569 32.7715 48.1569Z" fill="#77B0B4"/>
<path d="M51.4706 48.8823C48.8592 50.2525 44.6518 49.3014 40.38 49.4465C34.1255 49.6561 34.1738 51.4776 34.1738 51.4776C34.1738 51.4776 39.4773 61.1496 51.4706 48.8823Z" fill="#77B0B4"/>
<path d="M11.2676 36.7281V33.0688H29.8862L18.4733 51.4456H29.8056V55.121H11.1387L22.5516 36.7442H11.2676V36.7281Z" fill="#579295"/>
<path d="M85.2908 40.4357C85.2908 44.4657 81.164 47.7703 76.1185 47.7703H70.5893V55.1049H65.9951V33.0688H76.1185C81.1479 33.0688 85.2908 36.3734 85.2908 40.4357ZM80.6966 40.4357C80.6966 38.3884 78.6332 36.7281 76.1024 36.7281H70.5732V44.0949H76.1024C78.6332 44.111 80.6966 42.4507 80.6966 40.4357Z" fill="#579295"/>
<path d="M101.878 41.1611V33.0688H106.504V55.121H101.878V44.8364H92.7055V55.121H88.1113V33.0688H92.7055V41.1611H101.878Z" fill="#579295"/>
<path d="M108.891 33.0688H114.178L120.384 42.1283L126.59 33.0688H131.878L122.657 46.2872V55.121H118.063V46.2872L108.891 33.0688Z" fill="#579295"/>
<path d="M154.414 55.121H148.788L142.179 47.7864H138.793V55.121H134.199V33.0688H142.92C147.966 33.0688 152.092 36.3734 152.092 40.4357C152.092 43.2406 150.11 45.7553 147.095 46.9482L154.414 55.121ZM147.514 40.4357C147.514 38.3884 145.451 36.7281 142.92 36.7281H138.793V44.0949H142.92C145.435 44.111 147.514 42.4507 147.514 40.4357Z" fill="#579295"/>
</svg>
