<svg width="13" height="13" viewBox="0 0 13 13" fill="none" xmlns="http://www.w3.org/2000/svg">
<path d="M10.3529 10.9137H11.2603C11.2823 10.9139 11.304 10.9096 11.3243 10.9011C11.3446 10.8926 11.363 10.8801 11.3785 10.8643C11.394 10.8485 11.4063 10.8296 11.4146 10.8089C11.4229 10.7882 11.4271 10.766 11.4269 10.7436V8.62799C11.4271 8.60561 11.4229 8.58341 11.4146 8.5627C11.4063 8.54198 11.394 8.52316 11.3785 8.50733C11.363 8.4915 11.3446 8.47898 11.3243 8.4705C11.304 8.46202 11.2823 8.45774 11.2603 8.45793H10.3529C10.3087 8.45793 10.2663 8.47584 10.2351 8.50774C10.2038 8.53963 10.1863 8.58289 10.1863 8.62799V10.7436C10.1863 10.7887 10.2038 10.832 10.2351 10.8639C10.2663 10.8958 10.3087 10.9137 10.3529 10.9137ZM10.5194 8.79806H11.0991V10.5668H10.5194V8.79806ZM2.8397 8.45793H1.93221C1.90984 8.457 1.88752 8.46073 1.86661 8.46888C1.8457 8.47703 1.82662 8.48943 1.81055 8.50534C1.79447 8.52124 1.78173 8.54031 1.77309 8.5614C1.76445 8.58248 1.7601 8.60514 1.7603 8.62799V10.7436C1.7601 10.7665 1.76445 10.7891 1.77309 10.8102C1.78173 10.8313 1.79447 10.8504 1.81055 10.8663C1.82662 10.8822 1.8457 10.8946 1.86661 10.9027C1.88752 10.9109 1.90984 10.9146 1.93221 10.9137H2.84503C2.88921 10.9137 2.93158 10.8958 2.96282 10.8639C2.99406 10.832 3.01161 10.7887 3.01161 10.7436V8.62799C3.01162 8.60519 3.00714 8.58263 2.99844 8.56163C2.98973 8.54063 2.97699 8.52164 2.96095 8.50577C2.94491 8.48991 2.92591 8.47749 2.90508 8.46927C2.88426 8.46106 2.86202 8.4572 2.8397 8.45793ZM2.67313 10.5736H2.09345V8.80486H2.67313V10.5736ZM12.433 2.92324H7.75163C7.74232 2.92247 7.73296 2.92247 7.72365 2.92324L6.76951 2.45794V2.04977H7.92887C7.97305 2.04977 8.01542 2.03186 8.04666 1.99996C8.07789 1.96807 8.09544 1.92481 8.09544 1.87971V0.962701C8.09544 0.917596 8.07789 0.874339 8.04666 0.842445C8.01542 0.810551 7.97305 0.792633 7.92887 0.792633H6.76951V0.764062C6.76951 0.718957 6.75197 0.6757 6.72073 0.643806C6.68949 0.611912 6.64712 0.593994 6.60294 0.593994C6.55876 0.593994 6.51639 0.611912 6.48516 0.643806C6.45392 0.6757 6.43637 0.718957 6.43637 0.764062V2.45522L5.51821 2.94365C5.49439 2.9307 5.4679 2.92371 5.44092 2.92324H0.766189C0.744264 2.92306 0.722524 2.92734 0.702234 2.93582C0.681944 2.9443 0.663511 2.95682 0.648007 2.97265C0.632504 2.98848 0.620241 3.0073 0.611933 3.02801C0.603625 3.04873 0.599437 3.07093 0.599615 3.09331V4.00215C0.599615 4.04726 0.617164 4.09051 0.648403 4.12241C0.679642 4.1543 0.722011 4.17222 0.766189 4.17222H0.934095V11.5382H0.768854C0.746756 11.5378 0.724808 11.542 0.70429 11.5503C0.683772 11.5587 0.665093 11.5712 0.649342 11.587C0.63359 11.6029 0.621082 11.6217 0.612545 11.6425C0.604007 11.6634 0.599612 11.6857 0.599615 11.7083V12.4239C0.599615 12.469 0.617164 12.5123 0.648403 12.5442C0.679642 12.5761 0.722011 12.594 0.766189 12.594H12.4237C12.4458 12.5943 12.4677 12.5902 12.4883 12.5818C12.5088 12.5734 12.5275 12.561 12.5432 12.5451C12.559 12.5293 12.5715 12.5104 12.58 12.4896C12.5885 12.4688 12.5929 12.4465 12.5929 12.4239V11.7083C12.5929 11.6632 12.5754 11.6199 12.5442 11.588C12.5129 11.5561 12.4705 11.5382 12.4264 11.5382H12.2585V4.17086H12.433C12.477 4.17086 12.5191 4.15313 12.5503 4.12153C12.5815 4.08993 12.5993 4.04702 12.5996 4.00215V3.09331C12.5998 3.07093 12.5956 3.04873 12.5873 3.02801C12.579 3.0073 12.5667 2.98848 12.5512 2.97265C12.5357 2.95682 12.5173 2.9443 12.497 2.93582C12.4767 2.92734 12.455 2.92306 12.433 2.92324ZM5.69145 11.5382V8.69466H6.54031V11.5382H5.69145ZM6.87346 8.69466H7.72232V11.5382H6.87346V8.69466ZM7.88889 8.35588H5.5302C5.48603 8.35588 5.44366 8.3738 5.41242 8.4057C5.38118 8.43759 5.36363 8.48085 5.36363 8.52595V11.5382H4.01105V5.12188H9.40272V11.5382H8.06213V8.52459C8.06197 8.50179 8.05732 8.47925 8.04845 8.45832C8.03959 8.43739 8.02669 8.41849 8.01053 8.40275C7.99437 8.38701 7.97527 8.37475 7.95437 8.3667C7.93348 8.35865 7.91121 8.35497 7.88889 8.35588ZM9.32942 4.09739C9.34722 4.12522 9.37274 4.14701 9.40272 4.15997V4.7831H4.01105V4.13004L6.59628 2.75181L9.32942 4.09739ZM7.76763 1.13277V1.70964H6.76951V1.13277H7.76763ZM0.932763 3.26338H4.91854L3.80716 3.85385C3.78339 3.83925 3.75628 3.83128 3.72854 3.83072H0.932763V3.26338ZM1.26591 4.17086H3.6779V11.5382H1.26591V4.17086ZM12.2571 12.2538H0.930098V11.8783H12.2571V12.2538ZM11.9266 11.5382H9.73586V4.17086H11.9266V11.5382ZM12.2678 3.83072H9.55596L8.40327 3.26338H12.2678V3.83072ZM10.3529 7.53956H11.2603C11.2823 7.53974 11.304 7.53547 11.3243 7.52698C11.3446 7.5185 11.363 7.50598 11.3785 7.49015C11.394 7.47432 11.4063 7.4555 11.4146 7.43479C11.4229 7.41407 11.4271 7.39188 11.4269 7.36949V5.25657C11.4262 5.21206 11.4083 5.16964 11.3771 5.13855C11.3459 5.10746 11.3039 5.09022 11.2603 5.09058H10.3529C10.3087 5.09058 10.2663 5.1085 10.2351 5.1404C10.2038 5.17229 10.1863 5.21555 10.1863 5.26065V7.37221C10.187 7.41684 10.2048 7.45941 10.236 7.49071C10.2672 7.52202 10.3091 7.53957 10.3529 7.53956ZM10.5194 5.42392H11.0991V7.20215H10.5194V5.42392ZM2.8397 5.09058H1.93221C1.91028 5.0904 1.88854 5.09468 1.86825 5.10316C1.84796 5.11164 1.82953 5.12416 1.81403 5.13999C1.79852 5.15582 1.78626 5.17464 1.77795 5.19536C1.76964 5.21607 1.76546 5.23827 1.76563 5.26065V7.37221C1.76581 7.39437 1.77025 7.41627 1.77872 7.43667C1.78719 7.45707 1.7995 7.47557 1.81497 7.49111C1.83044 7.50665 1.84875 7.51893 1.86887 7.52724C1.88898 7.53555 1.91051 7.53974 1.93221 7.53956H2.84503C2.88921 7.53956 2.93158 7.52164 2.96282 7.48975C2.99406 7.45785 3.01161 7.4146 3.01161 7.36949V5.25657C3.01109 5.23412 3.00622 5.21199 2.99728 5.19147C2.98835 5.17095 2.97552 5.15243 2.95953 5.137C2.94355 5.12157 2.92473 5.10952 2.90417 5.10156C2.8836 5.09359 2.86169 5.08986 2.8397 5.09058ZM2.67313 7.20215H2.09345V5.42664H2.67313V7.20215ZM5.902 3.81984C5.902 3.96138 5.94311 4.09974 6.02013 4.21743C6.09715 4.33512 6.20662 4.42684 6.3347 4.48101C6.46278 4.53517 6.60372 4.54935 6.73969 4.52173C6.87566 4.49412 7.00055 4.42596 7.09858 4.32588C7.19661 4.22579 7.26337 4.09828 7.29042 3.95945C7.31746 3.82063 7.30358 3.67674 7.25053 3.54597C7.19748 3.41521 7.10763 3.30344 6.99236 3.2248C6.87709 3.14617 6.74157 3.10419 6.60294 3.10419C6.41715 3.10455 6.23906 3.18007 6.10769 3.3142C5.97631 3.44833 5.90235 3.63015 5.902 3.81984ZM6.60294 3.44433C6.67568 3.44433 6.74679 3.46635 6.80728 3.50761C6.86776 3.54888 6.9149 3.60752 6.94274 3.67614C6.97058 3.74475 6.97786 3.82026 6.96367 3.8931C6.94948 3.96594 6.91445 4.03285 6.86301 4.08536C6.81157 4.13788 6.74604 4.17364 6.67469 4.18813C6.60335 4.20262 6.5294 4.19519 6.46219 4.16676C6.39499 4.13834 6.33754 4.09021 6.29713 4.02846C6.25672 3.96671 6.23515 3.89411 6.23515 3.81984C6.2355 3.72036 6.27436 3.62505 6.34326 3.55471C6.41216 3.48437 6.5055 3.44469 6.60294 3.44433ZM7.6317 5.79807H5.83137C5.80938 5.79789 5.78758 5.80215 5.76722 5.81062C5.74685 5.81909 5.72833 5.83158 5.71272 5.84739C5.69711 5.8632 5.68472 5.88201 5.67627 5.90274C5.66782 5.92346 5.66346 5.94569 5.66346 5.96813V7.81167C5.66346 7.85677 5.68101 7.90003 5.71225 7.93192C5.74349 7.96382 5.78586 7.98174 5.83004 7.98174H7.6317C7.67542 7.98102 7.7171 7.96279 7.74777 7.93097C7.77843 7.89916 7.79562 7.85631 7.79561 7.81167V5.96813C7.79562 5.9235 7.77843 5.88065 7.74777 5.84883C7.7171 5.81701 7.67542 5.79878 7.6317 5.79807ZM5.99794 6.1382H6.54031V7.6348H5.99794V6.1382ZM7.46379 7.6348H6.87346V6.1382H7.46513L7.46379 7.6348ZM8.44858 7.81167V5.96813C8.44858 5.92303 8.46613 5.87977 8.49737 5.84788C8.52861 5.81598 8.57098 5.79807 8.61515 5.79807C8.65933 5.79807 8.7017 5.81598 8.73294 5.84788C8.76418 5.87977 8.78173 5.92303 8.78173 5.96813V7.81167C8.78173 7.85677 8.76418 7.90003 8.73294 7.93192C8.7017 7.96382 8.65933 7.98174 8.61515 7.98174C8.57098 7.98174 8.52861 7.96382 8.49737 7.93192C8.46613 7.90003 8.44858 7.85677 8.44858 7.81167ZM4.96519 5.96813V7.81167C4.96519 7.85677 4.94764 7.90003 4.9164 7.93192C4.88516 7.96382 4.84279 7.98174 4.79861 7.98174C4.75443 7.98174 4.71206 7.96382 4.68083 7.93192C4.64959 7.90003 4.63204 7.85677 4.63204 7.81167V5.96813C4.63204 5.92303 4.64959 5.87977 4.68083 5.84788C4.71206 5.81598 4.75443 5.79807 4.79861 5.79807C4.84279 5.79807 4.88516 5.81598 4.9164 5.84788C4.94764 5.87977 4.96519 5.92303 4.96519 5.96813Z" fill="#00AB62"/>
</svg>
