<svg width="8" height="12" viewBox="0 0 8 12" fill="none" xmlns="http://www.w3.org/2000/svg">
<path d="M7.63536 6.77852L1.77303 11.7419C1.08221 12.3277 3.93217e-07 11.8516 3.93217e-07 10.9627V1.0358C-0.000175869 0.836842 0.0589098 0.642055 0.170182 0.474761C0.281454 0.307467 0.440196 0.17476 0.627397 0.09253C0.814598 0.0103003 1.02232 -0.0179656 1.2257 0.0111173C1.42907 0.0402001 1.61947 0.125399 1.7741 0.256511L7.63429 5.21994C7.74916 5.31708 7.84121 5.43687 7.90429 5.57128C7.96737 5.70569 8 5.85161 8 5.99923C8 6.14685 7.96737 6.29276 7.90429 6.42717C7.84121 6.56158 7.74916 6.68138 7.63429 6.77852H7.63536Z" fill="#00AB62"/>
</svg>
