<svg width="18" height="18" viewBox="0 0 18 18" xmlns="http://www.w3.org/2000/svg">
<path d="M16.875 10.6875H15.75V3.65625C15.75 2.88084 15.1192 2.25 14.3438 2.25H10.6875V1.40625C10.6875 0.630844 10.0567 0 9.28125 0H6.46875C5.69334 0 5.0625 0.630844 5.0625 1.40625V2.25H1.40625C0.630844 2.25 0 2.88084 0 3.65625V13.2188C0 13.9942 0.630844 14.625 1.40625 14.625H12.0938V15.1875H11.5312C10.9108 15.1875 10.4062 15.6921 10.4062 16.3125V16.875C10.4062 17.4954 10.9108 18 11.5312 18H16.875C17.4954 18 18 17.4954 18 16.875V11.8125C18 11.1921 17.4954 10.6875 16.875 10.6875ZM5.625 1.40625C5.625 0.941063 6.00356 0.5625 6.46875 0.5625H9.28125C9.74644 0.5625 10.125 0.941063 10.125 1.40625V2.25H5.625V1.40625ZM0.5625 3.65625C0.5625 3.19106 0.941063 2.8125 1.40625 2.8125H14.3438C14.8089 2.8125 15.1875 3.19106 15.1875 3.65625V6.46875C15.1875 6.81216 14.9825 7.11844 14.6652 7.24894C14.6562 7.25287 14.6475 7.25681 14.6391 7.26131L10.9966 9.22275C10.8976 9.26156 10.7935 9.28125 10.6875 9.28125H9.28125V8.4375C9.28125 7.97231 8.90269 7.59375 8.4375 7.59375H7.3125C6.84731 7.59375 6.46875 7.97231 6.46875 8.4375V9.28125H4.78125C4.66931 9.28125 4.56019 9.25959 4.45697 9.21656L1.09688 7.25625C1.08759 7.25091 1.07775 7.24612 1.06791 7.24162C0.761063 7.10747 0.5625 6.80372 0.5625 6.46875V3.65625ZM8.71875 8.4375V10.6875C8.71875 10.8427 8.59247 10.9688 8.4375 10.9688H7.3125C7.15753 10.9688 7.03125 10.8427 7.03125 10.6875V8.4375C7.03125 8.28225 7.15753 8.15625 7.3125 8.15625H8.4375C8.59247 8.15625 8.71875 8.28225 8.71875 8.4375ZM1.40625 14.0625C0.941063 14.0625 0.5625 13.6839 0.5625 13.2188V7.58925C0.644344 7.65084 0.73125 7.70653 0.826875 7.74984L4.18866 9.711C4.19794 9.71634 4.2075 9.72113 4.21763 9.72563C4.39622 9.80381 4.58606 9.84375 4.78125 9.84375H6.46875V10.6875C6.46875 11.1527 6.84731 11.5312 7.3125 11.5312H8.4375C8.90269 11.5312 9.28125 11.1527 9.28125 10.6875V9.84375H10.6875C10.8717 9.84375 11.0517 9.80831 11.2227 9.738C11.2317 9.73434 11.2407 9.73041 11.2494 9.72563L14.8936 7.76306C15.0005 7.71778 15.0975 7.65759 15.1875 7.59009V10.6875H13.2188C12.5983 10.6875 12.0938 11.1921 12.0938 11.8125V14.0625H1.40625ZM11.5312 17.4375C11.221 17.4375 10.9688 17.1852 10.9688 16.875V16.3125C10.9688 16.0023 11.221 15.75 11.5312 15.75H12.0938V16.875C12.0938 17.1852 11.8415 17.4375 11.5312 17.4375ZM17.4375 16.875C17.4375 17.1852 17.1852 17.4375 16.875 17.4375H12.5052C12.6014 17.2718 12.6562 17.0798 12.6562 16.875V11.8125C12.6562 11.5023 12.9085 11.25 13.2188 11.25H16.875C17.1852 11.25 17.4375 11.5023 17.4375 11.8125V16.875Z"/>
<path d="M16.3125 12.6562H14.0625C13.9073 12.6562 13.7812 12.782 13.7812 12.9375C13.7812 13.093 13.9073 13.2188 14.0625 13.2188H16.3125C16.4678 13.2188 16.5938 13.093 16.5938 12.9375C16.5938 12.782 16.4678 12.6562 16.3125 12.6562Z"/>
<path d="M16.3125 14.0625H14.0625C13.9073 14.0625 13.7812 14.1882 13.7812 14.3438C13.7812 14.4993 13.9073 14.625 14.0625 14.625H16.3125C16.4678 14.625 16.5938 14.4993 16.5938 14.3438C16.5938 14.1882 16.4678 14.0625 16.3125 14.0625Z"/>
<path d="M16.3125 15.4688H14.0625C13.9073 15.4688 13.7812 15.5945 13.7812 15.75C13.7812 15.9055 13.9073 16.0312 14.0625 16.0312H16.3125C16.4678 16.0312 16.5938 15.9055 16.5938 15.75C16.5938 15.5945 16.4678 15.4688 16.3125 15.4688Z"/>
</svg>
