<svg width="30" height="30" viewBox="0 0 30 30" xmlns="http://www.w3.org/2000/svg">
<g opacity="0.85">
<path d="M27.1081 4.07853C27.7405 4.07853 28.2522 3.57408 28.2522 2.95067C28.2522 2.32726 27.7405 1.82281 27.1081 1.82281C26.4756 1.82281 25.9639 2.32726 25.9639 2.95067C25.9639 3.57408 26.4804 4.07853 27.1081 4.07853ZM27.1081 2.62707C27.2915 2.62707 27.4412 2.77459 27.4412 2.95543C27.4412 3.13627 27.2915 3.28379 27.1081 3.28379C26.9198 3.28379 26.7749 3.14103 26.7749 2.95543C26.7749 2.76983 26.9246 2.62707 27.1081 2.62707Z"/>
<path d="M28.3779 0H4.85677C3.96363 0 3.23463 0.718591 3.23463 1.59898V4.04029H1.62214C0.728999 4.04029 0 4.75888 0 5.63928V25.6885C0 26.5688 0.728999 27.2874 1.62214 27.2874H12.4026V29.6003C12.4026 29.8192 12.5861 30 12.8082 30H20.4265C20.6485 30 20.832 29.8192 20.832 29.6003V27.2874H25.1432C26.0364 27.2874 26.7654 26.5688 26.7654 25.6885V23.2471H28.3779C29.271 23.2471 30 22.5286 30 21.6482V1.59898C30 0.718591 29.271 0 28.3779 0ZM4.0457 1.59898C4.0457 1.15641 4.41262 0.799492 4.85677 0.799492H28.3779C28.8268 0.799492 29.1889 1.16117 29.1889 1.59898V5.10628H13.7979L11.9874 3.25508C11.8474 3.11231 11.6543 3.03141 11.4564 3.03141H7.46862C7.06308 3.03141 6.72996 3.35977 6.72996 3.75952V5.10628H4.0457V1.59898ZM1.62214 26.4927C1.17316 26.4927 0.811072 26.131 0.811072 25.6932V5.63928C0.811072 5.1967 1.17799 4.83978 1.62214 4.83978H3.23463V21.6529C3.23463 22.5333 3.96363 23.2519 4.85677 23.2519H13.6627C13.822 23.5565 13.8944 23.8991 13.8655 24.2513H13.2379C12.7744 24.2513 12.4026 24.6225 12.4026 25.0746V26.4927H1.62214ZM16.2166 18.1218C16.2987 17.9791 16.4483 17.8886 16.6173 17.8886C16.8684 17.8886 17.0711 18.0885 17.0711 18.336C17.0711 18.4978 16.9842 18.6453 16.8442 18.7262C16.6897 18.8166 16.5063 18.8071 16.318 18.7024C16.2939 18.6881 16.2697 18.6691 16.2601 18.6453C16.1056 18.4026 16.1683 18.2122 16.2166 18.1218ZM16.2118 17.1653C15.9173 17.2652 15.6662 17.4603 15.5117 17.7364C15.28 18.1456 15.309 18.6453 15.5793 19.0736C15.6662 19.2069 15.7821 19.3163 15.9221 19.3972C16.1442 19.5209 16.3856 19.5876 16.6221 19.5876C16.8442 19.5876 17.0615 19.5305 17.2546 19.421C17.6408 19.1973 17.8822 18.7833 17.8822 18.3407C17.8822 17.7935 17.5201 17.3319 17.0229 17.1653V15.1095L20.6099 21.4911C20.6051 21.4959 20.6003 21.5054 20.5858 21.5102C19.3161 21.8338 18.4857 23.0044 18.5533 24.2513H14.6862C14.7586 22.9997 13.9234 21.829 12.6295 21.4721L16.2118 15.1095V17.1653ZM20.0209 29.2005H13.2137L13.2379 25.046H19.9968C20.0113 25.046 20.0209 25.0555 20.0209 25.0698V29.2005ZM25.9543 25.6885C25.9543 26.131 25.5874 26.4879 25.1432 26.4879H20.832V25.0698C20.832 24.6129 20.4554 24.2465 19.9968 24.2465H19.3692C19.3402 23.8944 19.4174 23.5517 19.5719 23.2471H25.9543V25.6885ZM28.3779 22.4524H20.3589C20.4892 22.381 20.6292 22.3192 20.7837 22.2811C21.0396 22.2145 21.2472 22.0384 21.3534 21.8004C21.4548 21.5673 21.4403 21.3055 21.3148 21.0819L17.1629 13.7103C17.0566 13.5152 16.8491 13.3915 16.6221 13.3915C16.3904 13.3963 16.1828 13.5105 16.0718 13.7056L11.915 21.0819C11.7895 21.3055 11.7799 21.572 11.8812 21.8052C11.9826 22.0431 12.1902 22.2145 12.4461 22.2811C12.6006 22.3192 12.7358 22.381 12.8709 22.4524H4.85677C4.40779 22.4524 4.0457 22.0907 4.0457 21.6529V5.90577H6.79755C7.20309 5.90577 7.53621 5.57741 7.53621 5.17766V3.8309H11.4226L13.233 5.68211C13.373 5.82487 13.5661 5.90577 13.7641 5.90577H29.1889V21.6482C29.1889 22.0907 28.8268 22.4524 28.3779 22.4524Z"/>
<path d="M24.3463 4.07846C24.9788 4.07846 25.4905 3.57402 25.4905 2.95061C25.4905 2.3272 24.9788 1.82275 24.3463 1.82275C23.7139 1.82275 23.2021 2.3272 23.2021 2.95061C23.2021 3.57402 23.7139 4.07846 24.3463 4.07846ZM24.3463 2.62701C24.5298 2.62701 24.6795 2.77453 24.6795 2.95537C24.6795 3.13621 24.5298 3.28373 24.3463 3.28373C24.1581 3.28373 24.0132 3.14096 24.0132 2.95537C24.0132 2.76977 24.1629 2.62701 24.3463 2.62701Z"/>
<path d="M21.5797 4.07853C22.2122 4.07853 22.7239 3.57408 22.7239 2.95067C22.7239 2.32726 22.2122 1.82281 21.5797 1.82281C20.9473 1.82281 20.4355 2.32726 20.4355 2.95067C20.4355 3.57408 20.9473 4.07853 21.5797 4.07853ZM21.5797 2.62707C21.7632 2.62707 21.9129 2.77459 21.9129 2.95543C21.9129 3.13627 21.7632 3.28379 21.5797 3.28379C21.3915 3.28379 21.2466 3.14103 21.2466 2.95543C21.2466 2.76983 21.3963 2.62707 21.5797 2.62707Z"/>
<path d="M24.4334 9.38925C24.1968 9.62243 24.0472 9.91748 23.9892 10.2316H18.3166V9.6034C18.3166 9.1751 17.9641 8.8277 17.5296 8.8277H15.6999C15.2654 8.8277 14.913 9.1751 14.913 9.6034V10.2316H9.24511C9.19201 9.92224 9.04234 9.62719 8.80095 9.38449C8.18782 8.78963 7.14019 8.79914 6.54154 9.38925C6.23739 9.68905 6.07324 10.084 6.07324 10.5028C6.07324 10.9264 6.24222 11.3261 6.54154 11.6164C6.84569 11.9257 7.25123 12.0828 7.67125 12.0828C7.93678 12.0828 8.20713 12.0209 8.46301 11.8924C8.73819 11.7544 8.9651 11.526 9.10028 11.2452C9.13407 11.1738 9.16304 11.1024 9.18718 11.0311H13.1218C10.9831 12.059 9.37064 13.9911 8.81061 16.3229H8.18299C7.74849 16.3229 7.39606 16.6703 7.39606 17.0986V18.9023C7.39606 19.3306 7.74849 19.678 8.18299 19.678H10.0127C10.4472 19.678 10.7997 19.3306 10.7997 18.9023V17.0986C10.7997 16.6703 10.4472 16.3229 10.0127 16.3229H9.64582C10.3217 13.8102 12.3639 11.8401 14.9274 11.2309V11.4023C14.9274 11.8306 15.2799 12.178 15.7144 12.178H17.5441C17.9786 12.178 18.331 11.8306 18.331 11.4023V11.2309C20.8898 11.8401 22.9319 13.8102 23.6127 16.3229H23.2796C22.845 16.3229 22.4926 16.6703 22.4926 17.0986V18.9023C22.4926 19.3306 22.845 19.678 23.2796 19.678H25.1093C25.5438 19.678 25.8962 19.3306 25.8962 18.9023V17.0986C25.8962 16.6703 25.5438 16.3229 25.1093 16.3229H24.4479C23.883 13.9911 22.2705 12.0542 20.1366 11.0311H24.081C24.1582 11.25 24.2837 11.4498 24.4527 11.6164C24.7569 11.9257 25.1624 12.0828 25.5824 12.0828C25.8479 12.0828 26.1183 12.0209 26.3742 11.8924C26.6494 11.7544 26.8763 11.526 27.0114 11.2452C27.3253 10.5932 27.2142 9.88417 26.717 9.38449C26.0845 8.79439 25.0369 8.79914 24.4334 9.38925ZM8.36162 10.9073C8.30369 11.0215 8.20713 11.1215 8.09127 11.1786C7.67125 11.388 7.30916 11.2547 7.11122 11.0501C6.96156 10.9073 6.87949 10.7122 6.87949 10.5028C6.87949 10.2982 6.96156 10.1031 7.11122 9.95079C7.26088 9.80327 7.45882 9.72237 7.67125 9.72237C7.87884 9.72237 8.08161 9.80327 8.22644 9.94603C8.47749 10.203 8.52577 10.5599 8.36162 10.9073ZM10.0031 18.8785L8.19748 18.9023L8.17334 17.1224H9.97894L10.0031 18.8785ZM25.0948 18.8785L23.2892 18.9023L23.2651 17.1224H25.0707L25.0948 18.8785ZM15.7289 11.407L15.7192 10.8074C15.7289 10.7646 15.7289 10.7217 15.724 10.6741V10.6694C15.724 10.6551 15.7337 10.6456 15.7337 10.6313C15.7337 10.6075 15.724 10.5885 15.7192 10.5694L15.7047 9.63195H17.5103L17.5248 10.5694C17.52 10.5932 17.5103 10.6123 17.5103 10.6361C17.5103 10.6503 17.5151 10.6599 17.52 10.6741V10.6789C17.5103 10.7408 17.5151 10.7979 17.5296 10.8502L17.5393 11.388L15.7289 11.407ZM26.2583 10.9073C26.2004 11.0215 26.1038 11.1215 25.988 11.1786C25.5679 11.388 25.2058 11.2547 25.0079 11.0501C24.8582 10.9073 24.7762 10.7122 24.7762 10.5028C24.7762 10.2982 24.8582 10.1031 25.0079 9.95079C25.1576 9.80327 25.3555 9.72237 25.5679 9.72237C25.7755 9.72237 25.9783 9.80327 26.1231 9.94603C26.3742 10.203 26.4225 10.5599 26.2583 10.9073Z"/>
</g>
</svg>
