<svg xmlns="http://www.w3.org/2000/svg" version="1.1" xmlns:xlink="http://www.w3.org/1999/xlink" xmlns:svgjs="http://svgjs.com/svgjs" width="512" height="512" x="0" y="0" viewBox="0 0 58 58" style="enable-background:new 0 0 512 512" xml:space="preserve" class=""><g><path d="M29 43c4.962 0 9-4.038 9-9 0-.768-.102-1.552-.302-2.33a1 1 0 0 0-1.65-.483A2.998 2.998 0 0 1 34 32c-1.654 0-3-1.346-3-3 0-.758.289-1.486.812-2.049a1 1 0 0 0-.483-1.65A9.405 9.405 0 0 0 29 25c-4.962 0-9 4.038-9 9s4.038 9 9 9zm0-16c.137 0 .275.004.414.013A4.971 4.971 0 0 0 29 29c0 2.757 2.243 5 5 5 .69 0 1.365-.143 1.987-.414A7.008 7.008 0 0 1 29 41c-3.86 0-7-3.14-7-7s3.14-7 7-7z" data-original="#000000"></path><path d="M57.814 33.419C57.393 32.83 47.304 19 29 19S.607 32.83.186 33.419a1 1 0 0 0 0 1.162c.087.123 2.189 3.037 6.188 6.239a1 1 0 0 0 1.25-1.562C4.878 37.06 3.058 34.978 2.266 34c1.627-2 7.593-8.631 17.198-11.572C16.129 25.182 14 29.347 14 34c0 8.271 6.729 15 15 15s15-6.729 15-15c0-4.649-2.126-8.811-5.457-11.564 9.585 2.945 15.56 9.568 17.19 11.566-.793.979-2.613 3.059-5.358 5.257a1 1 0 0 0 1.25 1.562c4-3.202 6.101-6.117 6.188-6.239a1 1 0 0 0 .001-1.163zM42 34c0 7.168-5.832 13-13 13s-13-5.832-13-13 5.832-13 13-13 13 5.831 13 13z"  data-original="#000000"></path><path d="M8.686 23.921C12.926 20.764 19.892 17 29 17s16.074 3.764 20.314 6.921a.999.999 0 1 0 1.194-1.604 38.62 38.62 0 0 0-2.724-1.852l1.622-2.815a1 1 0 1 0-1.733-.999l-1.618 2.808a36.605 36.605 0 0 0-6.792-2.896l.992-3.693a1 1 0 1 0-1.932-.518l-.985 3.668a34.59 34.59 0 0 0-7.339-.994V10a1 1 0 0 0-2 0v5.026c-2.625.076-5.08.432-7.339.994l-.985-3.668a1.001 1.001 0 0 0-1.932.518l.992 3.693a36.5 36.5 0 0 0-6.792 2.896l-1.618-2.808a1 1 0 1 0-1.733.999l1.622 2.815c-1 .62-1.911 1.247-2.724 1.852a1 1 0 1 0 1.196 1.604z"  data-original="#000000"></path></g></svg>