<svg width="10" height="14" viewBox="0 0 10 14" fill="none" xmlns="http://www.w3.org/2000/svg">
<path d="M9.11336 3.2398V1.84671H9.69723C9.86443 1.84671 10 1.73093 10 1.58807V0.258644C10 0.115786 9.86443 0 9.69723 0H0.302769C0.135573 0 0 0.115786 0 0.258644V1.58807C0 1.73093 0.135573 1.84671 0.302769 1.84671H0.886643V3.2398C0.886643 4.66007 1.79589 5.96081 3.25958 6.63444L4.34905 7.13583L3.37991 7.55983C1.86489 8.22268 0.923749 9.53774 0.923749 10.9918V12.1533H0.302769C0.135573 12.1533 0 12.2691 0 12.4119V13.7414C0 13.8842 0.135573 14 0.302769 14H9.69723C9.86443 14 10 13.8842 10 13.7414V12.4119C10 12.2691 9.86443 12.1533 9.69723 12.1533H9.15043V11.0113C9.15043 10.2959 8.91807 9.59596 8.47848 8.98711C8.0389 8.37824 7.41099 7.88667 6.66268 7.56561L5.65583 7.13359L6.74042 6.63444C8.20411 5.96081 9.11336 4.66007 9.11336 3.2398ZM0.605539 0.517287H9.39446V1.32943H0.605539V0.517287ZM9.39446 13.4827H0.605539V12.6705H9.39446V13.4827ZM7.9631 9.25863C8.34372 9.78583 8.54492 10.3919 8.54492 11.0113V12.1533H1.52929V10.9918C1.52929 9.73278 2.34417 8.59415 3.65594 8.02025L5.00135 7.4316L6.39089 8.02783C7.03882 8.30585 7.58249 8.73146 7.9631 9.25863ZM5 6.84782L3.54677 6.17902C2.27945 5.59578 1.49218 4.46953 1.49218 3.2398V1.84671H8.50778V3.2398C8.50778 4.46953 7.72052 5.59578 6.45319 6.17902L4.99997 6.84782H5Z" fill="#C99307"/>
</svg>
