<svg width="160" height="80" viewBox="0 0 160 80" fill="none" xmlns="http://www.w3.org/2000/svg">
<path d="M59.3335 41.0664C58.1335 41.7331 56.1335 42.1331 54.4001 42.1331C49.4668 42.1331 47.4668 39.1998 47.4668 34.6664C47.4668 30.3998 49.8668 27.3331 54.8001 27.3331C56.4001 27.3331 58.2668 27.7331 59.3335 28.3998V32.2664L57.2001 32.1331L56.9335 30.1331C56.9335 29.9998 56.8001 29.8664 56.6668 29.7331C56.2668 29.5998 55.6001 29.4664 54.9335 29.4664C52.4001 29.4664 50.8001 31.1998 50.8001 34.5331C50.8001 37.9998 52.2668 39.7331 54.8001 39.7331C55.4668 39.7331 56.2668 39.5998 56.8001 39.4664C57.0668 39.4664 57.0668 39.3331 57.2001 39.0664L57.4668 37.1998H59.6001L59.3335 41.0664ZM67.7335 36.7998C67.7335 34.3998 67.0668 33.5998 65.7335 33.5998C64.4001 33.5998 63.6001 34.3998 63.6001 36.7998C63.6001 39.1998 64.4001 40.1331 65.7335 40.1331C66.9335 40.1331 67.7335 39.1998 67.7335 36.7998ZM60.4001 36.7998C60.4001 33.4664 62.1335 31.3331 65.7335 31.3331C69.3335 31.3331 70.8001 33.4664 70.8001 36.5331C70.8001 39.8664 69.0668 42.1331 65.4668 42.1331C61.8668 42.1331 60.4001 39.9998 60.4001 36.7998ZM80.9335 41.1998C80.0001 41.7331 78.6668 42.1331 77.2001 42.1331C73.6001 42.1331 72.0001 39.8664 72.0001 36.9331C72.0001 33.1998 74.2668 31.4664 77.4668 31.4664C79.0668 31.4664 80.4001 31.8664 80.9335 32.2664V35.3331L78.8001 35.1998L78.5335 33.8664C78.5335 33.7331 78.5335 33.5998 78.2668 33.5998C78.0001 33.4664 77.6001 33.4664 77.2001 33.4664C76.0001 33.4664 75.0668 34.2664 75.0668 36.5331C75.0668 39.0664 76.2668 39.8664 77.6001 39.8664C78.5335 39.8664 79.4668 39.5998 80.1335 39.3331L80.9335 41.1998ZM89.6001 41.9998L87.0668 36.9331L86.0001 38.1331V39.8664C86.0001 40.1331 86.0001 40.2664 86.2668 40.2664L87.4668 40.3998V41.9998H81.6001V40.3998L82.5335 40.2664C82.8001 40.2664 82.8001 40.1331 82.8001 39.8664V29.3331C82.8001 29.0664 82.8001 28.9331 82.5335 28.9331L81.4668 28.5331L81.7335 26.9331H85.8668V35.3331L89.4668 31.4664H92.1335V33.0664L91.0668 33.1998C90.8001 33.1998 90.8001 33.3331 90.5335 33.4664L89.0668 34.9331L91.6001 39.7331C91.7335 39.9998 91.8668 39.9998 92.1335 40.1331L93.0668 40.2664V41.8664L89.6001 41.9998ZM94.2668 41.9998V40.3998L95.2001 40.2664C95.4668 40.2664 95.4668 40.1331 95.4668 39.8664V33.9998C95.4668 33.7331 95.4668 33.5998 95.2001 33.5998L94.1335 33.1998L94.4001 31.5998H97.8668L98.1335 33.1998H98.2668C98.9335 32.1331 99.7335 31.4664 101.067 31.4664C101.467 31.4664 102.4 31.5998 102.8 31.5998V35.1998L100.4 35.0664L100.267 33.9998C100.267 33.8664 100.133 33.7331 100 33.7331C99.4668 33.7331 98.9335 34.1331 98.5335 34.3998V39.5998C98.5335 39.8664 98.5335 39.9998 98.8001 39.9998L100.8 40.1331V41.7331L94.2668 41.9998ZM110.933 36.7998C110.933 34.3998 110.267 33.5998 108.933 33.5998C107.6 33.5998 106.8 34.3998 106.8 36.7998C106.8 39.1998 107.6 40.1331 108.933 40.1331C110.133 40.1331 110.933 39.1998 110.933 36.7998ZM103.6 36.7998C103.6 33.4664 105.333 31.3331 108.933 31.3331C112.533 31.3331 114 33.4664 114 36.5331C114 39.8664 112.267 42.1331 108.667 42.1331C105.067 42.1331 103.6 39.9998 103.6 36.7998ZM120.933 37.7331L119.6 37.8664C118.4 37.9998 118 38.2664 118 39.0664C118 39.8664 118.533 40.1331 119.067 40.1331C119.733 40.1331 120.4 39.7331 120.933 39.4664V37.7331ZM121.467 41.9998L121.333 40.9331H121.2C120.4 41.5998 119.467 42.2664 117.867 42.2664C115.333 42.2664 114.933 40.5331 114.933 39.3331C114.933 37.3331 116.133 36.3998 118.667 36.2664L120.933 36.1331V35.0664C120.933 34.1331 120.8 33.4664 119.6 33.4664C118.667 33.4664 118.133 33.5998 118.133 34.7998L115.333 34.5331C115.333 31.8664 117.733 31.4664 119.6 31.4664C122.667 31.4664 123.867 32.2664 123.867 35.0664V39.8664C123.867 40.1331 123.867 40.2664 124.133 40.2664L125.067 40.3998V41.9998H121.467ZM134.533 41.1998C133.6 41.7331 132.267 42.1331 130.8 42.1331C127.2 42.1331 125.6 39.8664 125.6 36.9331C125.6 33.1998 127.867 31.4664 131.067 31.4664C132.667 31.4664 134 31.8664 134.533 32.2664V35.3331L132.4 35.1998L132.133 33.8664C132.133 33.7331 132.133 33.5998 131.867 33.5998C131.6 33.4664 131.2 33.4664 130.8 33.4664C129.6 33.4664 128.667 34.2664 128.667 36.5331C128.667 39.0664 129.867 39.8664 131.2 39.8664C132.133 39.8664 133.067 39.5998 133.733 39.3331L134.533 41.1998ZM142.4 41.9998V35.5998C142.4 35.0664 142.4 33.8664 141.333 33.8664C140.667 33.8664 139.733 34.2664 139.333 34.5331V39.8664C139.333 40.1331 139.333 40.2664 139.6 40.2664L140.533 40.3998V41.9998H135.067V40.3998L136 40.2664C136.267 40.2664 136.267 40.1331 136.267 39.8664V29.3331C136.267 29.0664 136.267 28.9331 136 28.9331L134.933 28.5331L135.2 26.9331H139.333V32.5331H139.467C140.4 31.8664 141.333 31.3331 142.667 31.3331C144.8 31.3331 145.6 32.5331 145.6 34.5331V39.7331C145.6 39.9998 145.6 40.1331 145.867 40.1331L146.8 40.2664V41.8664H142.4M31.7335 33.5998C30.6668 33.8664 29.6001 33.9998 28.4001 33.9998C27.2001 33.9998 26.1335 33.8664 25.0668 33.5998C26.0001 32.1331 27.0668 30.9331 28.4001 29.8664C29.7335 30.9331 30.8001 32.1331 31.7335 33.5998ZM41.7335 25.4664C40.4001 25.0664 38.9335 24.9331 37.6001 24.9331C34.4001 24.9331 31.2001 25.8664 28.4001 27.7331C25.7335 25.9998 22.6668 24.9331 19.2001 24.9331C17.7335 24.9331 16.4001 25.0664 15.0668 25.4664C14.5335 25.5998 14.0001 25.7331 13.4668 25.9998V26.1331C13.7335 26.6664 14.0001 27.1998 14.2668 27.5998H14.4001C14.9335 27.4664 15.4668 27.1998 16.1335 27.0664C17.2001 26.7998 18.2668 26.6664 19.4668 26.6664C22.2668 26.6664 24.9335 27.4664 27.0668 28.7998C25.6001 29.9998 24.4001 31.4664 23.4668 33.0664C23.3335 33.3331 23.0668 33.7331 22.9335 33.9998C22.8001 34.2664 22.6668 34.3998 22.6668 34.6664C22.5335 35.0664 22.4001 35.3331 22.2668 35.7331C21.6001 37.5998 21.2001 39.4664 21.2001 41.4664C21.2001 46.1331 23.2001 50.3998 26.2668 53.3331C26.5335 53.5998 26.8001 53.8664 27.0668 53.9998C27.3335 54.1331 27.4668 54.3998 27.7335 54.5331C28.0001 54.7998 28.2668 54.9331 28.5335 55.1998H28.6668C28.9335 55.0664 29.2001 54.7998 29.4668 54.5331C29.7335 54.3998 29.8668 54.2664 30.1335 53.9998C30.4001 53.7331 30.6668 53.5998 30.9335 53.3331C34.0001 50.2664 36.0001 46.1331 36.0001 41.4664C36.0001 39.4664 35.6001 37.5998 34.9335 35.7331C34.8001 35.3331 34.6668 35.0664 34.5335 34.6664C34.4001 34.3998 34.2668 34.2664 34.2668 33.9998C34.1335 33.7331 33.8668 33.3331 33.7335 33.0664C32.8001 31.4664 31.6001 29.9998 30.1335 28.7998C32.4001 27.4664 34.9335 26.6664 37.7335 26.6664C38.9335 26.6664 40.0001 26.7998 41.0668 27.0664C41.6001 27.1998 42.2668 27.3331 42.8001 27.5998H42.9335C43.2001 27.0664 43.4668 26.6664 43.7335 26.1331V25.9998C42.8001 25.7331 42.2668 25.5998 41.7335 25.4664Z" fill="white"/>
<path d="M33.9997 41.3331C33.9997 45.1998 32.533 48.7998 29.9997 51.4664C29.5997 49.9998 29.333 48.5331 29.333 47.0664C29.333 43.1998 30.7997 39.5998 33.333 36.9331C33.733 38.3998 33.9997 39.8664 33.9997 41.3331ZM49.733 47.7331H51.9997V56.1331H56.2663V58.2664H49.5997V47.7331M62.533 50.7998L61.1997 54.1331H63.733L62.533 50.7998ZM61.733 47.7331H63.5997L68.2663 58.2664H65.5997L64.6663 55.9998H60.533L59.5997 58.2664H57.0663L61.733 47.7331ZM71.5997 56.3998H74.2663C74.3997 56.3998 74.6663 56.2664 74.7997 56.1331L75.1997 55.7331C75.333 55.5998 75.333 55.3331 75.333 55.1998C75.333 54.9331 75.333 54.7998 75.1997 54.5331C75.0663 54.3998 74.933 54.2664 74.6663 54.1331C74.533 53.9998 74.2663 53.9998 73.9997 53.9998H71.5997V56.3998ZM71.5997 51.9998H73.8663C73.9997 51.9998 74.133 51.8664 74.3997 51.8664L74.7997 51.4664C74.933 51.3331 74.933 51.1998 74.933 50.9331C74.933 50.6664 74.933 50.5331 74.7997 50.3998L74.3997 49.9998C74.2663 49.8664 74.133 49.8664 73.8663 49.8664H71.733L71.5997 51.9998ZM69.1997 47.7331H73.1997C73.5997 47.7331 74.133 47.7331 74.533 47.8664C74.933 47.9998 75.4663 47.9998 75.733 48.2664C76.133 48.3998 76.3997 48.7998 76.6663 49.0664C76.933 49.4664 77.0663 49.8664 77.0663 50.3998C77.0663 50.9331 76.933 51.4664 76.533 51.8664C76.133 52.2664 75.733 52.5331 75.1997 52.6664C75.5997 52.6664 75.8663 52.7998 76.133 52.9331C76.3997 53.0664 76.6663 53.1998 76.7997 53.4664C77.0663 53.7331 77.1997 53.9998 77.333 54.2664C77.4663 54.5331 77.4663 54.9331 77.4663 55.1998C77.4663 55.7331 77.333 56.2664 77.0663 56.5331C76.7997 56.9331 76.533 57.1998 76.133 57.4664C75.733 57.7331 75.333 57.8664 74.7997 57.9998C74.2663 58.1331 73.8663 58.1331 73.333 58.1331H69.0663L69.1997 47.7331ZM84.2663 50.3998C84.133 50.1331 83.8663 49.9998 83.4663 49.8664C83.1997 49.7331 82.7997 49.7331 82.533 49.7331H81.9997C81.8663 49.7331 81.5997 49.8664 81.4663 49.8664C81.333 49.9998 81.1997 49.9998 81.0663 50.2664C80.933 50.3998 80.933 50.5331 80.933 50.7998C80.933 51.0664 81.0663 51.3331 81.333 51.4664C81.5997 51.5998 81.8663 51.7331 82.2663 51.8664L83.4663 52.2664C83.8663 52.3998 84.2663 52.5331 84.6663 52.7998C85.0663 53.0664 85.333 53.3331 85.5997 53.7331C85.8663 54.1331 85.9997 54.5331 85.9997 55.1998C85.9997 55.7331 85.8664 56.2664 85.733 56.7998C85.4664 57.1998 85.1997 57.5998 84.7997 57.8664C84.3997 58.1331 83.9997 58.3998 83.4663 58.5331C82.933 58.6664 82.3997 58.7998 81.8663 58.7998C81.1997 58.7998 80.533 58.6664 79.9997 58.5331C79.4663 58.2664 78.7997 57.9998 78.3997 57.4664L79.9997 55.5998C80.2663 55.8664 80.533 56.1331 80.933 56.3998C81.333 56.5331 81.733 56.6664 81.9997 56.6664C82.133 56.6664 82.3997 56.6664 82.533 56.5331C82.6664 56.5331 82.933 56.3998 83.0663 56.2664L83.4663 55.8664C83.5997 55.7331 83.5997 55.5998 83.5997 55.3331C83.5997 55.0664 83.4664 54.7998 83.1997 54.5331C82.933 54.3998 82.6663 54.1331 82.2663 53.9998L81.0663 53.5998C80.6663 53.4664 80.2663 53.3331 79.8663 53.0664C79.4664 52.7998 79.1997 52.5331 78.933 52.2664C78.6663 51.8664 78.533 51.4664 78.533 50.7998C78.533 50.2664 78.6663 49.7331 78.933 49.3331C79.1997 48.9331 79.4664 48.5331 79.8663 48.2664C80.2663 47.9998 80.6663 47.7331 81.1997 47.5998C81.733 47.4664 82.133 47.3331 82.6663 47.3331C83.1997 47.3331 83.8663 47.4664 84.3997 47.5998C84.933 47.7331 85.4664 47.9998 85.8663 48.3998L84.2663 50.3998Z" fill="#4DB938"/>
<path d="M27.4665 47.0664C27.4665 48.6664 27.1998 50.1331 26.7998 51.4664C24.2665 48.7998 22.7998 45.3331 22.7998 41.3331C22.7998 39.7331 23.0665 38.2664 23.4665 36.9331C25.9998 39.5998 27.4665 43.1998 27.4665 47.0664Z" fill="#8CD024"/>
</svg>
