<svg width="160" height="80" viewBox="0 0 160 80" fill="none" xmlns="http://www.w3.org/2000/svg">
<path d="M62.0546 31.0708V42.6185C62.0546 43.646 62.1282 44.6107 61.2057 45.3115C60.3567 46.0123 58.9183 46.234 57.3685 46.234C55.007 46.234 52.4985 45.6808 52.4985 45.6808L51.9453 47.1571C51.9453 47.1571 55.4505 47.8952 57.9963 47.9319C60.1361 47.9687 62.0179 47.4885 63.0507 46.3086C63.8997 45.3493 64.1576 44.2429 64.1214 42.3611V31.0708H62.0557" fill="#3B3A40"/>
<path d="M79.2841 37.4534C77.7343 36.6044 75.8531 36.1621 73.7133 36.1621C71.6098 36.1621 69.729 36.6055 68.1425 37.4534C66.1504 38.5241 65.1543 40.1096 65.1543 42.1023C65.1543 44.0949 66.1504 45.6809 68.1425 46.7511C69.729 47.6001 71.5735 48.0424 73.7133 48.0424C75.8168 48.0424 77.6976 47.599 79.2473 46.7511C81.2395 45.6804 82.2355 44.0949 82.2355 42.1023C82.2355 40.0734 81.2395 38.5236 79.2841 37.4534ZM78.0674 45.5647C76.8507 46.2655 75.4113 46.5921 73.7144 46.5921C71.9802 46.5921 70.5045 46.2601 69.3235 45.596C67.8851 44.7849 67.1837 43.6407 67.1837 42.0909C67.1837 40.5784 67.9219 39.398 69.3235 38.5858C70.5039 37.9217 71.9797 37.5897 73.7144 37.5897C75.4113 37.5897 76.887 37.9217 78.1053 38.5858C79.5074 39.3969 80.245 40.5779 80.245 42.0909C80.2083 43.5672 79.5069 44.7471 78.0685 45.5587L78.0674 45.5647Z" fill="#3B3A40"/>
<path d="M97.4355 37.4534C95.8857 36.6044 94.0044 36.1621 91.8647 36.1621C89.7611 36.1621 87.8804 36.6055 86.2939 37.4534C84.3017 38.5241 83.3057 40.1096 83.3057 42.1023C83.3057 44.0949 84.3017 45.6809 86.2939 46.7511C87.8804 47.6001 89.7249 48.0424 91.8647 48.0424C93.9682 48.0424 95.8489 47.599 97.3987 46.7511C99.3908 45.6804 100.387 44.0949 100.387 42.1023C100.387 40.0734 99.3908 38.5236 97.4355 37.4534ZM96.2188 45.5647C95.0021 46.2655 93.5626 46.5921 91.8657 46.5921C90.1316 46.5921 88.6559 46.2601 87.4749 45.596C86.0365 44.7849 85.3351 43.6407 85.3351 42.0909C85.3351 40.5784 86.0732 39.398 87.4749 38.5858C88.6553 37.9217 90.131 37.5897 91.8657 37.5897C93.5626 37.5897 95.0383 37.9217 96.2566 38.5858C97.6588 39.3969 98.3964 40.5779 98.3964 42.0909C98.3596 43.5672 97.6583 44.7471 96.2199 45.5587L96.2188 45.5647Z" fill="#3B3A40"/>
<path d="M122.486 37.1586C121.379 36.4945 119.94 36.1625 118.243 36.1625C116.067 36.1625 114.333 36.8266 113.004 38.1546C111.75 36.8266 109.979 36.1625 107.802 36.1625C106.031 36.1625 104.593 36.5313 103.486 37.2332V36.3107H101.53V47.7843H103.486V39.9624C103.633 39.4092 104.002 38.8917 104.593 38.4499C105.404 37.8967 106.431 37.6009 107.729 37.6009C108.873 37.6009 109.838 37.8172 110.649 38.3017C111.608 38.8549 112.051 39.593 112.051 40.6259V47.8573H113.97V40.5896C113.97 39.5622 114.413 38.8187 115.372 38.2655C116.183 37.8221 117.18 37.5647 118.323 37.5647C119.467 37.5647 120.463 37.781 121.275 38.2655C122.234 38.8187 122.677 39.5568 122.677 40.5896V47.8206H124.632V40.8476C124.595 39.2242 123.857 37.9697 122.492 37.158M126.139 31.0708V47.8206H128.095V31.0708H126.139ZM149.899 31.0708V44.0207H151.854V31.0708H149.899ZM144.77 36.3096V38.2649C143.11 36.8628 140.896 36.1252 138.166 36.1252C135.99 36.1252 134.108 36.5308 132.559 37.3797C130.64 38.4504 129.638 39.9991 129.638 42.0653C129.638 44.0942 130.635 45.6808 132.627 46.7142C134.176 47.5632 136.058 47.9687 138.234 47.9687C139.305 47.9687 140.374 47.8579 141.333 47.5999C142.698 47.2311 143.842 46.7147 144.727 46.0134V47.7843H146.682V36.3096H144.764M131.704 42.1021C131.704 40.5896 132.442 39.4092 133.843 38.597C135.024 37.9329 136.536 37.6009 138.271 37.6009C140.41 37.6009 142.07 38.1173 143.245 39.1507C144.273 40.0732 144.795 41.2596 144.795 42.6926V44.0575C143.984 44.98 142.766 45.6808 141.217 46.1664C140.294 46.4616 139.298 46.6098 138.265 46.6098C136.494 46.6098 135.018 46.2778 133.838 45.6505C132.4 44.8015 131.698 43.6584 131.698 42.1086L131.704 42.1021ZM150.9 45.644C149.535 45.644 149.351 46.3448 149.351 46.7877C149.351 47.2306 149.567 47.9314 150.9 47.9314C152.265 47.9314 152.45 47.1933 152.45 46.7877C152.45 46.3822 152.234 45.644 150.9 45.644Z" fill="#3B3A40"/>
<path d="M14.8017 40.1353L14.0447 39.3783C11.6113 36.9449 10.9083 33.5382 11.7735 30.4559C9.34014 29.9151 7.55566 27.7521 7.55566 25.1565C7.55566 22.1824 9.98904 19.749 12.9632 19.749C15.6669 19.749 17.884 21.6957 18.3166 24.2913C21.2367 23.5884 24.4271 24.3995 26.6982 26.6706L27.0227 26.9951L23.0211 30.9966L22.6967 30.6722C22.0722 30.0494 21.2263 29.6997 20.3444 29.6997C19.4625 29.6997 18.6166 30.0494 17.9921 30.6722C17.3694 31.2966 17.0196 32.1425 17.0196 33.0245C17.0196 33.9064 17.3694 34.7523 17.9921 35.3767L26.9686 44.3532L22.9671 48.3547L18.7492 44.1369L14.8017 40.1353Z" fill="#7AC143"/>
<path d="M19.29 35.7013L28.2665 26.7248C30.6458 24.3455 34.1066 23.5885 37.1348 24.4537C37.5133 21.804 39.7845 19.8032 42.4882 19.8032C45.4624 19.8032 47.8957 22.2366 47.8957 25.2107C47.8957 27.9686 45.8409 30.2397 43.1912 30.5642C44.0564 33.5924 43.2994 36.9991 40.9201 39.3784L40.5956 39.7029L36.7022 35.7013L37.0267 35.3768C37.6494 34.7524 37.9992 33.9065 37.9992 33.0246C37.9992 32.1427 37.6494 31.2967 37.0267 30.6723C36.4022 30.0495 35.5563 29.6998 34.6744 29.6998C33.7925 29.6998 32.9466 30.0495 32.3221 30.6723L23.3457 39.6488L19.29 35.7013Z" fill="#F9A541"/>
<path d="M37.297 55.8714C34.2147 56.7907 30.7539 56.0877 28.3205 53.6543L27.9961 53.3299L31.9976 49.3283L32.3221 49.6528C32.9465 50.2755 33.7925 50.6253 34.6744 50.6253C35.5563 50.6253 36.4022 50.2755 37.0266 49.6528C37.6494 49.0283 37.9991 48.1824 37.9991 47.3005C37.9991 46.4186 37.6494 45.5727 37.0266 44.9482L28.0502 35.9718L32.0517 31.9702L41.0823 41.0008C43.3534 43.2719 44.1645 46.5164 43.4616 49.4905C46.1112 49.8691 48.112 52.1402 48.112 54.844C48.112 57.8181 45.6786 60.2515 42.7045 60.2515C40.0008 60.1974 37.7837 58.3048 37.297 55.8714Z" fill="#F44321"/>
<path d="M35.7288 44.6236L26.7523 53.6001C24.4271 55.9253 21.1826 56.6824 18.2625 55.9794C17.7218 58.4128 15.5588 60.1972 12.9632 60.1972C9.98904 60.1972 7.55566 57.7639 7.55566 54.7897C7.55566 52.2482 9.34014 50.0852 11.7194 49.5445C10.9624 46.5163 11.7194 43.2717 14.0447 40.9465L14.3691 40.6221L18.3707 44.6236L18.0462 44.9481C17.4234 45.5725 17.0737 46.4184 17.0737 47.3003C17.0737 48.1823 17.4234 49.0282 18.0462 49.6526C18.6707 50.2754 19.5166 50.6251 20.3985 50.6251C21.2804 50.6251 22.1263 50.2754 22.7508 49.6526L31.7272 40.6761L35.7288 44.6236Z" fill="#5091CD"/>
</svg>
