<svg width="160" height="80" viewBox="0 0 160 80" fill="none" xmlns="http://www.w3.org/2000/svg">
<path d="M131.407 32.7722L130.846 33.2985L130.705 33.2283C130.6 33.1582 130.425 33.0529 130.179 32.8424C129.933 32.702 129.583 32.6318 129.091 32.6318C128.214 32.6318 127.512 32.8424 126.986 33.2985C126.6 33.6494 126.354 34.1055 126.249 34.6318L124.249 44.2459C124.144 44.7021 124.284 45.0529 124.6 45.3687C124.916 45.6845 125.407 45.86 126.039 45.86C126.495 45.86 126.881 45.8249 127.232 45.7196C127.547 45.6494 127.828 45.5091 128.039 45.3687L128.495 45.0529L128.39 45.6143C128.354 45.7196 128.354 45.8249 128.319 45.9301C128.249 46.3863 128.179 46.6319 128.109 46.7372C127.828 47.1231 127.407 47.2986 126.776 47.2986H93.2315L93.0912 47.6845C92.7052 48.667 92.4245 49.2635 92.2841 49.474C92.1438 49.6845 91.9683 49.86 91.7578 50.0354H126.881C126.951 50.0354 128.004 50.0003 128.39 49.9652C128.776 49.9302 129.126 49.86 129.407 49.7196C129.863 49.5091 130.214 49.2635 130.46 48.9477C130.635 48.7372 130.881 47.2635 131.021 46.4915C131.091 46.1407 131.126 45.8249 131.197 45.6143L133.863 32.702H131.407V32.7722ZM130.53 35.1933L128.811 43.5793C128.776 43.8249 128.67 44.0003 128.495 44.1407C128.354 44.281 128.144 44.3512 127.898 44.3512C127.653 44.3512 127.442 44.281 127.337 44.1407C127.197 44.0003 127.161 43.7547 127.232 43.474L128.951 35.1231C129.056 34.5968 129.372 34.3161 129.863 34.3161C130.144 34.3161 130.319 34.3862 130.425 34.5617C130.565 34.7371 130.6 34.9476 130.53 35.1933Z" fill="#EA5937"/>
<path d="M97.0566 32.5615L91.7583 45.8598C91.3724 46.8071 90.5653 48.9826 90.425 49.1931C90.1794 49.5791 89.7583 49.8949 89.1267 50.1756C88.9513 50.2457 88.7408 50.3159 88.5302 50.3159C88.3197 50.351 88.0039 50.351 87.618 50.351H57.4424L58.1091 47.1229H86.6355C86.6706 47.1229 86.7057 47.1229 86.7408 47.1229C86.7758 47.1229 86.8109 47.1229 86.846 47.1229H86.9513C86.9864 47.1229 87.0215 47.1229 87.0565 47.0878C87.7583 46.9475 88.2846 46.3861 88.3899 45.6843C88.4952 44.9826 88.0741 32.5264 88.0741 32.5264H91.3373L91.2671 39.579L93.7934 32.5264H97.0566" fill="#EA5937"/>
<path d="M51.5824 50.1058H55.6877L59.8982 29.7549H55.7929L54.0736 38.0356H52.3192L54.0386 29.7549H49.9684L45.7578 50.1058H49.828L51.8982 40.1058H53.6526L51.5824 50.1058Z" fill="#EA5937"/>
<path d="M72.1438 45.7197H74.9508L77.3017 34.3513C77.407 33.8951 77.3017 33.5092 76.9859 33.1934C76.6701 32.8776 76.1789 32.7021 75.5473 32.7021C75.1263 32.7021 74.7052 32.7372 74.3543 32.8425C74.0035 32.9478 73.7227 33.053 73.5473 33.1934L73.0912 33.5092L73.2315 32.7723H70.4245L67.7578 45.6847H70.5648L72.7403 35.1232C72.8105 34.8776 72.8806 34.6671 73.0561 34.5267C73.2315 34.3864 73.407 34.3162 73.6526 34.3162C73.8982 34.3162 74.0736 34.3864 74.214 34.5267C74.3543 34.6671 74.3894 34.9127 74.3192 35.1934L72.1438 45.7197Z" fill="#EA5937"/>
<path d="M83.3724 32.7021C82.2496 32.7021 81.3373 32.9127 80.6355 33.2986C79.8636 33.7548 79.3724 34.4215 79.1969 35.3688L77.5127 43.3338C77.3022 44.2811 77.5127 44.9127 78.0741 45.3338C78.5653 45.6847 79.4074 45.8952 80.4952 45.8952C81.618 45.8952 82.5303 45.7197 83.1969 45.3689C84.004 44.9478 84.5303 44.2811 84.7057 43.3689L85.0215 42.1408H82.2145L81.8636 43.439C81.7934 43.6846 81.7232 43.8952 81.5478 44.0355C81.3724 44.211 81.1618 44.2811 80.9162 44.2811C80.5653 44.2811 80.425 44.1408 80.3197 44.0004C80.2145 43.825 80.2145 43.6145 80.2496 43.3338L80.9162 40.0706H85.3373L86.3548 35.1583C86.5303 34.246 86.3198 33.6144 85.7233 33.2285C85.3022 32.8776 84.4601 32.7021 83.3724 32.7021ZM82.9513 38.4566H81.3373L82.039 35.1232C82.1092 34.8425 82.2145 34.632 82.3899 34.4916C82.5654 34.3513 82.7759 34.2811 82.9864 34.2811C83.3373 34.2811 83.4776 34.4215 83.5829 34.5618C83.6882 34.7372 83.7232 34.9478 83.6531 35.2285L82.9513 38.4566Z" fill="#EA5937"/>
<path d="M64.9156 32.7021C63.7927 32.7021 62.8805 32.9127 62.1436 33.2986C61.3366 33.7548 60.8454 34.4215 60.6348 35.3688L59.0208 43.3338C58.8453 44.2811 59.0208 44.9127 59.6173 45.3338C60.1436 45.6847 60.9857 45.8952 62.1085 45.8952C63.2313 45.8952 64.1436 45.7197 64.7752 45.3689C65.5822 44.9478 66.0384 44.3162 66.2489 43.3689L67.9331 35.1232C68.1085 34.3162 67.898 33.7548 67.3366 33.3337C66.7752 32.9127 65.9331 32.7021 64.9156 32.7021ZM62.4945 44.2811C62.1436 44.2811 62.0033 44.1408 61.898 44.0004C61.7927 43.825 61.7927 43.6145 61.8278 43.3338L63.512 35.1583C63.5822 34.8776 63.6875 34.6671 63.8629 34.5267C64.0384 34.3864 64.2138 34.3162 64.4243 34.3162C64.7752 34.3162 64.9155 34.4565 65.0208 34.5969C65.1261 34.7723 65.1612 34.9829 65.091 35.2636L63.4068 43.4039C63.3366 43.6496 63.2664 43.8601 63.091 44.0355C62.9506 44.211 62.7401 44.2811 62.4945 44.2811Z" fill="#EA5937"/>
<path d="M99.5826 45.6846C99.8283 45.8249 100.214 45.8951 100.741 45.8951C101.653 45.8951 102.425 45.6495 103.056 45.1933C103.583 44.8074 103.898 44.3512 104.004 43.86L106.004 34.2459C106.109 33.7898 105.969 33.4389 105.653 33.1231C105.337 32.8073 104.846 32.6319 104.214 32.6319C103.758 32.6319 103.372 32.667 103.021 32.7371C102.705 32.8073 102.425 32.9126 102.214 33.088L101.723 33.4389L102.495 29.6494H99.6879L96.3896 45.7197H98.4949L98.9511 45.1933L99.1265 45.3337C99.1616 45.3688 99.337 45.5091 99.5826 45.6846ZM100.319 44.2811C100.039 44.2811 99.8633 44.2109 99.7581 44.0354C99.6528 43.86 99.6177 43.6495 99.6879 43.4039L101.407 35.088C101.477 34.8424 101.583 34.6319 101.723 34.5266C101.863 34.3863 102.074 34.3161 102.319 34.3161C102.565 34.3161 102.741 34.3863 102.881 34.5266C103.021 34.667 103.056 34.9126 102.986 35.1933L101.267 43.474C101.197 43.7196 101.127 43.9302 100.951 44.0705C100.776 44.2109 100.565 44.2811 100.319 44.2811Z" fill="#EA5937"/>
<path d="M111.442 34.3163C111.758 34.3163 111.933 34.4566 112.003 34.597C112.109 34.7724 112.144 34.9829 112.074 35.2636L111.653 37.2636C111.582 37.5443 111.232 37.9303 109.021 38.9128C107.477 39.5794 106.6 40.4215 106.389 41.404L105.828 44.1058C105.688 44.7374 105.758 45.1935 106.039 45.4742C106.319 45.7549 106.951 45.9303 107.828 45.9303C108.389 45.9303 108.846 45.8953 109.161 45.79C109.442 45.7198 109.688 45.5444 109.863 45.2988L110.495 44.4567L110.214 45.7198H112.635L114.81 35.2636C115.021 34.3163 114.846 33.6496 114.319 33.2636C113.863 32.9127 113.056 32.7373 111.968 32.7373C110.846 32.7373 109.933 32.9127 109.232 33.2636C108.389 33.6847 107.898 34.3513 107.688 35.2636L107.196 37.6496H109.933L110.425 35.1935C110.495 34.9128 110.6 34.7022 110.775 34.5619C111.021 34.3864 111.232 34.3163 111.442 34.3163ZM109.477 44.2812C109.232 44.2812 109.021 44.211 108.881 44.0356C108.74 43.8952 108.705 43.6496 108.775 43.404L109.267 40.983C109.337 40.6672 109.477 40.4215 109.688 40.2461C109.898 40.0707 110.249 39.9303 110.775 39.79L111.126 39.7198L110.354 43.5093C110.319 43.7549 110.179 43.9654 110.039 44.1058C109.898 44.211 109.688 44.2812 109.477 44.2812Z" fill="#EA5937"/>
<path d="M119.547 32.7021C118.881 32.7021 118.319 32.8775 117.828 33.1933C117.372 33.5091 117.091 33.895 116.986 34.3863L114.986 44.0004C114.881 44.4916 115.021 44.9477 115.407 45.3337C115.793 45.7197 116.46 45.9302 117.337 45.9302C117.863 45.9302 118.319 45.86 118.635 45.7197C118.67 45.7197 118.775 45.6495 119.267 45.3337L119.477 45.1933L119.723 45.7547H121.863L125.197 29.6494H122.39L121.618 33.4038L121.302 33.1231C121.161 33.0178 120.951 32.9126 120.635 32.8073C120.354 32.7371 119.968 32.7021 119.547 32.7021ZM118.6 44.2811C118.319 44.2811 118.144 44.2109 118.039 44.0354C117.933 43.86 117.898 43.6495 117.968 43.4039L119.688 35.1231C119.793 34.5968 120.109 34.3161 120.6 34.3161C120.916 34.3161 121.056 34.4565 121.161 34.5617C121.302 34.7372 121.337 34.9126 121.267 35.1933L119.547 43.5091C119.512 43.7547 119.407 43.9653 119.232 44.1056C119.056 44.2109 118.846 44.2811 118.6 44.2811Z" fill="#EA5937"/>
<path d="M139.372 32.7021C138.249 32.7021 137.337 32.9127 136.635 33.2986C135.863 33.7548 135.372 34.4215 135.197 35.3688L133.548 43.3338C133.372 44.2811 133.548 44.9127 134.109 45.3338C134.6 45.6847 135.442 45.8952 136.53 45.8952C137.653 45.8952 138.565 45.7197 139.232 45.3689C140.039 44.9478 140.565 44.2811 140.741 43.3689L141.056 42.1408H138.249L137.899 43.439C137.828 43.6846 137.758 43.8952 137.583 44.0355C137.407 44.211 137.197 44.2811 136.951 44.2811C136.6 44.2811 136.46 44.1408 136.355 44.0004C136.249 43.825 136.249 43.6145 136.285 43.3338L136.951 40.0706H141.372L142.39 35.1583C142.565 34.246 142.355 33.6144 141.758 33.2285C141.302 32.8776 140.46 32.7021 139.372 32.7021ZM138.951 38.4566H137.337L138.039 35.1232C138.109 34.8425 138.214 34.632 138.39 34.4916C138.565 34.3513 138.776 34.2811 138.986 34.2811C139.337 34.2811 139.478 34.4215 139.548 34.5618C139.653 34.7372 139.688 34.9478 139.618 35.2285L138.951 38.4566Z" fill="#EA5937"/>
<path d="M141.969 45.7197H144.776L146.951 35.1231C146.986 34.8775 147.092 34.667 147.267 34.5617C147.407 34.4214 147.618 34.3512 147.864 34.3512C148.109 34.3512 148.285 34.4214 148.425 34.5617C148.565 34.7021 148.6 34.9477 148.53 35.2284L147.969 37.86H150.776L151.513 34.3161C151.618 33.86 151.513 33.474 151.197 33.1582C150.881 32.8424 150.39 32.667 149.758 32.667C149.337 32.667 148.916 32.7021 148.565 32.8073C148.214 32.9126 147.934 33.0179 147.723 33.1582L147.267 33.474L147.407 32.7372H144.6L141.969 45.7197Z" fill="#EA5937"/>
<path d="M17.9488 48.2521L12.1023 42.4057C11.3715 41.6749 11.3715 40.4568 12.1023 39.6651L23.9171 27.8503C24.6479 27.1195 25.8659 27.1195 26.6576 27.8503L27.4493 28.6421L29.1546 26.815L27.4493 25.1098C26.2313 23.8918 24.2825 23.8918 23.1254 25.1098L9.36176 38.8734C8.14374 40.0914 8.14374 42.0403 9.36176 43.2583L17.1571 51.0536L17.9488 48.2521Z" fill="#EA5937"/>
<path d="M41.213 38.8735L33.1741 30.8955L32.2605 33.5142L38.4115 39.6652C39.1423 40.3961 39.1423 41.6141 38.4115 42.4058L26.6577 54.2206C25.9268 54.9514 24.7088 54.9514 23.9171 54.2206L22.5773 52.8807L20.8721 54.7078L23.1254 56.9611C24.3434 58.1791 26.2923 58.1791 27.4494 56.9611L41.213 43.1975C42.3701 42.0404 42.3701 40.0915 41.213 38.8735Z" fill="#EA5937"/>
<path d="M36.0973 20.4814L29.3373 39.2998C29.2764 39.5434 29.2764 39.8479 29.4591 40.0306C29.5809 40.2133 29.8245 40.3351 30.0681 40.3351H30.129L33.6613 40.0306L15.3301 59.5189L20.5067 42.7103C20.5676 42.4667 20.5067 42.2231 20.3849 41.9795C20.2631 41.7968 20.0194 41.675 19.7758 41.675H19.7149L16 41.9795L36.0973 20.4814Z" fill="#EA5937"/>
</svg>
