<svg width="160" height="80" viewBox="0 0 160 80" fill="none" xmlns="http://www.w3.org/2000/svg">
<path d="M63.7001 33.0933C63.7001 34.8267 63.7001 35.7387 63.9827 35.98C64.2094 36.1827 64.5587 36.2787 65.6094 36.2787C66.3227 36.2787 66.8427 36.2627 67.1787 35.9C67.3622 35.6667 67.4817 35.3896 67.5254 35.096C67.5361 34.9627 67.5654 34.896 67.6587 34.896C67.7521 34.896 67.7654 34.9627 67.7654 35.1227C67.7357 35.6425 67.668 36.1594 67.5627 36.6693C67.4787 36.9627 67.4121 37.032 66.7174 37.032C64.7841 37.032 63.8974 36.9493 62.8081 36.9493L61.1174 36.9893C60.9441 36.9893 60.8481 36.9493 60.8481 36.856C60.8481 36.7893 60.9041 36.7493 61.0641 36.7493C61.227 36.7497 61.3893 36.7313 61.5481 36.6947C61.8147 36.6413 61.8841 36.3453 61.9387 35.9587C62.0054 35.3907 62.0054 34.332 62.0054 33.096V30.7333L61.9787 27.8867C61.9494 27.4293 61.8454 27.2147 61.4027 27.1213C61.2907 27.0947 61.1321 27.0813 60.9601 27.0813C60.8107 27.0813 60.7334 27.0547 60.7334 26.948C60.7334 26.8413 60.8267 26.8147 61.0294 26.8147L62.8667 26.8547L64.6934 26.8147C64.8827 26.8147 64.9601 26.8413 64.9601 26.948C64.9601 27.0547 64.8801 27.0813 64.7174 27.0813C64.5424 27.0819 64.3677 27.0953 64.1947 27.1213C63.8321 27.188 63.7227 27.4187 63.6947 27.8867L63.6707 30.7333V33.0973L63.7001 33.0933ZM70.6134 30.7307L70.5894 27.884C70.5627 27.4267 70.4294 27.2 70.1307 27.132C69.9974 27.092 69.8067 27.0787 69.6467 27.0787C69.5134 27.0787 69.4307 27.052 69.4307 26.9453C69.4307 26.8653 69.5401 26.8387 69.7547 26.8387L71.4881 26.8787L73.1281 26.8387C73.3014 26.8387 73.3947 26.8653 73.3947 26.9453C73.3947 27.052 73.3147 27.0787 73.1814 27.0787C73.0471 27.0801 72.9133 27.0935 72.7814 27.1187C72.4187 27.1853 72.3121 27.416 72.2841 27.884C72.2574 28.3133 72.2574 28.6907 72.2574 30.7307V33.0947L72.3134 36.0373C72.3534 36.3973 72.4467 36.64 72.8521 36.6933C73.0387 36.72 73.3321 36.7467 73.5347 36.7467C73.6787 36.7467 73.7481 36.7867 73.7481 36.8533C73.7481 36.9493 73.6414 36.9867 73.4921 36.9867C72.6067 36.9867 71.7587 36.9467 71.3987 36.9467L69.7054 36.9867C69.5321 36.9867 69.4361 36.9467 69.4361 36.8533C69.4361 36.7867 69.4894 36.7467 69.6494 36.7467C69.8123 36.7472 69.9747 36.7289 70.1334 36.692C70.4027 36.6387 70.4801 36.4093 70.5334 36.02C70.6001 35.456 70.6001 34.3987 70.6001 33.0933V30.7307H70.6134ZM77.6801 30.7307L77.6534 27.884C77.6267 27.4267 77.5201 27.212 77.0747 27.1187C76.9681 27.092 76.7387 27.0787 76.5494 27.0787C76.4161 27.0787 76.3227 27.052 76.3227 26.9453C76.3227 26.8387 76.4201 26.812 76.6201 26.812L78.4467 26.852L80.0841 26.812C82.5147 26.812 82.9467 28.116 82.9467 28.828C82.9467 29.928 82.3121 30.584 81.5734 31.1747C82.6734 31.552 84.0187 32.508 84.0187 34.0773C84.0187 35.5133 82.9014 37.0067 80.4187 37.0067C80.0987 37.0067 78.8774 36.924 78.4721 36.924L76.7787 36.964C76.6054 36.964 76.5121 36.924 76.5121 36.8307C76.5121 36.764 76.5654 36.724 76.7254 36.724C76.8892 36.7249 77.0525 36.7065 77.2121 36.6693C77.4787 36.616 77.5454 36.32 77.6121 35.9333C77.6787 35.3653 77.6787 34.3067 77.6787 33.0707V30.72L77.6801 30.7307ZM79.2801 30.96C79.2801 31.0667 79.3174 31.0933 79.3734 31.0933C79.4961 31.12 79.6974 31.1333 80.0054 31.1333C80.4454 31.1333 80.7414 31.08 80.9707 30.8667C81.3201 30.5813 81.5214 30.0987 81.5214 29.44C81.5214 28.544 80.9974 27.36 79.8454 27.36C79.6969 27.3538 79.5481 27.3627 79.4014 27.3867C79.3081 27.4133 79.2681 27.4667 79.2681 27.6133L79.2801 30.96ZM81.0507 32.0347C80.7841 31.8347 80.4601 31.7387 79.9374 31.7107L79.3587 31.6973C79.3054 31.6973 79.2787 31.724 79.2787 31.7907V34.9733C79.2787 35.8587 79.3161 36.0867 79.7494 36.2613C80.0636 36.3757 80.3965 36.43 80.7307 36.4213C81.3334 36.4213 82.3521 36.0987 82.3521 34.704C82.3521 33.868 82.0854 32.74 81.0494 32.0293L81.0507 32.0347ZM87.9147 30.7307L87.8854 27.884C87.8587 27.4267 87.7521 27.212 87.3081 27.1187C87.1347 27.0885 86.9587 27.0751 86.7827 27.0787C86.6387 27.0787 86.5561 27.052 86.5561 26.9453C86.5561 26.8387 86.6494 26.812 86.8521 26.812L88.6921 26.852L90.5854 26.812C91.4321 26.812 92.3187 26.8947 93.0561 27.392C93.4334 27.6587 93.9694 28.3293 93.9694 29.232C93.9694 30.2253 93.5521 31.136 92.1961 32.2387L95.1107 35.772C95.8641 36.5453 96.4147 36.6427 96.6134 36.6813C96.7627 36.708 96.8854 36.7213 96.9921 36.7213C97.0987 36.7213 97.1521 36.7613 97.1521 36.828C97.1521 36.9373 97.0561 36.9613 96.8947 36.9613H95.6187C94.8667 36.9613 94.5347 36.8947 94.1787 36.6947C93.6054 36.3853 93.0947 35.7573 92.3387 34.7213L91.0107 32.8547C90.9441 32.7747 90.8614 32.7613 90.7707 32.7613L89.6001 32.7347C89.5334 32.7347 89.4934 32.7613 89.4934 32.8413V33.0307L89.5601 35.9053C89.6001 36.3053 89.6934 36.588 90.0827 36.6413C90.3015 36.6721 90.5219 36.6903 90.7427 36.696C90.8467 36.696 90.9001 36.736 90.9001 36.8027C90.9001 36.8987 90.8067 36.936 90.6334 36.936C89.8534 36.936 88.8601 36.896 88.6561 36.896L87.0187 36.936C86.8454 36.936 86.7521 36.896 86.7521 36.8027C86.7521 36.736 86.8054 36.696 86.9654 36.696C87.1283 36.6967 87.2907 36.6783 87.4494 36.6413C87.7187 36.588 87.7854 36.292 87.8494 35.9053C87.9201 35.3373 87.9201 34.2787 87.9201 33.0427L87.9147 30.7307ZM89.4974 31.792C89.4974 31.9253 89.5241 31.992 89.6307 32.0347C89.9626 32.1302 90.3068 32.1761 90.6521 32.1707C91.1881 32.1707 91.3627 32.1147 91.6041 31.94C92.0041 31.644 92.3974 31.0267 92.3974 29.94C92.3974 28.0333 91.1361 27.4787 90.3401 27.4787C90.0067 27.4787 89.7641 27.492 89.6307 27.536C89.5374 27.5627 89.4974 27.616 89.4974 27.7227V31.8067V31.792Z" fill="white"/>
<path d="M99.3403 33.4842C99.2736 33.4842 99.247 33.5108 99.207 33.5908L98.4803 35.5108C98.347 35.8442 98.2803 36.1682 98.2803 36.3295C98.2803 36.5695 98.4136 36.7468 98.8163 36.7468H99.0163C99.1763 36.7468 99.2163 36.7708 99.2163 36.8535C99.2163 36.9628 99.1363 36.9868 98.9896 36.9868C98.559 36.9868 97.983 36.9468 97.563 36.9468L95.979 36.9868C95.8056 36.9868 95.7123 36.9602 95.7123 36.8535C95.7123 36.7735 95.7656 36.7468 95.8723 36.7468C96.0122 36.7445 96.1519 36.7356 96.291 36.7202C96.9083 36.6375 97.163 36.1815 97.431 35.5108L100.802 27.0775C100.962 26.6775 101.044 26.5415 101.179 26.5415C101.314 26.5415 101.379 26.6748 101.512 26.9722L104.842 35.2295C105.354 36.4375 105.744 36.6242 106.023 36.6935C106.227 36.7335 106.426 36.7468 106.586 36.7468C106.695 36.7468 106.763 36.7602 106.763 36.8535C106.763 36.9628 106.64 36.9868 106.143 36.9868C105.659 36.9868 104.68 36.9868 103.607 36.9602C103.367 36.9468 103.202 36.9468 103.202 36.8508C103.202 36.7708 103.259 36.7442 103.391 36.7175C103.487 36.6908 103.578 36.5842 103.524 36.4082L102.452 33.5588C102.426 33.4922 102.383 33.4655 102.319 33.4655H99.323L99.3403 33.4842ZM102.082 32.8135C102.148 32.8135 102.162 32.7735 102.148 32.7335L100.938 29.4188C100.924 29.3628 100.911 29.2962 100.871 29.2962C100.831 29.2962 100.804 29.3628 100.791 29.4188L99.5536 32.7202C99.5403 32.7735 99.5536 32.8135 99.607 32.8135H102.082ZM108.675 30.7308L108.648 27.8842C108.619 27.4268 108.512 27.2122 108.067 27.1188C107.891 27.0885 107.712 27.0751 107.534 27.0788C107.4 27.0788 107.304 27.0522 107.304 26.9455C107.304 26.8388 107.398 26.8122 107.6 26.8122L109.44 26.8522L111.334 26.8122C112.179 26.8122 113.078 26.8948 113.804 27.3922C114.18 27.6588 114.716 28.3295 114.716 29.2322C114.716 30.2255 114.316 31.1362 112.943 32.2388L115.859 35.7722C116.61 36.5455 117.16 36.6428 117.359 36.6815C117.492 36.7082 117.631 36.7215 117.736 36.7215C117.842 36.7215 117.899 36.7615 117.899 36.8282C117.899 36.9375 117.806 36.9615 117.64 36.9615H116.367C115.615 36.9615 115.28 36.8948 114.93 36.6948C114.356 36.3855 113.843 35.7575 113.092 34.7215L111.759 32.8548C111.696 32.7748 111.626 32.7615 111.522 32.7615L110.354 32.7348C110.284 32.7348 110.247 32.7615 110.247 32.8415V33.0308L110.314 35.9055C110.356 36.3055 110.436 36.5882 110.836 36.6415C111.056 36.6721 111.276 36.6904 111.498 36.6962C111.604 36.6962 111.658 36.7362 111.658 36.8028C111.658 36.8988 111.562 36.9362 111.388 36.9362C110.611 36.9362 109.615 36.8962 109.415 36.8962L107.775 36.9362C107.602 36.9362 107.508 36.8962 107.508 36.8028C107.508 36.7362 107.562 36.6962 107.724 36.6962C107.887 36.6966 108.049 36.6783 108.207 36.6415C108.471 36.5882 108.54 36.2922 108.598 35.9055C108.664 35.3375 108.664 34.2788 108.664 33.0428L108.675 30.7308ZM110.258 31.7922C110.258 31.9255 110.284 31.9922 110.391 32.0348C110.658 32.1282 111.075 32.1708 111.411 32.1708C111.95 32.1708 112.123 32.1148 112.364 31.9402C112.767 31.6442 113.156 31.0268 113.156 29.9402C113.156 28.0335 111.894 27.4788 111.103 27.4788C110.766 27.4788 110.524 27.4922 110.39 27.5362C110.294 27.5628 110.256 27.6162 110.256 27.7228L110.258 31.7922ZM120.8 33.5255C120.8 32.8002 120.663 32.5068 120.49 32.1122C119.731 30.8053 118.943 29.5161 118.126 28.2455C117.792 27.7495 117.454 27.4148 117.198 27.2682C117.027 27.1748 116.795 27.0922 116.635 27.0922C116.528 27.0922 116.431 27.0655 116.431 26.9588C116.431 26.8788 116.527 26.8255 116.688 26.8255L118.382 26.8655L119.819 26.8255C119.952 26.8255 120.019 26.8655 120.019 26.9588C120.019 27.0522 119.926 27.0522 119.726 27.0922C119.592 27.1188 119.539 27.2255 119.539 27.3322C119.539 27.4388 119.606 27.6028 119.702 27.7895C119.886 28.1935 121.768 31.4295 121.968 31.7895C122.102 31.4668 123.795 28.5135 123.986 28.0988C124.116 27.8015 124.17 27.5748 124.17 27.3988C124.17 27.2628 124.116 27.1322 123.887 27.0628C123.754 27.0362 123.647 27.0095 123.647 26.9295C123.647 26.8362 123.714 26.7962 123.874 26.7962L125.138 26.8362L126.575 26.7962C126.708 26.7962 126.815 26.8228 126.815 26.9028C126.815 26.9962 126.706 27.0362 126.559 27.0362C126.426 27.0362 126.159 27.0895 125.968 27.1962C125.702 27.3322 125.538 27.4948 125.246 27.8562C124.806 28.3922 122.926 31.5495 122.682 32.1268C122.478 32.6095 122.478 33.0282 122.478 33.4682V34.5695L122.518 35.9028C122.544 36.3028 122.668 36.5855 123.068 36.6388C123.291 36.6711 123.515 36.6894 123.74 36.6935C123.874 36.6935 123.956 36.7335 123.956 36.8002C123.956 36.8962 123.85 36.9335 123.674 36.9335C122.834 36.9335 121.983 36.8935 121.62 36.8935L119.943 36.9335C119.756 36.9335 119.647 36.9068 119.647 36.8002C119.647 36.7335 119.714 36.6935 119.863 36.6935C120.021 36.6931 120.178 36.6747 120.332 36.6388C120.599 36.5855 120.724 36.2895 120.732 35.9028L120.775 34.5695V33.4668L120.8 33.5255ZM129.915 31.9295C129.915 29.6322 131.435 26.6628 135.462 26.6628C138.806 26.6628 140.884 28.6095 140.884 31.6855C140.884 34.7615 138.751 37.1895 135.328 37.1895C131.472 37.1895 129.915 34.3028 129.915 31.9282V31.9295ZM139.008 32.1962C139.008 29.1855 137.275 27.3162 135.075 27.3162C133.528 27.3162 131.771 28.1762 131.771 31.5215C131.771 34.3148 133.315 36.5295 135.904 36.5295C136.843 36.5295 139.02 36.0762 139.02 32.1962H139.008ZM145.974 33.1068L146.043 35.9695C146.083 36.3695 146.16 36.6522 146.576 36.7055C146.799 36.7377 147.024 36.7559 147.25 36.7602C147.426 36.7602 147.48 36.8002 147.48 36.8668C147.48 36.9628 147.384 37.0002 147.182 37.0002C146.335 37.0002 145.492 36.9602 145.142 36.9602L143.435 37.0002C143.248 37.0002 143.168 36.9735 143.168 36.8668C143.168 36.8002 143.222 36.7602 143.368 36.7602C143.531 36.7607 143.694 36.7424 143.852 36.7055C144.119 36.6522 144.188 36.3562 144.242 35.9695C144.308 35.4015 144.308 34.3962 144.308 33.1068V30.7428L144.282 27.8962C144.255 27.4388 144.148 27.2242 143.704 27.1308C143.528 27.1008 143.35 27.0874 143.171 27.0908C143.034 27.0908 142.939 27.0642 142.939 26.9842C142.939 26.8775 143.048 26.8482 143.25 26.8482L145.183 26.8882L148.73 26.8748C148.996 26.8615 149.13 26.8615 149.263 26.8188C149.343 26.7922 149.412 26.7415 149.482 26.7415C149.535 26.7415 149.572 26.7948 149.572 26.8748C149.572 26.9682 149.506 27.1415 149.466 27.4788C149.45 27.6122 149.423 28.4055 149.399 28.5655C149.383 28.6722 149.362 28.7548 149.266 28.7548C149.17 28.7548 149.132 28.6842 149.132 28.5388C149.132 28.4322 149.132 28.2162 149.052 28.0295C148.959 27.8388 148.675 27.6295 148.168 27.6268L146.098 27.5842C146.018 27.5842 145.964 27.6268 145.964 27.7735V31.1308C145.964 31.2108 145.978 31.2642 146.058 31.2642L147.775 31.2508L148.378 31.2348C148.634 31.2215 148.824 31.1682 148.956 30.9948C149.027 30.9148 149.052 30.8615 149.13 30.8615C149.186 30.8615 149.214 30.9015 149.214 30.9948C149.214 31.0882 149.144 31.4108 149.102 31.8242L149.051 32.8082C149.051 32.9415 149.051 33.0748 148.918 33.0748C148.838 33.0748 148.811 32.9815 148.811 32.8855C148.804 32.7446 148.777 32.6054 148.731 32.4722C148.66 32.2815 148.46 32.0415 148.044 31.9882C147.711 31.9482 146.284 31.9482 146.044 31.9482C145.978 31.9482 145.951 31.9775 145.951 32.0815V33.1695L145.974 33.1068ZM62.2216 49.9802C60.907 48.8268 60.5576 47.3215 60.5576 46.0202C60.5576 45.1055 60.8403 43.5215 62.131 42.3402C63.095 41.4562 64.3736 40.9135 66.371 40.9135C67.0232 40.9098 67.6748 40.9553 68.3203 41.0495L69.663 41.2762C69.7963 41.2895 69.8656 41.3562 69.8656 41.4388C69.8656 41.5455 69.8256 41.7082 69.799 42.1788L69.759 43.6282C69.7456 43.8282 69.719 43.9388 69.599 43.9388C69.4923 43.9388 69.463 43.8295 69.463 43.6415C69.443 43.1794 69.257 42.74 68.939 42.4042C68.495 41.9375 67.4496 41.5748 66.215 41.5748C65.0416 41.5748 64.2816 41.8708 63.6896 42.4042C62.7123 43.3055 62.455 44.5842 62.455 45.8868C62.4536 49.0668 64.883 50.6668 66.667 50.6668C67.8616 50.6668 68.587 50.5335 69.123 49.9148C69.3396 49.6564 69.4963 49.3531 69.5816 49.0268C69.6216 48.8135 69.6483 48.7575 69.7576 48.7575C69.851 48.7575 69.8736 48.8535 69.8736 48.9575C69.8736 49.1202 69.7136 50.2908 69.5803 50.7442C69.5658 50.8361 69.525 50.9218 69.4628 50.9909C69.4005 51.06 69.3195 51.1096 69.2296 51.1335C68.6923 51.3508 67.6736 51.4442 66.8123 51.4442C64.9723 51.4442 63.4283 51.0442 62.2056 49.9802H62.2216ZM72.307 46.1802C72.307 43.8802 73.8243 40.9135 77.8536 40.9135C81.1963 40.9135 83.2776 42.8602 83.2776 45.9428C83.2776 49.0095 81.1443 51.4442 77.7203 51.4442C73.8643 51.4442 72.307 48.5562 72.307 46.1828V46.1802ZM81.3976 46.4468C81.3976 43.4402 79.6643 41.5722 77.4643 41.5722C75.9176 41.5722 74.1576 42.4308 74.1576 45.7775C74.1576 48.5695 75.7043 50.7882 78.2816 50.7882C79.2216 50.7882 81.3963 50.3295 81.3963 46.4468H81.3976ZM87.915 49.4428C87.9456 50.4882 88.115 50.8375 88.3856 50.9362C88.6123 51.0162 88.8696 51.0295 89.0856 51.0295C89.219 51.0295 89.3123 51.0562 89.3123 51.1362C89.3123 51.2428 89.187 51.2695 89.003 51.2695C88.1296 51.2695 87.5923 51.2295 87.3363 51.2295L85.8696 51.2695C85.6963 51.2695 85.5736 51.2562 85.5736 51.1362C85.5736 51.0562 85.6536 51.0295 85.7869 51.0295C85.9902 51.0334 86.1932 51.0114 86.391 50.9642C86.743 50.8575 86.791 50.4655 86.807 49.2975L86.9336 41.3335C86.9336 41.0668 86.9736 40.8748 87.107 40.8748C87.2403 40.8748 87.3776 41.0508 87.6056 41.2935L94.723 48.6668H94.7896L94.6563 42.6362C94.639 41.8188 94.523 41.5615 94.199 41.4268C93.999 41.3495 93.6736 41.3495 93.4883 41.3495C93.3283 41.3495 93.271 41.3095 93.271 41.2255C93.271 41.1162 93.4043 41.0922 93.6203 41.0922L95.247 41.1322L96.5616 41.0922C96.735 41.0922 96.8683 41.1015 96.8683 41.2255C96.8683 41.3055 96.7883 41.3495 96.6256 41.3495C96.4923 41.3495 96.3856 41.3495 96.2256 41.3895C95.8523 41.4962 95.743 41.7895 95.7283 42.5295L95.579 51.0042C95.579 51.2975 95.5283 51.4042 95.4056 51.4042C95.255 51.4042 95.0923 51.2708 94.9483 51.1082L90.9843 47.1615L87.7896 43.7748H87.7496L87.915 49.4428ZM108.974 50.3562C108.974 50.7188 108.96 50.7562 108.796 50.8415C107.923 51.2988 106.607 51.4455 105.562 51.4455C102.271 51.4455 99.359 49.8895 99.359 46.1842C99.359 44.0335 100.471 42.5308 101.692 41.7908C102.98 41.0135 104.172 40.9162 105.303 40.9162C106.1 40.9296 106.895 41.0023 107.682 41.1335C108.031 41.2064 108.385 41.2554 108.742 41.2802C108.904 41.2935 108.928 41.3508 108.928 41.4428C108.928 41.5762 108.835 41.9668 108.835 43.6428C108.835 43.8588 108.792 43.9095 108.702 43.9095C108.611 43.9095 108.578 43.8428 108.568 43.7362C108.526 43.4242 108.458 42.9988 108.112 42.6202C107.708 42.1935 106.646 41.5735 105.116 41.5735C104.378 41.5735 103.383 41.6268 102.455 42.4042C101.704 43.0375 101.22 44.0442 101.22 45.6935C101.22 48.5815 103.063 50.7442 105.896 50.7442C106.243 50.7442 106.712 50.7442 107.038 50.6108C107.238 50.5175 107.304 50.3402 107.304 50.1122V48.8522L107.291 47.2522C107.278 46.7988 107.158 46.5802 106.714 46.4842C106.54 46.4556 106.365 46.4426 106.19 46.4455C106.056 46.4455 105.987 46.4188 105.987 46.3388C105.987 46.2322 106.086 46.2028 106.271 46.2028L108.218 46.2428L109.788 46.2028C109.964 46.2028 110.058 46.2322 110.058 46.3388C110.058 46.4188 109.978 46.4455 109.882 46.4455C109.775 46.4455 109.682 46.4588 109.522 46.4855C109.156 46.5562 109.022 46.7855 109.008 47.2535L108.998 48.8628V50.3402L108.974 50.3562ZM113.726 45.0002L113.699 42.1495C113.672 41.6935 113.566 41.4802 113.122 41.3855C113.015 41.3588 112.786 41.3455 112.596 41.3455C112.463 41.3455 112.37 41.3148 112.37 41.2215C112.37 41.1282 112.463 41.0882 112.663 41.0882L114.503 41.1282L116.396 41.0882C117.242 41.0882 118.13 41.1708 118.863 41.6655C119.24 41.9215 119.778 42.6068 119.778 43.5055C119.778 44.4988 119.378 45.4122 118.004 46.5148L120.92 50.0442C121.672 50.8255 122.224 50.9175 122.427 50.9588C122.55 50.9842 122.676 50.9976 122.802 50.9988C122.911 50.9988 122.962 51.0388 122.962 51.1055C122.962 51.2122 122.871 51.2388 122.695 51.2388H121.419C120.667 51.2388 120.332 51.1722 119.983 50.9722C119.403 50.6602 118.895 50.0295 118.143 48.9962L116.815 47.1295C116.748 47.0495 116.664 47.0335 116.571 47.0335L115.406 47.0095C115.336 47.0095 115.296 47.0335 115.296 47.1135V47.3002L115.363 50.1775C115.403 50.5682 115.487 50.8615 115.887 50.9162L116.544 50.9695C116.651 50.9695 116.704 51.0095 116.704 51.0762C116.704 51.1695 116.611 51.2095 116.438 51.2095C115.658 51.2095 114.664 51.1695 114.464 51.1695L112.827 51.2095C112.654 51.2095 112.56 51.1695 112.56 51.0762C112.56 51.0095 112.614 50.9695 112.774 50.9695C112.936 50.9695 113.099 50.9516 113.258 50.9162C113.527 50.8602 113.594 50.5668 113.648 50.1775C113.715 49.6108 113.715 48.5508 113.715 47.3162V44.9562L113.726 45.0002ZM115.308 46.0588C115.308 46.1922 115.335 46.2588 115.434 46.2988C115.708 46.3922 116.1 46.4322 116.45 46.4322C116.988 46.4322 117.16 46.3788 117.404 46.2055C117.804 45.9122 118.195 45.2922 118.195 44.2055C118.195 42.3015 116.931 41.7522 116.142 41.7522C115.804 41.7522 115.563 41.7655 115.432 41.8028C115.334 41.8322 115.307 41.8855 115.307 41.9948L115.308 46.0588ZM125.138 45.0002L125.111 42.1495C125.084 41.6935 124.978 41.4802 124.534 41.3855C124.427 41.3588 124.198 41.3455 124.01 41.3455C123.876 41.3455 123.78 41.3148 123.78 41.2215C123.78 41.1282 123.874 41.0882 124.076 41.0882L126.012 41.1282L129.368 41.1122L129.946 41.0322C130.012 41.0188 130.079 40.9815 130.159 40.9815C130.239 40.9815 130.239 41.0322 130.239 41.0975C130.239 41.1948 130.17 41.3535 130.128 41.9722L130.064 42.8588C130.051 42.9282 130.022 42.9922 129.928 42.9922C129.835 42.9922 129.804 42.9255 129.804 42.8055C129.804 42.7122 129.791 42.4828 129.724 42.3255C129.631 42.0815 129.495 41.9215 128.823 41.8428C128.596 41.8162 127.186 41.7895 126.916 41.7895C126.85 41.7895 126.823 41.8295 126.823 41.9228V45.3188C126.823 45.4122 126.836 45.4708 126.916 45.4708L129.05 45.4415C129.372 45.4148 129.575 45.3748 129.695 45.2415C129.788 45.1348 129.844 45.0682 129.911 45.0682C129.964 45.0682 130.004 45.0948 130.004 45.1775C130.004 45.2602 129.938 45.4735 129.898 46.1575L129.844 47.0535C129.844 47.1628 129.844 47.3122 129.722 47.3122C129.628 47.3122 129.588 47.2562 129.588 47.1788C129.575 47.0402 129.575 46.8668 129.535 46.6922C129.468 46.4255 129.279 46.2228 128.784 46.1682C128.148 46.1422 127.512 46.1288 126.875 46.1282C126.808 46.1282 126.795 46.1788 126.795 46.2615V49.4055C126.822 50.3322 127.035 50.5322 128.395 50.5322C128.742 50.5322 129.302 50.5322 129.656 50.3695C130.003 50.2095 130.163 49.9295 130.256 49.3762C130.283 49.2428 130.312 49.1762 130.406 49.1762C130.512 49.1762 130.512 49.2828 130.512 49.4162C130.49 49.9175 130.431 50.4165 130.338 50.9095C130.244 51.2562 130.122 51.2562 129.612 51.2562C127.586 51.2562 126.686 51.1762 125.879 51.1762L124.186 51.2162C124.012 51.2162 123.916 51.1762 123.916 51.0828C123.916 51.0162 123.97 50.9762 124.13 50.9762C124.292 50.9763 124.455 50.9588 124.614 50.9242C124.878 50.8682 124.947 50.5748 125.004 50.1855C125.068 49.6188 125.068 48.5588 125.068 47.3242L125.138 45.0002ZM134.16 51.0935C133.947 51.0028 133.894 50.9335 133.894 50.6402L133.96 48.8802C133.974 48.6802 134.014 48.5335 134.123 48.5335C134.246 48.5335 134.256 48.6668 134.256 48.7602C134.267 48.993 134.307 49.2236 134.374 49.4468C134.667 50.4388 135.463 50.8042 136.298 50.8042C137.503 50.8042 138.094 49.9815 138.094 49.2708C138.094 48.6122 137.896 47.9815 136.78 47.1215L136.162 46.6415C134.695 45.4842 134.162 44.5482 134.162 43.4575C134.162 41.9842 135.395 40.9175 137.262 40.9175C137.865 40.9097 138.467 40.9883 139.048 41.1508C139.182 41.1748 139.235 41.2175 139.235 41.3108C139.235 41.4868 139.179 41.8762 139.179 42.9215C139.179 43.2188 139.139 43.3242 139.046 43.3242C138.952 43.3242 138.912 43.2442 138.912 43.0815C138.912 42.9482 138.846 42.5482 138.563 42.1962C138.363 41.9295 137.974 41.5295 137.102 41.5295C136.106 41.5295 135.502 42.1028 135.502 42.9108C135.502 43.5308 135.812 43.9975 136.926 44.8468L137.299 45.1295C138.899 46.3748 139.504 47.2628 139.504 48.5508C139.512 49.0162 139.4 49.4759 139.179 49.8853C138.957 50.2947 138.634 50.6401 138.24 50.8882C137.57 51.3175 136.819 51.4388 136.107 51.4388C135.328 51.4388 134.723 51.3455 134.147 51.0882L134.16 51.0935ZM143.254 51.0935C143.034 51.0028 142.987 50.9335 142.987 50.6402L143.051 48.8802C143.064 48.6802 143.104 48.5335 143.211 48.5335C143.334 48.5335 143.344 48.6668 143.344 48.7602C143.355 48.9944 143.4 49.2257 143.478 49.4468C143.774 50.4388 144.568 50.8042 145.398 50.8042C146.608 50.8042 147.2 49.9815 147.2 49.2708C147.2 48.6122 146.996 47.9815 145.867 47.1215L145.251 46.6415C143.775 45.4842 143.251 44.5482 143.251 43.4575C143.251 41.9842 144.482 40.9175 146.354 40.9175C146.957 40.9097 147.559 40.9883 148.14 41.1508C148.274 41.1748 148.327 41.2175 148.327 41.3108C148.327 41.4868 148.274 41.8762 148.274 42.9215C148.274 43.2188 148.234 43.3242 148.14 43.3242C148.047 43.3242 148.007 43.2442 148.007 43.0815C148.007 42.9482 147.938 42.5482 147.658 42.1962C147.458 41.9295 147.066 41.5295 146.195 41.5295C145.202 41.5295 144.595 42.1028 144.595 42.9108C144.595 43.5308 144.902 43.9975 146.019 44.8468L146.395 45.1295C147.995 46.3748 148.595 47.2628 148.595 48.5508C148.595 49.3295 148.302 50.2575 147.332 50.8882C146.662 51.3175 145.91 51.4388 145.199 51.4388C144.419 51.4388 143.812 51.3455 143.239 51.0882L143.254 51.0935Z" fill="white"/>
<path d="M48.9149 33.0904C46.7869 33.0904 44.5643 32.3837 44.5643 32.3837C44.5643 32.3837 41.3936 31.4011 39.0763 31.4011C35.5896 31.4011 33.2043 34.2784 33.2043 34.2784V31.9451C33.2043 31.9451 35.4896 29.2411 39.0709 29.2411C40.3696 29.2411 42.0309 29.3117 44.7856 30.1451C47.5403 30.9784 48.9776 30.8744 48.9776 30.8744C52.1029 30.8744 55.1483 29.8038 55.9816 29.4878V26.2878C55.0923 26.5678 51.7309 27.5718 48.9176 27.5718C46.7896 27.5718 44.5669 26.8651 44.5669 26.8651C44.5669 26.8651 41.3963 25.8824 39.0789 25.8824C35.5923 25.8824 33.2069 28.7584 33.2069 28.7584V26.4251C33.2069 26.4251 35.4923 23.7211 39.0736 23.7211C40.3723 23.7211 42.0336 23.7918 44.7883 24.6251C47.5429 25.4584 48.9803 25.3544 48.9803 25.3544C52.1056 25.3544 55.1509 24.2824 55.9843 23.9651V20.4291C55.9843 20.4291 52.1789 21.9958 48.8683 21.9958C45.5576 21.9958 43.5376 20.4131 39.8323 20.4131C36.1269 20.4131 33.2123 22.9171 33.2123 22.9171C33.2123 22.9171 30.2976 20.4131 26.5896 20.4131C22.8816 20.4131 20.8643 21.9958 17.5536 21.9958C14.2429 21.9958 10.4336 20.4291 10.4336 20.4291V57.1331C10.4336 57.1331 13.8763 58.5704 17.3203 58.5704C20.1003 58.5704 23.7003 56.5464 26.2109 56.7091C28.4469 56.8424 29.7669 57.8784 30.7709 59.1624C30.8424 59.2815 30.941 59.382 31.0587 59.4557C31.1764 59.5294 31.3099 59.5742 31.4483 59.5864H34.9776C34.9776 59.5864 35.4283 59.5637 35.6576 59.1624C36.6603 57.8784 37.9776 56.8557 40.2149 56.7091C42.7256 56.5491 45.9216 58.5357 49.1083 58.5704C52.6496 58.6104 55.9923 57.1331 55.9923 57.1331V53.8931C55.1029 54.1757 51.7416 55.1771 48.9283 55.1771C46.8003 55.1771 44.5776 54.4704 44.5776 54.4704C44.5776 54.4704 41.4069 53.4877 39.0896 53.4877C35.6029 53.4877 33.2176 56.3637 33.2176 56.3637V54.0304C33.2176 54.0304 35.5029 51.3264 39.0843 51.3264C40.3829 51.3264 42.0443 51.3971 44.7989 52.2304C47.5536 53.0637 48.9909 52.9597 48.9909 52.9597C52.1163 52.9597 55.1616 51.8891 55.9949 51.5704V48.3704C55.1056 48.6531 51.7443 49.6544 48.9309 49.6544C46.8029 49.6544 44.5803 48.9477 44.5803 48.9477C44.5803 48.9477 41.4096 47.9651 39.0923 47.9651C35.6056 47.9651 33.2203 50.8411 33.2203 50.8411V48.5077C33.2203 48.5077 35.5056 45.8037 39.0869 45.8037C40.3856 45.8037 42.0469 45.8744 44.8016 46.7077C47.5563 47.5411 48.9936 47.4384 48.9936 47.4384C52.1189 47.4384 55.1643 46.3677 55.9976 46.0491V42.8491C55.1083 43.1317 51.7469 44.1331 48.9336 44.1331C46.8056 44.1331 44.5829 43.4264 44.5829 43.4264C44.5829 43.4264 41.4123 42.4437 39.0949 42.4437C35.6083 42.4437 33.2229 45.3197 33.2229 45.3197V42.9864C33.2229 42.9864 35.5083 40.2824 39.0896 40.2824C40.3883 40.2824 42.0496 40.3531 44.8043 41.1864C47.5589 42.0197 48.9963 41.9157 48.9963 41.9157C52.1216 41.9157 55.1669 40.8451 56.0003 40.5264V37.3264C55.1109 37.6064 51.7496 38.6104 48.9363 38.6104C46.8083 38.6104 44.5856 37.9037 44.5856 37.9037C44.5856 37.9037 41.4149 36.9211 39.0976 36.9211C35.6109 36.9211 33.2256 39.7971 33.2256 39.7971V37.4664C33.2256 37.4664 35.5109 34.7624 39.0923 34.7624C40.3909 34.7624 42.0523 34.8331 44.8069 35.6664C47.5616 36.4998 48.9989 36.3971 48.9989 36.3971C52.1243 36.3971 55.1696 35.3251 56.0029 35.0078V31.8078C55.1163 32.0904 51.7549 33.0918 48.9416 33.0918L48.9149 33.0904Z" fill="#0069AA"/>
</svg>
