<svg width="160" height="80" viewBox="0 0 160 80" fill="none" xmlns="http://www.w3.org/2000/svg">
<g filter="url(#filter0_dd_601_9199)">
<mask id="mask0_601_9199" style="mask-type:alpha" maskUnits="userSpaceOnUse" x="119" y="27" width="37" height="27">
<path d="M140.093 46.734C141.885 48.4122 144.287 49.5564 146.613 49.5564C149.397 49.5564 150.961 48.2977 150.961 46.3525C150.961 44.293 149.359 43.6447 147.071 42.6912L143.677 41.2037C141.199 40.1739 138.644 38.2287 138.644 34.5672C138.644 30.6006 142.152 27.5493 146.995 27.5493C149.931 27.5493 152.753 28.7699 154.698 30.7151L152.41 33.5374C150.846 32.2026 149.131 31.4015 146.995 31.4015C144.631 31.4015 143.105 32.5077 143.105 34.3384C143.105 36.2836 145.012 37.0083 147.071 37.8473L150.427 39.2586C153.401 40.5171 155.46 42.386 155.46 46.0093C155.46 50.0522 152.105 53.4086 146.5 53.4086C143.144 53.4086 139.902 52.0737 137.538 49.7471L140.093 46.734Z" fill="white"/>
<path d="M130.888 27.5493H135.221V44.8173C135.221 49.3938 132.507 53.3934 127.3 53.3934C123.757 53.6243 120.72 51.183 119.944 48.6967C120.59 48.5988 121.218 48.4986 122.003 48.2518C122.626 48.0556 123.559 47.634 123.559 47.634C124.261 48.7535 125.504 49.4975 126.92 49.4975C129.112 49.4975 130.889 47.7156 130.889 45.5174L130.888 27.5493Z" fill="white"/>
</mask>
<g mask="url(#mask0_601_9199)">
<path fill-rule="evenodd" clip-rule="evenodd" d="M119.363 29.0354L120.882 28.3269C122.446 27.66 125.529 26.3262 128.612 25.9928C131.695 25.6593 134.778 26.3262 137.86 26.1595C140.897 25.9928 143.98 24.9924 147.063 25.6593C150.146 26.3262 153.229 28.6603 154.793 29.869L156.312 31.0361V34.037H154.793C153.229 34.037 150.146 34.037 147.063 34.037C143.98 34.037 140.897 34.037 137.86 34.037C134.778 34.037 131.695 34.037 128.612 34.037C125.529 34.037 122.446 34.037 120.882 34.037H119.363V29.0354Z" fill="#FF5C5C"/>
<path fill-rule="evenodd" clip-rule="evenodd" d="M119.363 29.1597L120.882 30.264C122.446 31.3683 125.529 33.6229 128.612 33.6229C131.695 33.6229 134.778 31.3683 137.86 30.6321C140.897 29.8959 143.98 30.6321 147.063 31.0002C150.146 31.3683 153.229 31.3683 154.793 31.3683H156.312V39.1445H154.793C153.229 39.1445 150.146 39.1445 147.063 39.1445C143.98 39.1445 140.897 39.1445 137.86 39.1445C134.778 39.1445 131.695 39.1445 128.612 39.1445C125.529 39.1445 122.446 39.1445 120.882 39.1445H119.363V29.1597Z" fill="#F79454"/>
<path fill-rule="evenodd" clip-rule="evenodd" d="M119.363 34.0371L120.882 34.563C122.446 35.0888 125.529 36.1406 128.612 36.1406C131.695 36.1406 134.778 35.0888 137.86 34.8259C140.897 34.563 143.98 35.0888 147.063 36.0091C150.146 36.9294 153.229 38.2769 154.793 38.9342L156.312 39.5916V41.1691H154.793C153.229 41.1691 150.146 41.1691 147.063 41.1691C143.98 41.1691 140.897 41.1691 137.86 41.1691C134.778 41.1691 131.695 41.1691 128.612 41.1691C125.529 41.1691 122.446 41.1691 120.882 41.1691H119.363V34.0371Z" fill="#FFDB5C"/>
<path fill-rule="evenodd" clip-rule="evenodd" d="M119.363 38.5923L120.903 38.9723C122.442 39.3524 125.521 40.1124 128.6 40.1124C131.679 40.1124 134.758 39.3524 137.838 39.5424C140.916 39.7324 143.996 40.8725 147.075 40.8725C150.154 40.8725 153.233 39.7324 154.772 39.1624L156.312 38.5923V48.8532H154.772C153.233 48.8532 150.154 48.8532 147.075 48.8532C143.996 48.8532 140.916 48.8532 137.838 48.8532C134.758 48.8532 131.679 48.8532 128.6 48.8532C125.521 48.8532 122.442 48.8532 120.903 48.8532H119.363V38.5923Z" fill="#5CFF9D"/>
<path fill-rule="evenodd" clip-rule="evenodd" d="M156.312 44.1138L154.793 44.4732C153.229 44.8325 150.146 45.5513 147.063 45.3717C143.98 45.192 140.897 44.1138 137.814 44.1138C134.778 44.1138 131.695 45.192 128.612 45.731C125.529 46.315 122.446 46.315 120.882 46.315H119.363V51.7059H120.882C122.446 51.7059 125.529 51.7059 128.612 51.7059C131.695 51.7059 134.778 51.7059 137.814 51.7059C140.897 51.7059 143.98 51.7059 147.063 51.7059C150.146 51.7059 153.229 51.7059 154.793 51.7059H156.312V44.1138Z" fill="#5C6CFF"/>
<path fill-rule="evenodd" clip-rule="evenodd" d="M119.363 48.6694L123.113 46.7368C124.31 48.6694 125.529 49.6452 128.612 49.7672C131.695 49.8891 134.778 49.0145 137.86 49.0145C140.897 49.0145 143.98 49.8891 147.063 49.7672C150.146 49.6452 154.218 48.6694 155.645 48.0942L156.312 48.6694V53.8228H154.793C153.229 53.8228 150.146 53.8228 147.063 53.8228C143.98 53.8228 140.897 53.8228 137.86 53.8228C134.778 53.8228 131.695 53.8228 128.612 53.8228C125.529 53.8228 122.446 53.8228 120.882 53.8228H119.363V48.6694Z" fill="#B75CFF"/>
</g>
<path fill-rule="evenodd" clip-rule="evenodd" d="M128.08 36.9307C128.08 35.049 127.725 33.4127 127.016 31.9946C126.28 30.6037 125.216 29.5129 123.798 28.722C122.38 27.9311 120.662 27.5493 118.617 27.5493H111.035V46.6394H117.484H118.262C120.156 46.6394 121.608 46.3395 122.955 45.6601C122.953 45.6128 122.953 45.5652 122.953 45.5174C122.953 43.3192 124.729 41.5373 126.921 41.5373C126.986 41.5373 127.051 41.5389 127.115 41.542C127.803 40.1422 128.08 38.7545 128.08 36.9307ZM115.617 31.6401V42.5487H118.208C119.871 42.5487 121.126 42.0577 121.971 41.0487C122.817 40.0669 123.253 38.7306 123.253 37.0125C123.253 35.3217 122.844 34.0127 122.026 33.0582C121.207 32.1037 119.98 31.6401 118.371 31.6401H115.617Z" fill="#5865F2"/>
<path d="M129.44 45.5175C129.44 46.9025 128.317 48.0252 126.933 48.0252C125.548 48.0252 124.425 46.9025 124.425 45.5175C124.425 44.1325 125.548 43.0098 126.933 43.0098C128.317 43.0098 129.44 44.1325 129.44 45.5175Z" fill="#5865F2"/>
<path d="M13.8299 46.6512C15.9313 46.6512 17.7326 46.2418 19.2063 45.3957C20.68 44.5769 21.799 43.4305 22.5358 41.9566C23.2727 40.51 23.6548 38.8178 23.6548 36.9345C23.6548 35.0512 23.3 33.4136 22.5904 31.9943C21.8535 30.6023 20.7892 29.5105 19.37 28.719C17.9509 27.9275 16.2315 27.5453 14.1847 27.5453H6.59766V46.6512H13.8299ZM11.1826 42.5571V31.6395H13.9391C15.5492 31.6395 16.7774 32.1034 17.5961 33.0588C18.4148 34.014 18.8242 35.3242 18.8242 37.0164C18.8242 38.7359 18.3875 40.0733 17.5415 41.0559C16.6955 42.0658 15.4401 42.5571 13.7753 42.5571H11.1826ZM31.438 27.5453H26.853V46.6512H31.438V27.5453ZM41.6796 47.2244C43.9447 47.2244 45.746 46.6785 47.0558 45.5595C48.3385 44.4677 48.9935 42.9665 48.9935 41.0832C48.9935 39.6639 48.5842 38.4903 47.7654 37.5623C46.9468 36.6616 45.6367 35.8973 43.8083 35.3242L41.8431 34.6964C41.1064 34.3962 40.5878 34.0959 40.2605 33.7957C39.9057 33.4955 39.7418 33.1406 39.7418 32.6766C39.7418 31.5303 40.6423 30.9571 42.4711 30.9571C44.4088 30.9571 46.2646 31.5849 48.0656 32.8677V28.6644C46.1553 27.5453 44.1356 26.9722 41.9798 26.9722C39.7692 26.9722 38.0224 27.4908 36.7672 28.5279C35.5116 29.5924 34.884 31.0117 34.884 32.8404C34.884 34.2051 35.2661 35.3242 36.0028 36.1976C36.7398 37.0983 37.9405 37.8079 39.578 38.3811L41.816 39.118C42.6075 39.4456 43.1532 39.7458 43.4535 40.046C43.7537 40.3463 43.8902 40.7557 43.8902 41.2197C43.8902 42.5298 42.9894 43.1849 41.161 43.1849C40.0692 43.1849 38.9778 42.9665 37.8586 42.5571C36.7398 42.1477 35.7573 41.6291 34.884 40.9467V45.2046C36.9307 46.542 39.1961 47.2244 41.6796 47.2244ZM61.2074 47.1971C62.3816 47.1971 63.5273 47.0333 64.5913 46.7331C65.6565 46.4329 66.5842 46.0234 67.3754 45.5049V41.3289C66.6658 41.8202 65.8743 42.2023 64.9741 42.5025C64.073 42.8027 63.1728 42.9665 62.2449 42.9665C60.9619 42.9665 59.8156 42.7209 58.8603 42.2023C57.9053 41.711 57.1683 41.0286 56.6497 40.1279C56.1314 39.2272 55.8585 38.2173 55.8585 37.071C55.8585 35.9246 56.1314 34.9147 56.6497 34.014C57.1683 33.1133 57.9053 32.431 58.8603 31.9397C59.8156 31.4484 60.9071 31.2027 62.1901 31.2027C64.0456 31.2027 65.7379 31.7759 67.294 32.895V28.5552C65.5201 27.518 63.5273 26.9995 61.2625 26.9995C59.2151 26.9995 57.4141 27.4362 55.8857 28.3096C54.3301 29.183 53.1564 30.3839 52.3104 31.9397C51.4644 33.4955 51.0552 35.2423 51.0552 37.2075C51.0552 39.0635 51.4645 40.7557 52.2559 42.2569C53.0474 43.7853 54.2208 44.9863 55.7492 45.8597C57.2777 46.7604 59.1061 47.1971 61.2074 47.1971ZM79.4853 47.1971C81.423 47.1971 83.143 46.7604 84.6706 45.9143C86.1716 45.0682 87.3729 43.8672 88.2184 42.3387C89.0647 40.8103 89.474 39.0635 89.474 37.1256C89.474 35.1877 89.0647 33.4409 88.2184 31.8851C87.3729 30.3566 86.1716 29.1557 84.6706 28.2823C83.143 27.4362 81.423 26.9995 79.4853 26.9995C77.5747 26.9995 75.8558 27.4362 74.3548 28.2823C72.8538 29.1557 71.6804 30.3566 70.8344 31.8851C69.9881 33.4409 69.5511 35.1877 69.5511 37.1256C69.5511 39.0635 69.9881 40.8103 70.8344 42.3387C71.6804 43.8672 72.8538 45.0682 74.3548 45.9143C75.8558 46.7604 77.5747 47.1971 79.4853 47.1971ZM79.4853 42.8573C78.4483 42.8573 77.5481 42.6117 76.7835 42.1204C75.9923 41.6291 75.3915 40.9467 74.9822 40.0733C74.5729 39.2272 74.3548 38.2446 74.3548 37.1529C74.3548 36.0611 74.5729 35.0785 74.9822 34.1778C75.3915 33.3044 75.9923 32.6221 76.7835 32.1034C77.5481 31.5849 78.4483 31.3392 79.4853 31.3392C80.5502 31.3392 81.4504 31.5849 82.2419 32.1034C83.0331 32.6221 83.6339 33.3044 84.0432 34.1778C84.4525 35.0785 84.644 36.0611 84.644 37.1529C84.644 38.2446 84.4251 39.2272 84.0158 40.0733C83.6062 40.9467 83.0066 41.6291 82.2419 42.1204C81.4504 42.6117 80.5502 42.8573 79.4853 42.8573ZM102.646 38.9543C104.311 38.7632 105.566 38.1627 106.467 37.1802C107.367 36.1976 107.804 34.942 107.804 33.4409C107.804 31.6121 107.204 30.1929 105.975 29.1284C104.747 28.0639 103.083 27.5453 101.009 27.5453H92.6025V46.6512H97.1881V38.5994L102.837 46.6512H108.322L102.646 38.9543ZM97.1881 31.3938H100.135C101.036 31.3938 101.719 31.6122 102.182 32.0216C102.646 32.4583 102.892 33.086 102.892 33.8776C102.892 34.7237 102.619 35.3514 102.101 35.8155C101.582 36.2794 100.818 36.4978 99.8083 36.4978H97.1881V31.3938Z" fill="#5865F2"/>
</g>
<defs>
<filter id="filter0_dd_601_9199" x="6.4264" y="26.9722" width="149.205" height="26.8218" filterUnits="userSpaceOnUse" color-interpolation-filters="sRGB">
<feFlood flood-opacity="0" result="BackgroundImageFix"/>
<feColorMatrix in="SourceAlpha" type="matrix" values="0 0 0 0 0 0 0 0 0 0 0 0 0 0 0 0 0 0 127 0" result="hardAlpha"/>
<feOffset dy="0.214067"/>
<feGaussianBlur stdDeviation="0.0856269"/>
<feColorMatrix type="matrix" values="0 0 0 0 0 0 0 0 0 0 0 0 0 0 0 0 0 0 0.04 0"/>
<feBlend mode="normal" in2="BackgroundImageFix" result="effect1_dropShadow_601_9199"/>
<feColorMatrix in="SourceAlpha" type="matrix" values="0 0 0 0 0 0 0 0 0 0 0 0 0 0 0 0 0 0 127 0" result="hardAlpha"/>
<feOffset dy="0.0856269"/>
<feGaussianBlur stdDeviation="0.0321101"/>
<feColorMatrix type="matrix" values="0 0 0 0 0 0 0 0 0 0 0 0 0 0 0 0 0 0 0.1 0"/>
<feBlend mode="normal" in2="effect1_dropShadow_601_9199" result="effect2_dropShadow_601_9199"/>
<feBlend mode="normal" in="SourceGraphic" in2="effect2_dropShadow_601_9199" result="shape"/>
</filter>
</defs>
</svg>
