<svg width="18" height="18" viewBox="0 0 18 18" xmlns="http://www.w3.org/2000/svg">
<g clip-path="url(#clip0_821_78)">
<path d="M9.00001 13.345C10.5399 13.345 11.7931 12.0918 11.7931 10.5519C11.7931 10.3135 11.7615 10.0702 11.6994 9.82879C11.686 9.77667 11.6593 9.72893 11.6219 9.69025C11.5845 9.65158 11.5376 9.62329 11.486 9.60817C11.4344 9.59306 11.3797 9.59163 11.3273 9.60403C11.2749 9.61642 11.2267 9.64222 11.1873 9.67889C11.0152 9.84063 10.7879 9.93083 10.5517 9.9312C10.0384 9.9312 9.6207 9.51348 9.6207 9.00017C9.6207 8.76493 9.71039 8.539 9.8727 8.36427C9.90937 8.32489 9.93517 8.27665 9.94757 8.22429C9.95997 8.17193 9.95854 8.11724 9.94342 8.0656C9.9283 8.01395 9.90002 7.96713 9.86134 7.92972C9.82266 7.89231 9.77492 7.86559 9.72281 7.8522C9.48672 7.79099 9.2439 7.75961 9.00001 7.75879C7.46008 7.75879 6.20691 9.01196 6.20691 10.5519C6.20691 12.0918 7.46008 13.345 9.00001 13.345ZM9.00001 8.37948C9.04253 8.37948 9.08536 8.38072 9.1285 8.38351C9.04371 8.57804 8.99997 8.78797 9.00001 9.00017C9.00001 9.85579 9.69612 10.5519 10.5517 10.5519C10.7659 10.5519 10.9754 10.5075 11.1684 10.4234C11.1855 10.7189 11.1422 11.0148 11.041 11.2929C10.9398 11.5711 10.7829 11.8256 10.5799 12.041C10.3769 12.2564 10.1321 12.4281 9.86045 12.5456C9.58878 12.6631 9.29599 12.7239 9.00001 12.7243C7.80208 12.7243 6.8276 11.7498 6.8276 10.5519C6.8276 9.35396 7.80208 8.37948 9.00001 8.37948Z"/>
<path d="M17.9423 10.3713C17.8116 10.1886 14.6806 5.89648 9 5.89648C3.31945 5.89648 0.188379 10.1886 0.0577235 10.3713C0.0201608 10.424 -3.05176e-05 10.487 -3.05176e-05 10.5517C-3.05176e-05 10.6163 0.0201608 10.6793 0.0577235 10.732C0.0847235 10.7701 0.737068 11.6745 1.97814 12.6682C2.00997 12.6937 2.0465 12.7126 2.08566 12.724C2.12481 12.7353 2.16582 12.7389 2.20634 12.7344C2.24685 12.7299 2.28609 12.7174 2.3218 12.6978C2.35752 12.6781 2.38901 12.6516 2.41448 12.6198C2.43995 12.588 2.45891 12.5514 2.47026 12.5123C2.48161 12.4731 2.48514 12.4321 2.48065 12.3916C2.47615 12.3511 2.46372 12.3118 2.44406 12.2761C2.4244 12.2404 2.3979 12.2089 2.36607 12.1834C1.51386 11.5013 0.949034 10.8552 0.703241 10.5517C1.20817 9.93097 3.05969 7.87307 6.04055 6.96035C5.00555 7.81504 4.34483 9.10762 4.34483 10.5517C4.34483 13.1185 6.43314 15.2068 9 15.2068C11.5669 15.2068 13.6552 13.1185 13.6552 10.5517C13.6552 9.10886 12.9954 7.81721 11.9616 6.96283C14.9363 7.87679 16.7906 9.93221 17.2964 10.5523C17.0503 10.8561 16.4855 11.5016 15.6336 12.1838C15.5693 12.2352 15.5281 12.3101 15.519 12.3919C15.51 12.4737 15.5338 12.5558 15.5852 12.6201C15.6366 12.6844 15.7115 12.7256 15.7934 12.7347C15.8752 12.7438 15.9573 12.72 16.0216 12.6685C17.2629 11.6748 17.915 10.7701 17.942 10.7323C17.9796 10.6797 17.9999 10.6166 18 10.5519C18 10.4871 17.9799 10.424 17.9423 10.3713ZM13.0345 10.5517C13.0345 12.7762 11.2246 14.5861 9 14.5861C6.77545 14.5861 4.96552 12.7762 4.96552 10.5517C4.96552 8.3271 6.77545 6.51717 9 6.51717C11.2246 6.51717 13.0345 8.32679 13.0345 10.5517Z"/>
<path d="M2.69564 7.42362C4.0115 6.44386 6.17337 5.27573 8.99999 5.27573C11.8266 5.27573 13.9885 6.44386 15.3043 7.42362C15.3703 7.47276 15.4532 7.49366 15.5346 7.48173C15.616 7.4698 15.6894 7.42601 15.7385 7.36C15.7876 7.29399 15.8085 7.21116 15.7966 7.12974C15.7847 7.04832 15.7409 6.97497 15.6749 6.92583C15.4014 6.72231 15.1193 6.53055 14.8295 6.35107L15.3329 5.47745C15.3532 5.44214 15.3664 5.40316 15.3717 5.36274C15.377 5.32233 15.3743 5.28126 15.3637 5.2419C15.3532 5.20253 15.3349 5.16563 15.3101 5.13331C15.2853 5.10099 15.2543 5.07388 15.219 5.05352C15.1837 5.03316 15.1447 5.01996 15.1043 5.01467C15.0639 5.00937 15.0228 5.01209 14.9834 5.02267C14.9441 5.03325 14.9072 5.05147 14.8748 5.07631C14.8425 5.10114 14.8154 5.1321 14.7951 5.16742L14.2929 6.03886C13.6224 5.669 12.9162 5.36788 12.1851 5.14011L12.4929 3.994C12.5035 3.95463 12.5062 3.91357 12.5009 3.87316C12.4955 3.83275 12.4823 3.79378 12.4619 3.75847C12.4416 3.72317 12.4144 3.69223 12.3821 3.66741C12.3498 3.64259 12.3129 3.62439 12.2735 3.61383C12.2341 3.60327 12.1931 3.60058 12.1527 3.60589C12.1122 3.61121 12.0733 3.62443 12.038 3.6448C12.0027 3.66518 11.9717 3.6923 11.9469 3.72464C11.9221 3.75697 11.9039 3.79388 11.8933 3.83324L11.5876 4.97159C10.8417 4.78755 10.0781 4.68413 9.31002 4.66311V3.10331C9.31002 3.021 9.27732 2.94207 9.21912 2.88387C9.16092 2.82567 9.08198 2.79297 8.99968 2.79297C8.91737 2.79297 8.83843 2.82567 8.78023 2.88387C8.72203 2.94207 8.68933 3.021 8.68933 3.10331V4.66311C7.87468 4.68669 7.11278 4.79718 6.41171 4.97159L6.10602 3.83324C6.08204 3.75678 6.02944 3.69255 5.95921 3.65395C5.88898 3.61536 5.80655 3.6054 5.72915 3.62616C5.65175 3.64691 5.58537 3.69677 5.54386 3.76532C5.50236 3.83387 5.48895 3.9158 5.50643 3.994L5.8143 5.14011C5.0831 5.36767 4.37687 5.6688 3.70643 6.03886L3.2043 5.16742C3.18394 5.1321 3.15683 5.10114 3.1245 5.07631C3.09218 5.05147 3.05529 5.03325 3.01592 5.02267C2.97655 5.01209 2.93549 5.00937 2.89507 5.01467C2.85466 5.01996 2.81568 5.03316 2.78037 5.05352C2.74505 5.07388 2.71409 5.10099 2.68926 5.13331C2.66442 5.16563 2.64619 5.20253 2.63562 5.2419C2.62504 5.28126 2.62232 5.32233 2.62762 5.36274C2.63291 5.40316 2.64611 5.44214 2.66647 5.47745L3.16985 6.35107C2.8595 6.54349 2.57678 6.73807 2.32447 6.92583C2.29178 6.9502 2.26422 6.98077 2.24335 7.0158C2.22248 7.05082 2.20871 7.08961 2.20283 7.12996C2.19695 7.17031 2.19908 7.21141 2.20908 7.25094C2.21909 7.29046 2.23679 7.32763 2.26116 7.36031C2.28553 7.393 2.3161 7.42056 2.35113 7.44143C2.38615 7.46231 2.42494 7.47607 2.46529 7.48195C2.50563 7.48783 2.54674 7.48571 2.58627 7.4757C2.62579 7.46569 2.66296 7.44799 2.69564 7.42362Z"/>
</g>
<defs>
<clipPath id="clip0_821_78">
<rect width="18" height="18" fill="white"/>
</clipPath>
</defs>
</svg>
